SplineFontDB: 3.0
FontName: PowerClear-Regular
FullName: Power Clear
FamilyName: Power Clear
Weight: Book
Copyright: (c) 2007 Peter O. http://www.upokecenter.com/
Version: 1.0
ItalicAngle: 0
UnderlinePosition: -34
UnderlineWidth: 68
Ascent: 1638
Descent: 410
InvalidEm: 0
sfntRevision: 0x00010000
LayerCount: 2
Layer: 0 1 "Back" 1
Layer: 1 1 "Fore" 0
XUID: [1021 609 -450105314 19026]
StyleMap: 0x0040
FSType: 0
OS2Version: 3
OS2_WeightWidthSlopeOnly: 0
OS2_UseTypoMetrics: 0
CreationTime: 879794810
ModificationTime: 1590443717
PfmFamily: 81
TTFWeight: 400
TTFWidth: 5
LineGap: 0
VLineGap: 0
Panose: 1 0 0 0 0 0 0 0 0 0
OS2TypoAscent: 768
OS2TypoAOffset: 0
OS2TypoDescent: -192
OS2TypoDOffset: 0
OS2TypoLinegap: 0
OS2WinAscent: 768
OS2WinAOffset: 0
OS2WinDescent: 192
OS2WinDOffset: 0
HheadAscent: 768
HheadAOffset: 0
HheadDescent: -192
HheadDOffset: 0
OS2SubXSize: 204
OS2SubYSize: 204
OS2SubXOff: 0
OS2SubYOff: 0
OS2SupXSize: 204
OS2SupYSize: 204
OS2SupXOff: 0
OS2SupYOff: 0
OS2StrikeYSize: 102
OS2StrikeYPos: 921
OS2Vendor: 'PfEd'
OS2CodePages: 00000003.00000000
OS2UnicodeRanges: 00000003.00060000.00000010.00000000
MarkAttachClasses: 1
DEI: 91125
ShortTable: maxp 16
  1
  0
  477
  67
  13
  0
  0
  0
  0
  0
  0
  0
  0
  0
  0
  0
EndShort
LangName: 1033 "" "" "" "Power Clear-Regular-Peter-O-2007" "" "Version 1.0" "" "" "Peter O." "Peter O." "" "" "http://www.upokecenter.com/"
GaspTable: 1 65535 2 1
Encoding: UnicodeBmp
UnicodeInterp: none
NameList: AGL For New Fonts
DisplaySize: -48
AntiAlias: 1
FitToEm: 0
WinInfo: 64942 38 16
BeginPrivate: 0
EndPrivate
TeXData: 1 0 0 241152 120576 80384 197744 -1048576 80384 783286 444596 497025 792723 393216 433062 380633 303038 157286 324010 404750 52429 2506097 1059062 262144
BeginChars: 65538 477

StartChar: exclam
Encoding: 33 33 1
Width: 128
Flags: W
LayerCount: 2
Fore
SplineSet
0 640 m 1,0,-1
 64 640 l 1,1,-1
 64 256 l 1,2,-1
 0 256 l 1,3,-1
 0 640 l 1,4,-1
 0 640 l 1,0,-1
0 128 m 1,5,-1
 64 128 l 1,6,-1
 64 0 l 1,7,-1
 0 0 l 1,8,-1
 0 128 l 1,9,-1
 0 128 l 1,5,-1
EndSplineSet
EndChar

StartChar: quotedbl
Encoding: 34 34 2
Width: 256
Flags: W
LayerCount: 2
Fore
SplineSet
0 640 m 1,0,-1
 64 640 l 1,1,-1
 64 448 l 1,2,-1
 0 448 l 1,3,-1
 0 640 l 1,4,-1
 0 640 l 1,0,-1
128 640 m 1,5,-1
 192 640 l 1,6,-1
 192 448 l 1,7,-1
 128 448 l 1,8,-1
 128 640 l 1,9,-1
 128 640 l 1,5,-1
EndSplineSet
EndChar

StartChar: numbersign
Encoding: 35 35 3
Width: 384
Flags: W
LayerCount: 2
Fore
SplineSet
128 512 m 1,0,-1
 128 512 l 1,1,-1
 128 384 l 1,2,-1
 192 384 l 1,3,-1
 192 512 l 1,4,-1
 256 512 l 1,5,-1
 256 384 l 1,6,-1
 320 384 l 1,7,-1
 320 320 l 1,8,-1
 256 320 l 1,9,-1
 256 192 l 1,10,-1
 320 192 l 1,11,-1
 320 128 l 1,12,-1
 256 128 l 1,13,-1
 256 0 l 1,14,-1
 192 0 l 1,15,-1
 192 128 l 1,16,-1
 128 128 l 1,17,-1
 128 0 l 1,18,-1
 64 0 l 1,19,-1
 64 128 l 1,20,-1
 0 128 l 1,21,-1
 0 192 l 1,22,-1
 64 192 l 1,23,-1
 64 320 l 1,24,-1
 0 320 l 1,25,-1
 0 384 l 1,26,-1
 64 384 l 1,27,-1
 64 512 l 1,28,-1
 128 512 l 1,0,-1
128 320 m 1,29,-1
 128 192 l 1,30,-1
 192 192 l 1,31,-1
 192 320 l 1,32,-1
 128 320 l 1,33,-1
 128 320 l 1,29,-1
EndSplineSet
EndChar

StartChar: dollar
Encoding: 36 36 4
Width: 449
Flags: W
LayerCount: 2
Fore
SplineSet
128.740234375 579.330078125 m 1,0,-1
 321.849609375 579.330078125 l 1,1,-1
 321.849609375 514.959960938 l 1,2,-1
 193.110351562 514.959960938 l 1,3,-1
 193.110351562 386.219726562 l 1,4,-1
 321.849609375 386.219726562 l 1,5,-1
 321.849609375 514.959960938 l 1,6,-1
 386.219726562 514.959960938 l 1,7,-1
 386.219726562 321.849609375 l 1,8,-1
 193.110351562 321.849609375 l 1,9,-1
 193.110351562 257.48046875 l 1,10,-1
 321.849609375 257.48046875 l 1,11,-1
 321.849609375 193.110351562 l 1,12,-1
 193.110351562 193.110351562 l 1,13,-1
 193.110351562 128.740234375 l 1,14,-1
 321.849609375 128.740234375 l 1,15,-1
 321.849609375 64.3701171875 l 1,16,-1
 193.110351562 64.3701171875 l 1,17,-1
 193.110351562 -64.3701171875 l 1,18,-1
 128.740234375 -64.3701171875 l 1,19,-1
 128.740234375 64.3701171875 l 1,20,-1
 64 64 l 1,21,-1
 64.3701171875 128.740234375 l 1,22,-1
 128.740234375 128.740234375 l 1,23,-1
 128.740234375 193.110351562 l 1,24,-1
 64.3701171875 193.110351562 l 1,25,-1
 64.3701171875 257.48046875 l 1,26,-1
 128.740234375 257.48046875 l 1,27,-1
 128.740234375 579.330078125 l 1,28,-1
 128.740234375 579.330078125 l 1,0,-1
EndSplineSet
EndChar

StartChar: percent
Encoding: 37 37 5
Width: 384
Flags: W
LayerCount: 2
Fore
SplineSet
0 579.330078125 m 1,0,-1
 193.110351562 579.330078125 l 1,1,-1
 193.110351562 450.58984375 l 1,2,-1
 257.48046875 450.58984375 l 1,3,-1
 257.48046875 321.849609375 l 1,4,-1
 193.110351562 321.849609375 l 1,5,-1
 193.110351562 386.219726562 l 1,6,-1
 128.740234375 386.219726562 l 1,7,-1
 128.740234375 514.959960938 l 1,8,-1
 64.3701171875 514.959960938 l 1,9,-1
 64.3701171875 386.219726562 l 1,10,-1
 128.740234375 386.219726562 l 1,11,-1
 128.740234375 321.849609375 l 1,12,-1
 0 321.849609375 l 1,13,-1
 0 579.330078125 l 1,14,-1
 0 579.330078125 l 1,0,-1
257.48046875 579.330078125 m 1,15,-1
 321.849609375 579.330078125 l 1,16,-1
 321.849609375 450.58984375 l 1,17,-1
 257.48046875 450.58984375 l 1,18,-1
 257.48046875 579.330078125 l 1,19,-1
 257.48046875 579.330078125 l 1,15,-1
128.740234375 321.849609375 m 1,20,-1
 193.110351562 321.849609375 l 1,21,-1
 193.110351562 257.48046875 l 1,22,-1
 128.740234375 257.48046875 l 1,23,-1
 128.740234375 321.849609375 l 1,24,-1
 128.740234375 321.849609375 l 1,20,-1
64.3701171875 257.48046875 m 1,25,-1
 128.740234375 257.48046875 l 1,26,-1
 128.740234375 193.110351562 l 1,27,-1
 193.110351562 193.110351562 l 1,28,-1
 193.110351562 64.3701171875 l 1,29,-1
 257.48046875 64.3701171875 l 1,30,-1
 257.48046875 193.110351562 l 1,31,-1
 193.110351562 193.110351562 l 1,32,-1
 193.110351562 257.48046875 l 1,33,-1
 321.849609375 257.48046875 l 1,34,-1
 321.849609375 0 l 1,35,-1
 128.740234375 0 l 1,36,-1
 128.740234375 128.740234375 l 1,37,-1
 64.3701171875 128.740234375 l 1,38,-1
 64.3701171875 257.48046875 l 1,39,-1
 64.3701171875 257.48046875 l 1,25,-1
0 128.740234375 m 1,40,-1
 64.3701171875 128.740234375 l 1,41,-1
 64.3701171875 0 l 1,42,-1
 0 0 l 1,43,-1
 0 128.740234375 l 1,44,-1
 0 128.740234375 l 1,40,-1
EndSplineSet
EndChar

StartChar: ampersand
Encoding: 38 38 6
Width: 386
VWidth: 839
Flags: W
LayerCount: 2
Fore
SplineSet
64 515 m 1,0,-1
 193 515 l 1,1,-1
 193 451 l 1,2,-1
 64 451 l 1,3,-1
 64 515 l 1,4,-1
 64 515 l 1,0,-1
0 451 m 1,5,-1
 64 451 l 1,6,-1
 64 322 l 1,7,-1
 0 322 l 1,8,-1
 0 451 l 1,9,-1
 0 451 l 1,5,-1
193 451 m 1,10,-1
 257 451 l 1,11,-1
 257 322 l 1,12,-1
 193 322 l 1,13,-1
 193 451 l 1,14,-1
 193 451 l 1,10,-1
64 322 m 1,15,-1
 193 322 l 1,16,-1
 193 193 l 1,17,-1
 129 193 l 1,18,-1
 129 257 l 1,19,-1
 64 257 l 1,20,-1
 64 322 l 1,21,-1
 64 322 l 1,15,-1
0 257 m 1,22,-1
 64 257 l 1,23,-1
 64 64 l 1,24,-1
 0 64 l 1,25,-1
 0 257 l 1,26,-1
 0 257 l 1,22,-1
257 257 m 1,27,-1
 322 257 l 1,28,-1
 322 193 l 1,29,-1
 257 193 l 1,30,-1
 257 257 l 1,31,-1
 257 257 l 1,27,-1
193 193 m 1,32,-1
 257 193 l 1,33,-1
 257 64 l 1,34,-1
 193 64 l 1,35,-1
 193 193 l 1,36,-1
 193 193 l 1,32,-1
64 64 m 1,37,-1
 193 64 l 1,38,-1
 193 0 l 1,39,-1
 64 0 l 1,40,-1
 64 64 l 1,41,-1
 64 64 l 1,37,-1
257 64 m 1,42,-1
 322 64 l 1,43,-1
 322 0 l 1,44,-1
 257 0 l 1,45,-1
 257 64 l 1,46,-1
 257 64 l 1,42,-1
EndSplineSet
EndChar

StartChar: quotesingle
Encoding: 39 39 7
Width: 128
VWidth: 839
Flags: W
LayerCount: 2
Fore
SplineSet
0 644 m 1,0,-1
 64 644 l 1,1,-1
 64 451 l 1,2,-1
 0 451 l 1,3,-1
 0 644 l 1,4,-1
 0 644 l 1,0,-1
EndSplineSet
EndChar

StartChar: parenleft
Encoding: 40 40 8
Width: 257
VWidth: 839
Flags: W
LayerCount: 2
Fore
SplineSet
129 579 m 1,0,-1
 193 579 l 1,1,-1
 193 515 l 1,2,-1
 129 515 l 1,3,-1
 129 579 l 1,4,-1
 129 579 l 1,0,-1
64 515 m 1,5,-1
 129 515 l 1,6,-1
 129 386 l 1,7,-1
 64 386 l 1,8,-1
 64 515 l 1,9,-1
 64 515 l 1,5,-1
0 386 m 1,10,-1
 64 386 l 1,11,-1
 64 129 l 1,12,-1
 0 129 l 1,13,-1
 0 386 l 1,14,-1
 0 386 l 1,10,-1
64 129 m 1,15,-1
 129 129 l 1,16,-1
 129 0 l 1,17,-1
 64 0 l 1,18,-1
 64 129 l 1,19,-1
 64 129 l 1,15,-1
129 0 m 1,20,-1
 193 0 l 1,21,-1
 193 -64 l 1,22,-1
 129 -64 l 1,23,-1
 129 0 l 1,24,-1
 129 0 l 1,20,-1
EndSplineSet
EndChar

StartChar: parenright
Encoding: 41 41 9
Width: 257
VWidth: 839
Flags: W
LayerCount: 2
Fore
SplineSet
0 579 m 1,0,-1
 64 579 l 1,1,-1
 64 515 l 1,2,-1
 0 515 l 1,3,-1
 0 579 l 1,4,-1
 0 579 l 1,0,-1
64 515 m 1,5,-1
 129 515 l 1,6,-1
 129 386 l 1,7,-1
 64 386 l 1,8,-1
 64 515 l 1,9,-1
 64 515 l 1,5,-1
129 386 m 1,10,-1
 193 386 l 1,11,-1
 193 129 l 1,12,-1
 129 129 l 1,13,-1
 129 386 l 1,14,-1
 129 386 l 1,10,-1
64 129 m 1,15,-1
 129 129 l 1,16,-1
 129 0 l 1,17,-1
 64 0 l 1,18,-1
 64 129 l 1,19,-1
 64 129 l 1,15,-1
0 0 m 1,20,-1
 64 0 l 1,21,-1
 64 -64 l 1,22,-1
 0 -64 l 1,23,-1
 0 0 l 1,24,-1
 0 0 l 1,20,-1
EndSplineSet
EndChar

StartChar: asterisk
Encoding: 42 42 10
Width: 386
VWidth: 839
Flags: W
LayerCount: 2
Fore
SplineSet
129 644 m 1,0,-1
 193 644 l 1,1,-1
 193 579 l 1,2,-1
 322 579 l 1,3,-1
 322 515 l 1,4,-1
 193 515 l 1,5,-1
 193 451 l 1,6,-1
 129 451 l 1,7,-1
 129 515 l 1,8,-1
 0 515 l 1,9,-1
 0 579 l 1,10,-1
 129 579 l 1,11,-1
 129 644 l 1,12,-1
 129 644 l 1,0,-1
64 451 m 1,13,-1
 129 451 l 1,14,-1
 129 322 l 1,15,-1
 64 322 l 1,16,-1
 64 451 l 1,17,-1
 64 451 l 1,13,-1
193 451 m 1,18,-1
 257 451 l 1,19,-1
 257 322 l 1,20,-1
 193 322 l 1,21,-1
 193 451 l 1,22,-1
 193 451 l 1,18,-1
EndSplineSet
EndChar

StartChar: plus
Encoding: 43 43 11
Width: 386
VWidth: 839
Flags: W
LayerCount: 2
Fore
SplineSet
129 451 m 1,0,-1
 193 451 l 1,1,-1
 193 322 l 1,2,-1
 322 322 l 1,3,-1
 322 257 l 1,4,-1
 193 257 l 1,5,-1
 193 129 l 1,6,-1
 129 129 l 1,7,-1
 129 257 l 1,8,-1
 0 257 l 1,9,-1
 0 322 l 1,10,-1
 129 322 l 1,11,-1
 129 451 l 1,12,-1
 129 451 l 1,0,-1
EndSplineSet
EndChar

StartChar: comma
Encoding: 44 44 12
Width: 257
VWidth: 839
Flags: W
LayerCount: 2
Fore
SplineSet
64 129 m 1,0,-1
 193 129 l 1,1,-1
 193 -64 l 1,2,-1
 129 -64 l 1,3,-1
 129 0 l 1,4,-1
 64 0 l 1,5,-1
 64 129 l 1,6,-1
 64 129 l 1,0,-1
64 -64 m 1,7,-1
 129 -64 l 1,8,-1
 129 -129 l 1,9,-1
 64 -129 l 1,10,-1
 64 -64 l 1,11,-1
 64 -64 l 1,7,-1
EndSplineSet
EndChar

StartChar: hyphen
Encoding: 45 45 13
Width: 386
VWidth: 839
Flags: W
LayerCount: 2
Fore
SplineSet
0 322 m 1,0,-1
 322 322 l 1,1,-1
 322 257 l 1,2,-1
 0 257 l 1,3,-1
 0 322 l 1,4,-1
 0 322 l 1,0,-1
EndSplineSet
EndChar

StartChar: period
Encoding: 46 46 14
Width: 257
VWidth: 839
Flags: W
LayerCount: 2
Fore
SplineSet
64 129 m 1,0,-1
 193 129 l 1,1,-1
 193 0 l 1,2,-1
 64 0 l 1,3,-1
 64 129 l 1,4,-1
 64 129 l 1,0,-1
EndSplineSet
EndChar

StartChar: slash
Encoding: 47 47 15
Width: 386
VWidth: 839
Flags: W
LayerCount: 2
Fore
SplineSet
257 579 m 1,0,-1
 322 579 l 1,1,-1
 322 451 l 1,2,-1
 257 451 l 1,3,-1
 257 579 l 1,4,-1
 257 579 l 1,0,-1
193 451 m 1,5,-1
 257 451 l 1,6,-1
 257 322 l 1,7,-1
 193 322 l 1,8,-1
 193 451 l 1,9,-1
 193 451 l 1,5,-1
129 322 m 1,10,-1
 193 322 l 1,11,-1
 193 193 l 1,12,-1
 129 193 l 1,13,-1
 129 322 l 1,14,-1
 129 322 l 1,10,-1
64 193 m 1,15,-1
 129 193 l 1,16,-1
 129 64 l 1,17,-1
 64 64 l 1,18,-1
 64 193 l 1,19,-1
 64 193 l 1,15,-1
0 64 m 1,20,-1
 64 64 l 1,21,-1
 64 -64 l 1,22,-1
 0 -64 l 1,23,-1
 0 64 l 1,24,-1
 0 64 l 1,20,-1
EndSplineSet
EndChar

StartChar: zero
Encoding: 48 48 16
Width: 386
VWidth: 839
Flags: W
LayerCount: 2
Fore
SplineSet
129 579 m 1,0,-1
 193 579 l 1,1,-1
 193 515 l 1,2,-1
 129 515 l 1,3,-1
 129 579 l 1,4,-1
 129 579 l 1,0,-1
64 515 m 1,5,-1
 129 515 l 1,6,-1
 129 451 l 1,7,-1
 64 451 l 1,8,-1
 64 515 l 1,9,-1
 64 515 l 1,5,-1
193 515 m 1,10,-1
 257 515 l 1,11,-1
 257 451 l 1,12,-1
 193 451 l 1,13,-1
 193 515 l 1,14,-1
 193 515 l 1,10,-1
0 451 m 1,15,-1
 64 451 l 1,16,-1
 64 129 l 1,17,-1
 0 129 l 1,18,-1
 0 451 l 1,19,-1
 0 451 l 1,15,-1
257 451 m 1,20,-1
 322 451 l 1,21,-1
 322 129 l 1,22,-1
 257 129 l 1,23,-1
 257 451 l 1,24,-1
 257 451 l 1,20,-1
64 129 m 1,25,-1
 129 129 l 1,26,-1
 129 64 l 1,27,-1
 64 64 l 1,28,-1
 64 129 l 1,29,-1
 64 129 l 1,25,-1
193 129 m 1,30,-1
 257 129 l 1,31,-1
 257 64 l 1,32,-1
 193 64 l 1,33,-1
 193 129 l 1,34,-1
 193 129 l 1,30,-1
129 64 m 1,35,-1
 193 64 l 1,36,-1
 193 0 l 1,37,-1
 129 0 l 1,38,-1
 129 64 l 1,39,-1
 129 64 l 1,35,-1
EndSplineSet
EndChar

StartChar: one
Encoding: 49 49 17
Width: 386
VWidth: 839
Flags: W
LayerCount: 2
Fore
SplineSet
193 579 m 1,0,-1
 257 579 l 1,1,-1
 257 0 l 1,2,-1
 193 0 l 1,3,-1
 193 451 l 1,4,-1
 64 451 l 1,5,-1
 64 515 l 1,6,-1
 193 515 l 1,7,-1
 193 579 l 1,8,-1
 193 579 l 1,0,-1
EndSplineSet
EndChar

StartChar: two
Encoding: 50 50 18
Width: 386
VWidth: 839
Flags: W
LayerCount: 2
Fore
SplineSet
64 579 m 1,0,-1
 257 579 l 1,1,-1
 257 515 l 1,2,-1
 64 515 l 1,3,-1
 64 579 l 1,4,-1
 64 579 l 1,0,-1
0 515 m 1,5,-1
 64 515 l 1,6,-1
 64 386 l 1,7,-1
 0 386 l 1,8,-1
 0 515 l 1,9,-1
 0 515 l 1,5,-1
257 515 m 1,10,-1
 322 515 l 1,11,-1
 322 322 l 1,12,-1
 257 322 l 1,13,-1
 257 515 l 1,14,-1
 257 515 l 1,10,-1
193 322 m 1,15,-1
 257 322 l 1,16,-1
 257 257 l 1,17,-1
 193 257 l 1,18,-1
 193 322 l 1,19,-1
 193 322 l 1,15,-1
129 257 m 1,20,-1
 193 257 l 1,21,-1
 193 193 l 1,22,-1
 129 193 l 1,23,-1
 129 257 l 1,24,-1
 129 257 l 1,20,-1
64 193 m 1,25,-1
 129 193 l 1,26,-1
 129 129 l 1,27,-1
 64 129 l 1,28,-1
 64 193 l 1,29,-1
 64 193 l 1,25,-1
0 129 m 1,30,-1
 64 129 l 1,31,-1
 64 64 l 1,32,-1
 322 64 l 1,33,-1
 322 0 l 1,34,-1
 0 0 l 1,35,-1
 0 129 l 1,36,-1
 0 129 l 1,30,-1
EndSplineSet
EndChar

StartChar: three
Encoding: 51 51 19
Width: 386
VWidth: 839
Flags: W
LayerCount: 2
Fore
SplineSet
64 579 m 1,0,-1
 257 579 l 1,1,-1
 257 515 l 1,2,-1
 64 515 l 1,3,-1
 64 579 l 1,4,-1
 64 579 l 1,0,-1
0 515 m 1,5,-1
 64 515 l 1,6,-1
 64 386 l 1,7,-1
 0 386 l 1,8,-1
 0 515 l 1,9,-1
 0 515 l 1,5,-1
257 515 m 1,10,-1
 322 515 l 1,11,-1
 322 322 l 1,12,-1
 257 322 l 1,13,-1
 257 515 l 1,14,-1
 257 515 l 1,10,-1
129 322 m 1,15,-1
 257 322 l 1,16,-1
 257 257 l 1,17,-1
 129 257 l 1,18,-1
 129 322 l 1,19,-1
 129 322 l 1,15,-1
257 257 m 1,20,-1
 322 257 l 1,21,-1
 322 64 l 1,22,-1
 257 64 l 1,23,-1
 257 257 l 1,24,-1
 257 257 l 1,20,-1
0 193 m 1,25,-1
 64 193 l 1,26,-1
 64 64 l 1,27,-1
 0 64 l 1,28,-1
 0 193 l 1,29,-1
 0 193 l 1,25,-1
64 64 m 1,30,-1
 257 64 l 1,31,-1
 257 0 l 1,32,-1
 64 0 l 1,33,-1
 64 64 l 1,34,-1
 64 64 l 1,30,-1
EndSplineSet
EndChar

StartChar: four
Encoding: 52 52 20
Width: 386
VWidth: 839
Flags: W
LayerCount: 2
Fore
SplineSet
129 579 m 1,0,-1
 257 579 l 1,1,-1
 257 193 l 1,2,-1
 322 193 l 1,3,-1
 322 129 l 1,4,-1
 257 129 l 1,5,-1
 257 0 l 1,6,-1
 193 0 l 1,7,-1
 193 129 l 1,8,-1
 0 129 l 1,9,-1
 0 386 l 1,10,-1
 64 386 l 1,11,-1
 64 193 l 1,12,-1
 193 193 l 1,13,-1
 193 515 l 1,14,-1
 129 515 l 1,15,-1
 129 579 l 1,16,-1
 129 579 l 1,0,-1
64 515 m 1,17,-1
 129 515 l 1,18,-1
 129 386 l 1,19,-1
 64 386 l 1,20,-1
 64 515 l 1,21,-1
 64 515 l 1,17,-1
EndSplineSet
EndChar

StartChar: five
Encoding: 53 53 21
Width: 386
VWidth: 839
Flags: W
LayerCount: 2
Fore
SplineSet
0 579 m 1,0,-1
 322 579 l 1,1,-1
 322 515 l 1,2,-1
 64 515 l 1,3,-1
 64 322 l 1,4,-1
 257 322 l 1,5,-1
 257 257 l 1,6,-1
 0 257 l 1,7,-1
 0 579 l 1,8,-1
 0 579 l 1,0,-1
257 257 m 1,9,-1
 322 257 l 1,10,-1
 322 64 l 1,11,-1
 257 64 l 1,12,-1
 257 257 l 1,13,-1
 257 257 l 1,9,-1
0 129 m 1,14,-1
 64 129 l 1,15,-1
 64 64 l 1,16,-1
 0 64 l 1,17,-1
 0 129 l 1,18,-1
 0 129 l 1,14,-1
64 64 m 1,19,-1
 257 64 l 1,20,-1
 257 0 l 1,21,-1
 64 0 l 1,22,-1
 64 64 l 1,23,-1
 64 64 l 1,19,-1
EndSplineSet
EndChar

StartChar: six
Encoding: 54 54 22
Width: 386
VWidth: 839
Flags: W
LayerCount: 2
Fore
SplineSet
64 579 m 1,0,-1
 257 579 l 1,1,-1
 257 515 l 1,2,-1
 64 515 l 1,3,-1
 64 579 l 1,4,-1
 64 579 l 1,0,-1
0 515 m 1,5,-1
 64 515 l 1,6,-1
 64 322 l 1,7,-1
 257 322 l 1,8,-1
 257 257 l 1,9,-1
 64 257 l 1,10,-1
 64 64 l 1,11,-1
 0 64 l 1,12,-1
 0 515 l 1,13,-1
 0 515 l 1,5,-1
257 515 m 1,14,-1
 322 515 l 1,15,-1
 322 451 l 1,16,-1
 257 451 l 1,17,-1
 257 515 l 1,18,-1
 257 515 l 1,14,-1
257 257 m 1,19,-1
 322 257 l 1,20,-1
 322 64 l 1,21,-1
 257 64 l 1,22,-1
 257 257 l 1,23,-1
 257 257 l 1,19,-1
64 64 m 1,24,-1
 257 64 l 1,25,-1
 257 0 l 1,26,-1
 64 0 l 1,27,-1
 64 64 l 1,28,-1
 64 64 l 1,24,-1
EndSplineSet
EndChar

StartChar: seven
Encoding: 55 55 23
Width: 386
VWidth: 839
Flags: W
LayerCount: 2
Fore
SplineSet
0 579 m 1,0,-1
 322 579 l 1,1,-1
 322 386 l 1,2,-1
 257 386 l 1,3,-1
 257 515 l 1,4,-1
 0 515 l 1,5,-1
 0 579 l 1,6,-1
 0 579 l 1,0,-1
193 386 m 1,7,-1
 257 386 l 1,8,-1
 257 257 l 1,9,-1
 193 257 l 1,10,-1
 193 386 l 1,11,-1
 193 386 l 1,7,-1
129 257 m 1,12,-1
 193 257 l 1,13,-1
 193 129 l 1,14,-1
 129 129 l 1,15,-1
 129 257 l 1,16,-1
 129 257 l 1,12,-1
64 129 m 1,17,-1
 129 129 l 1,18,-1
 129 0 l 1,19,-1
 64 0 l 1,20,-1
 64 129 l 1,21,-1
 64 129 l 1,17,-1
EndSplineSet
EndChar

StartChar: eight
Encoding: 56 56 24
Width: 386
VWidth: 839
Flags: W
LayerCount: 2
Fore
SplineSet
64 579 m 1,0,-1
 257 579 l 1,1,-1
 257 515 l 1,2,-1
 64 515 l 1,3,-1
 64 579 l 1,4,-1
 64 579 l 1,0,-1
0 515 m 1,5,-1
 64 515 l 1,6,-1
 64 322 l 1,7,-1
 0 322 l 1,8,-1
 0 515 l 1,9,-1
 0 515 l 1,5,-1
257 515 m 1,10,-1
 322 515 l 1,11,-1
 322 322 l 1,12,-1
 257 322 l 1,13,-1
 257 515 l 1,14,-1
 257 515 l 1,10,-1
64 322 m 1,15,-1
 257 322 l 1,16,-1
 257 257 l 1,17,-1
 64 257 l 1,18,-1
 64 322 l 1,19,-1
 64 322 l 1,15,-1
0 257 m 1,20,-1
 64 257 l 1,21,-1
 64 64 l 1,22,-1
 0 64 l 1,23,-1
 0 257 l 1,24,-1
 0 257 l 1,20,-1
257 257 m 1,25,-1
 322 257 l 1,26,-1
 322 64 l 1,27,-1
 257 64 l 1,28,-1
 257 257 l 1,29,-1
 257 257 l 1,25,-1
64 64 m 1,30,-1
 257 64 l 1,31,-1
 257 0 l 1,32,-1
 64 0 l 1,33,-1
 64 64 l 1,34,-1
 64 64 l 1,30,-1
EndSplineSet
EndChar

StartChar: nine
Encoding: 57 57 25
Width: 386
VWidth: 839
Flags: W
LayerCount: 2
Fore
SplineSet
64 579 m 1,0,-1
 257 579 l 1,1,-1
 257 515 l 1,2,-1
 64 515 l 1,3,-1
 64 579 l 1,4,-1
 64 579 l 1,0,-1
0 515 m 1,5,-1
 64 515 l 1,6,-1
 64 322 l 1,7,-1
 0 322 l 1,8,-1
 0 515 l 1,9,-1
 0 515 l 1,5,-1
257 515 m 1,10,-1
 322 515 l 1,11,-1
 322 64 l 1,12,-1
 257 64 l 1,13,-1
 257 257 l 1,14,-1
 64 257 l 1,15,-1
 64 322 l 1,16,-1
 257 322 l 1,17,-1
 257 515 l 1,18,-1
 257 515 l 1,10,-1
0 129 m 1,19,-1
 64 129 l 1,20,-1
 64 64 l 1,21,-1
 0 64 l 1,22,-1
 0 129 l 1,23,-1
 0 129 l 1,19,-1
64 64 m 1,24,-1
 257 64 l 1,25,-1
 257 0 l 1,26,-1
 64 0 l 1,27,-1
 64 64 l 1,28,-1
 64 64 l 1,24,-1
EndSplineSet
EndChar

StartChar: colon
Encoding: 58 58 26
Width: 257
VWidth: 839
Flags: W
LayerCount: 2
Fore
SplineSet
64 451 m 1,0,-1
 193 451 l 1,1,-1
 193 322 l 1,2,-1
 64 322 l 1,3,-1
 64 451 l 1,4,-1
 64 451 l 1,0,-1
64 129 m 1,5,-1
 193 129 l 1,6,-1
 193 0 l 1,7,-1
 64 0 l 1,8,-1
 64 129 l 1,9,-1
 64 129 l 1,5,-1
EndSplineSet
EndChar

StartChar: semicolon
Encoding: 59 59 27
Width: 257
VWidth: 839
Flags: W
LayerCount: 2
Fore
SplineSet
64 451 m 1,0,-1
 193 451 l 1,1,-1
 193 322 l 1,2,-1
 64 322 l 1,3,-1
 64 451 l 1,4,-1
 64 451 l 1,0,-1
64 129 m 1,5,-1
 193 129 l 1,6,-1
 193 -64 l 1,7,-1
 129 -64 l 1,8,-1
 129 0 l 1,9,-1
 64 0 l 1,10,-1
 64 129 l 1,11,-1
 64 129 l 1,5,-1
64 -64 m 1,12,-1
 129 -64 l 1,13,-1
 129 -129 l 1,14,-1
 64 -129 l 1,15,-1
 64 -64 l 1,16,-1
 64 -64 l 1,12,-1
EndSplineSet
EndChar

StartChar: less
Encoding: 60 60 28
Width: 386
VWidth: 839
Flags: W
LayerCount: 2
Fore
SplineSet
257 579 m 1,0,-1
 322 579 l 1,1,-1
 322 515 l 1,2,-1
 257 515 l 1,3,-1
 257 579 l 1,4,-1
 257 579 l 1,0,-1
193 515 m 1,5,-1
 257 515 l 1,6,-1
 257 451 l 1,7,-1
 193 451 l 1,8,-1
 193 515 l 1,9,-1
 193 515 l 1,5,-1
129 451 m 1,10,-1
 193 451 l 1,11,-1
 193 386 l 1,12,-1
 129 386 l 1,13,-1
 129 451 l 1,14,-1
 129 451 l 1,10,-1
64 386 m 1,15,-1
 129 386 l 1,16,-1
 129 322 l 1,17,-1
 64 322 l 1,18,-1
 64 386 l 1,19,-1
 64 386 l 1,15,-1
0 322 m 1,20,-1
 64 322 l 1,21,-1
 64 193 l 1,22,-1
 0 193 l 1,23,-1
 0 322 l 1,24,-1
 0 322 l 1,20,-1
64 193 m 1,25,-1
 129 193 l 1,26,-1
 129 129 l 1,27,-1
 64 129 l 1,28,-1
 64 193 l 1,29,-1
 64 193 l 1,25,-1
129 129 m 1,30,-1
 193 129 l 1,31,-1
 193 64 l 1,32,-1
 129 64 l 1,33,-1
 129 129 l 1,34,-1
 129 129 l 1,30,-1
193 64 m 1,35,-1
 257 64 l 1,36,-1
 257 0 l 1,37,-1
 193 0 l 1,38,-1
 193 64 l 1,39,-1
 193 64 l 1,35,-1
257 0 m 1,40,-1
 322 0 l 1,41,-1
 322 -64 l 1,42,-1
 257 -64 l 1,43,-1
 257 0 l 1,44,-1
 257 0 l 1,40,-1
EndSplineSet
EndChar

StartChar: equal
Encoding: 61 61 29
Width: 386
VWidth: 839
Flags: W
LayerCount: 2
Fore
SplineSet
0 386 m 1,0,-1
 322 386 l 1,1,-1
 322 322 l 1,2,-1
 0 322 l 1,3,-1
 0 386 l 1,4,-1
 0 386 l 1,0,-1
0 193 m 1,5,-1
 322 193 l 1,6,-1
 322 129 l 1,7,-1
 0 129 l 1,8,-1
 0 193 l 1,9,-1
 0 193 l 1,5,-1
EndSplineSet
EndChar

StartChar: greater
Encoding: 62 62 30
Width: 386
VWidth: 839
Flags: W
LayerCount: 2
Fore
SplineSet
0 579 m 1,0,-1
 64 579 l 1,1,-1
 64 515 l 1,2,-1
 0 515 l 1,3,-1
 0 579 l 1,4,-1
 0 579 l 1,0,-1
64 515 m 1,5,-1
 129 515 l 1,6,-1
 129 451 l 1,7,-1
 64 451 l 1,8,-1
 64 515 l 1,9,-1
 64 515 l 1,5,-1
129 451 m 1,10,-1
 193 451 l 1,11,-1
 193 386 l 1,12,-1
 129 386 l 1,13,-1
 129 451 l 1,14,-1
 129 451 l 1,10,-1
193 386 m 1,15,-1
 257 386 l 1,16,-1
 257 322 l 1,17,-1
 193 322 l 1,18,-1
 193 386 l 1,19,-1
 193 386 l 1,15,-1
257 322 m 1,20,-1
 322 322 l 1,21,-1
 322 193 l 1,22,-1
 257 193 l 1,23,-1
 257 322 l 1,24,-1
 257 322 l 1,20,-1
193 193 m 1,25,-1
 257 193 l 1,26,-1
 257 129 l 1,27,-1
 193 129 l 1,28,-1
 193 193 l 1,29,-1
 193 193 l 1,25,-1
129 129 m 1,30,-1
 193 129 l 1,31,-1
 193 64 l 1,32,-1
 129 64 l 1,33,-1
 129 129 l 1,34,-1
 129 129 l 1,30,-1
64 64 m 1,35,-1
 129 64 l 1,36,-1
 129 0 l 1,37,-1
 64 0 l 1,38,-1
 64 64 l 1,39,-1
 64 64 l 1,35,-1
0 0 m 1,40,-1
 64 0 l 1,41,-1
 64 -64 l 1,42,-1
 0 -64 l 1,43,-1
 0 0 l 1,44,-1
 0 0 l 1,40,-1
EndSplineSet
EndChar

StartChar: question
Encoding: 63 63 31
Width: 386
VWidth: 839
Flags: W
LayerCount: 2
Fore
SplineSet
64 644 m 1,0,-1
 257 644 l 1,1,-1
 257 579 l 1,2,-1
 64 579 l 1,3,-1
 64 644 l 1,4,-1
 64 644 l 1,0,-1
0 579 m 1,5,-1
 64 579 l 1,6,-1
 64 451 l 1,7,-1
 0 451 l 1,8,-1
 0 579 l 1,9,-1
 0 579 l 1,5,-1
257 579 m 1,10,-1
 322 579 l 1,11,-1
 322 386 l 1,12,-1
 257 386 l 1,13,-1
 257 579 l 1,14,-1
 257 579 l 1,10,-1
193 386 m 1,15,-1
 257 386 l 1,16,-1
 257 322 l 1,17,-1
 193 322 l 1,18,-1
 193 386 l 1,19,-1
 193 386 l 1,15,-1
129 322 m 1,20,-1
 193 322 l 1,21,-1
 193 193 l 1,22,-1
 129 193 l 1,23,-1
 129 322 l 1,24,-1
 129 322 l 1,20,-1
129 129 m 1,25,-1
 193 129 l 1,26,-1
 193 0 l 1,27,-1
 129 0 l 1,28,-1
 129 129 l 1,29,-1
 129 129 l 1,25,-1
EndSplineSet
EndChar

StartChar: at
Encoding: 64 64 32
Width: 386
VWidth: 839
Flags: W
LayerCount: 2
Fore
SplineSet
129 579 m 1,0,-1
 257 579 l 1,1,-1
 257 515 l 1,2,-1
 129 515 l 1,3,-1
 129 579 l 1,4,-1
 129 579 l 1,0,-1
64 515 m 1,5,-1
 129 515 l 1,6,-1
 129 451 l 1,7,-1
 64 451 l 1,8,-1
 64 515 l 1,9,-1
 64 515 l 1,5,-1
257 515 m 1,10,-1
 322 515 l 1,11,-1
 322 193 l 1,12,-1
 257 193 l 1,13,-1
 257 129 l 1,14,-1
 129 129 l 1,15,-1
 129 193 l 1,16,-1
 193 193 l 1,17,-1
 193 386 l 1,18,-1
 257 386 l 1,19,-1
 257 515 l 1,20,-1
 257 515 l 1,10,-1
0 451 m 1,21,-1
 64 451 l 1,22,-1
 64 386 l 1,23,-1
 129 386 l 1,24,-1
 129 193 l 1,25,-1
 64 193 l 1,26,-1
 64 129 l 1,27,-1
 0 129 l 1,28,-1
 0 451 l 1,29,-1
 0 451 l 1,21,-1
129 451 m 1,30,-1
 193 451 l 1,31,-1
 193 386 l 1,32,-1
 129 386 l 1,33,-1
 129 451 l 1,34,-1
 129 451 l 1,30,-1
64 129 m 1,35,-1
 129 129 l 1,36,-1
 129 64 l 1,37,-1
 64 64 l 1,38,-1
 64 129 l 1,39,-1
 64 129 l 1,35,-1
129 64 m 1,40,-1
 257 64 l 1,41,-1
 257 0 l 1,42,-1
 129 0 l 1,43,-1
 129 64 l 1,44,-1
 129 64 l 1,40,-1
EndSplineSet
EndChar

StartChar: A
Encoding: 65 65 33
Width: 386
VWidth: 839
Flags: W
LayerCount: 2
Fore
SplineSet
64 579 m 1,0,-1
 257 579 l 1,1,-1
 257 515 l 1,2,-1
 64 515 l 1,3,-1
 64 579 l 1,4,-1
 64 579 l 1,0,-1
0 515 m 1,5,-1
 64 515 l 1,6,-1
 64 322 l 1,7,-1
 257 322 l 1,8,-1
 257 515 l 1,9,-1
 322 515 l 1,10,-1
 322 0 l 1,11,-1
 257 0 l 1,12,-1
 257 257 l 1,13,-1
 64 257 l 1,14,-1
 64 0 l 1,15,-1
 0 0 l 1,16,-1
 0 515 l 1,17,-1
 0 515 l 1,5,-1
EndSplineSet
EndChar

StartChar: B
Encoding: 66 66 34
Width: 386
VWidth: 839
Flags: W
LayerCount: 2
Fore
SplineSet
0 579 m 1,0,-1
 257 579 l 1,1,-1
 257 515 l 1,2,-1
 64 515 l 1,3,-1
 64 322 l 1,4,-1
 257 322 l 1,5,-1
 257 257 l 1,6,-1
 64 257 l 1,7,-1
 64 64 l 1,8,-1
 257 64 l 1,9,-1
 257 0 l 1,10,-1
 0 0 l 1,11,-1
 0 579 l 1,12,-1
 0 579 l 1,0,-1
257 515 m 1,13,-1
 322 515 l 1,14,-1
 322 322 l 1,15,-1
 257 322 l 1,16,-1
 257 515 l 1,17,-1
 257 515 l 1,13,-1
257 257 m 1,18,-1
 322 257 l 1,19,-1
 322 64 l 1,20,-1
 257 64 l 1,21,-1
 257 257 l 1,22,-1
 257 257 l 1,18,-1
EndSplineSet
EndChar

StartChar: C
Encoding: 67 67 35
Width: 386
VWidth: 839
Flags: W
LayerCount: 2
Fore
SplineSet
64 579 m 1,0,-1
 257 579 l 1,1,-1
 257 515 l 1,2,-1
 64 515 l 1,3,-1
 64 579 l 1,4,-1
 64 579 l 1,0,-1
0 515 m 1,5,-1
 64 515 l 1,6,-1
 64 64 l 1,7,-1
 0 64 l 1,8,-1
 0 515 l 1,9,-1
 0 515 l 1,5,-1
257 515 m 1,10,-1
 322 515 l 1,11,-1
 322 386 l 1,12,-1
 257 386 l 1,13,-1
 257 515 l 1,14,-1
 257 515 l 1,10,-1
257 193 m 1,15,-1
 322 193 l 1,16,-1
 322 64 l 1,17,-1
 257 64 l 1,18,-1
 257 193 l 1,19,-1
 257 193 l 1,15,-1
64 64 m 1,20,-1
 257 64 l 1,21,-1
 257 0 l 1,22,-1
 64 0 l 1,23,-1
 64 64 l 1,24,-1
 64 64 l 1,20,-1
EndSplineSet
EndChar

StartChar: D
Encoding: 68 68 36
Width: 386
VWidth: 839
Flags: W
LayerCount: 2
Fore
SplineSet
0 579 m 1,0,-1
 257 579 l 1,1,-1
 257 515 l 1,2,-1
 64 515 l 1,3,-1
 64 64 l 1,4,-1
 257 64 l 1,5,-1
 257 0 l 1,6,-1
 0 0 l 1,7,-1
 0 579 l 1,8,-1
 0 579 l 1,0,-1
257 515 m 1,9,-1
 322 515 l 1,10,-1
 322 64 l 1,11,-1
 257 64 l 1,12,-1
 257 515 l 1,13,-1
 257 515 l 1,9,-1
EndSplineSet
EndChar

StartChar: E
Encoding: 69 69 37
Width: 386
VWidth: 839
Flags: W
LayerCount: 2
Fore
SplineSet
0 579 m 1,0,-1
 322 579 l 1,1,-1
 322 515 l 1,2,-1
 64 515 l 1,3,-1
 64 322 l 1,4,-1
 322 322 l 1,5,-1
 322 257 l 1,6,-1
 64 257 l 1,7,-1
 64 64 l 1,8,-1
 322 64 l 1,9,-1
 322 0 l 1,10,-1
 0 0 l 1,11,-1
 0 579 l 1,12,-1
 0 579 l 1,0,-1
EndSplineSet
EndChar

StartChar: F
Encoding: 70 70 38
Width: 386
VWidth: 839
Flags: W
LayerCount: 2
Fore
SplineSet
0 579 m 1,0,-1
 322 579 l 1,1,-1
 322 515 l 1,2,-1
 64 515 l 1,3,-1
 64 322 l 1,4,-1
 257 322 l 1,5,-1
 257 257 l 1,6,-1
 64 257 l 1,7,-1
 64 0 l 1,8,-1
 0 0 l 1,9,-1
 0 579 l 1,10,-1
 0 579 l 1,0,-1
EndSplineSet
EndChar

StartChar: G
Encoding: 71 71 39
Width: 386
VWidth: 839
Flags: W
LayerCount: 2
Fore
SplineSet
64 579 m 1,0,-1
 257 579 l 1,1,-1
 257 515 l 1,2,-1
 64 515 l 1,3,-1
 64 579 l 1,4,-1
 64 579 l 1,0,-1
0 515 m 1,5,-1
 64 515 l 1,6,-1
 64 64 l 1,7,-1
 0 64 l 1,8,-1
 0 515 l 1,9,-1
 0 515 l 1,5,-1
257 515 m 1,10,-1
 322 515 l 1,11,-1
 322 451 l 1,12,-1
 257 451 l 1,13,-1
 257 515 l 1,14,-1
 257 515 l 1,10,-1
193 322 m 1,15,-1
 322 322 l 1,16,-1
 322 64 l 1,17,-1
 257 64 l 1,18,-1
 257 257 l 1,19,-1
 193 257 l 1,20,-1
 193 322 l 1,21,-1
 193 322 l 1,15,-1
64 64 m 1,22,-1
 257 64 l 1,23,-1
 257 0 l 1,24,-1
 64 0 l 1,25,-1
 64 64 l 1,26,-1
 64 64 l 1,22,-1
EndSplineSet
EndChar

StartChar: H
Encoding: 72 72 40
Width: 386
VWidth: 839
Flags: W
LayerCount: 2
Fore
SplineSet
0 579 m 1,0,-1
 64 579 l 1,1,-1
 64 322 l 1,2,-1
 257 322 l 1,3,-1
 257 579 l 1,4,-1
 322 579 l 1,5,-1
 322 0 l 1,6,-1
 257 0 l 1,7,-1
 257 257 l 1,8,-1
 64 257 l 1,9,-1
 64 0 l 1,10,-1
 0 0 l 1,11,-1
 0 579 l 1,12,-1
 0 579 l 1,0,-1
EndSplineSet
EndChar

StartChar: I
Encoding: 73 73 41
Width: 386
VWidth: 839
Flags: W
LayerCount: 2
Fore
SplineSet
64 579 m 1,0,-1
 257 579 l 1,1,-1
 257 515 l 1,2,-1
 193 515 l 1,3,-1
 193 64 l 1,4,-1
 257 64 l 1,5,-1
 257 0 l 1,6,-1
 64 0 l 1,7,-1
 64 64 l 1,8,-1
 129 64 l 1,9,-1
 129 515 l 1,10,-1
 64 515 l 1,11,-1
 64 579 l 1,12,-1
 64 579 l 1,0,-1
EndSplineSet
EndChar

StartChar: J
Encoding: 74 74 42
Width: 386
VWidth: 839
Flags: W
LayerCount: 2
Fore
SplineSet
257 579 m 1,0,-1
 322 579 l 1,1,-1
 322 64 l 1,2,-1
 257 64 l 1,3,-1
 257 579 l 1,4,-1
 257 579 l 1,0,-1
0 193 m 1,5,-1
 64 193 l 1,6,-1
 64 64 l 1,7,-1
 0 64 l 1,8,-1
 0 193 l 1,9,-1
 0 193 l 1,5,-1
64 64 m 1,10,-1
 257 64 l 1,11,-1
 257 0 l 1,12,-1
 64 0 l 1,13,-1
 64 64 l 1,14,-1
 64 64 l 1,10,-1
EndSplineSet
EndChar

StartChar: K
Encoding: 75 75 43
Width: 386
VWidth: 839
Flags: W
LayerCount: 2
Fore
SplineSet
0 579 m 1,0,-1
 64 579 l 1,1,-1
 64 386 l 1,2,-1
 129 386 l 1,3,-1
 129 451 l 1,4,-1
 193 451 l 1,5,-1
 193 257 l 1,6,-1
 129 257 l 1,7,-1
 129 322 l 1,8,-1
 64 322 l 1,9,-1
 64 0 l 1,10,-1
 0 0 l 1,11,-1
 0 579 l 1,12,-1
 0 579 l 1,0,-1
257 579 m 1,13,-1
 322 579 l 1,14,-1
 322 515 l 1,15,-1
 257 515 l 1,16,-1
 257 579 l 1,17,-1
 257 579 l 1,13,-1
193 515 m 1,18,-1
 257 515 l 1,19,-1
 257 451 l 1,20,-1
 193 451 l 1,21,-1
 193 515 l 1,22,-1
 193 515 l 1,18,-1
193 257 m 1,23,-1
 257 257 l 1,24,-1
 257 129 l 1,25,-1
 193 129 l 1,26,-1
 193 257 l 1,27,-1
 193 257 l 1,23,-1
257 129 m 1,28,-1
 322 129 l 1,29,-1
 322 0 l 1,30,-1
 257 0 l 1,31,-1
 257 129 l 1,32,-1
 257 129 l 1,28,-1
EndSplineSet
EndChar

StartChar: L
Encoding: 76 76 44
Width: 386
VWidth: 839
Flags: W
LayerCount: 2
Fore
SplineSet
0 579 m 1,0,-1
 64 579 l 1,1,-1
 64 64 l 1,2,-1
 322 64 l 1,3,-1
 322 0 l 1,4,-1
 0 0 l 1,5,-1
 0 579 l 1,6,-1
 0 579 l 1,0,-1
EndSplineSet
EndChar

StartChar: M
Encoding: 77 77 45
Width: 386
VWidth: 839
Flags: W
LayerCount: 2
Fore
SplineSet
0 579 m 1,0,-1
 64 579 l 1,1,-1
 64 451 l 1,2,-1
 129 451 l 1,3,-1
 129 322 l 1,4,-1
 64 322 l 1,5,-1
 64 0 l 1,6,-1
 0 0 l 1,7,-1
 0 579 l 1,8,-1
 0 579 l 1,0,-1
257 579 m 1,9,-1
 322 579 l 1,10,-1
 322 0 l 1,11,-1
 257 0 l 1,12,-1
 257 322 l 1,13,-1
 193 322 l 1,14,-1
 193 451 l 1,15,-1
 257 451 l 1,16,-1
 257 579 l 1,17,-1
 257 579 l 1,9,-1
129 322 m 1,18,-1
 193 322 l 1,19,-1
 193 193 l 1,20,-1
 129 193 l 1,21,-1
 129 322 l 1,22,-1
 129 322 l 1,18,-1
EndSplineSet
EndChar

StartChar: N
Encoding: 78 78 46
Width: 386
VWidth: 839
Flags: W
LayerCount: 2
Fore
SplineSet
0 579 m 1,0,-1
 64 579 l 1,1,-1
 64 451 l 1,2,-1
 129 451 l 1,3,-1
 129 322 l 1,4,-1
 64 322 l 1,5,-1
 64 0 l 1,6,-1
 0 0 l 1,7,-1
 0 579 l 1,8,-1
 0 579 l 1,0,-1
257 579 m 1,9,-1
 322 579 l 1,10,-1
 322 0 l 1,11,-1
 257 0 l 1,12,-1
 257 129 l 1,13,-1
 193 129 l 1,14,-1
 193 257 l 1,15,-1
 257 257 l 1,16,-1
 257 579 l 1,17,-1
 257 579 l 1,9,-1
129 322 m 1,18,-1
 193 322 l 1,19,-1
 193 257 l 1,20,-1
 129 257 l 1,21,-1
 129 322 l 1,22,-1
 129 322 l 1,18,-1
EndSplineSet
EndChar

StartChar: O
Encoding: 79 79 47
Width: 386
VWidth: 839
Flags: W
LayerCount: 2
Fore
SplineSet
64 579 m 1,0,-1
 257 579 l 1,1,-1
 257 515 l 1,2,-1
 64 515 l 1,3,-1
 64 579 l 1,4,-1
 64 579 l 1,0,-1
0 515 m 1,5,-1
 64 515 l 1,6,-1
 64 64 l 1,7,-1
 0 64 l 1,8,-1
 0 515 l 1,9,-1
 0 515 l 1,5,-1
257 515 m 1,10,-1
 322 515 l 1,11,-1
 322 64 l 1,12,-1
 257 64 l 1,13,-1
 257 515 l 1,14,-1
 257 515 l 1,10,-1
64 64 m 1,15,-1
 257 64 l 1,16,-1
 257 0 l 1,17,-1
 64 0 l 1,18,-1
 64 64 l 1,19,-1
 64 64 l 1,15,-1
EndSplineSet
EndChar

StartChar: P
Encoding: 80 80 48
Width: 386
VWidth: 839
Flags: W
LayerCount: 2
Fore
SplineSet
0 579 m 1,0,-1
 257 579 l 1,1,-1
 257 515 l 1,2,-1
 64 515 l 1,3,-1
 64 322 l 1,4,-1
 257 322 l 1,5,-1
 257 257 l 1,6,-1
 64 257 l 1,7,-1
 64 0 l 1,8,-1
 0 0 l 1,9,-1
 0 579 l 1,10,-1
 0 579 l 1,0,-1
257 515 m 1,11,-1
 322 515 l 1,12,-1
 322 322 l 1,13,-1
 257 322 l 1,14,-1
 257 515 l 1,15,-1
 257 515 l 1,11,-1
EndSplineSet
EndChar

StartChar: Q
Encoding: 81 81 49
Width: 386
VWidth: 839
Flags: W
LayerCount: 2
Fore
SplineSet
64 579 m 1,0,-1
 257 579 l 1,1,-1
 257 515 l 1,2,-1
 64 515 l 1,3,-1
 64 579 l 1,4,-1
 64 579 l 1,0,-1
0 515 m 1,5,-1
 64 515 l 1,6,-1
 64 64 l 1,7,-1
 0 64 l 1,8,-1
 0 515 l 1,9,-1
 0 515 l 1,5,-1
257 515 m 1,10,-1
 322 515 l 1,11,-1
 322 64 l 1,12,-1
 257 64 l 1,13,-1
 257 515 l 1,14,-1
 257 515 l 1,10,-1
129 129 m 1,15,-1
 193 129 l 1,16,-1
 193 64 l 1,17,-1
 257 64 l 1,18,-1
 257 0 l 1,19,-1
 64 0 l 1,20,-1
 64 64 l 1,21,-1
 129 64 l 1,22,-1
 129 129 l 1,23,-1
 129 129 l 1,15,-1
257 0 m 1,24,-1
 322 0 l 1,25,-1
 322 -64 l 1,26,-1
 257 -64 l 1,27,-1
 257 0 l 1,28,-1
 257 0 l 1,24,-1
EndSplineSet
EndChar

StartChar: R
Encoding: 82 82 50
Width: 386
VWidth: 839
Flags: W
LayerCount: 2
Fore
SplineSet
0 579 m 1,0,-1
 257 579 l 1,1,-1
 257 515 l 1,2,-1
 64 515 l 1,3,-1
 64 322 l 1,4,-1
 257 322 l 1,5,-1
 257 193 l 1,6,-1
 193 193 l 1,7,-1
 193 257 l 1,8,-1
 64 257 l 1,9,-1
 64 0 l 1,10,-1
 0 0 l 1,11,-1
 0 579 l 1,12,-1
 0 579 l 1,0,-1
257 515 m 1,13,-1
 322 515 l 1,14,-1
 322 322 l 1,15,-1
 257 322 l 1,16,-1
 257 515 l 1,17,-1
 257 515 l 1,13,-1
257 193 m 1,18,-1
 322 193 l 1,19,-1
 322 0 l 1,20,-1
 257 0 l 1,21,-1
 257 193 l 1,22,-1
 257 193 l 1,18,-1
EndSplineSet
EndChar

StartChar: S
Encoding: 83 83 51
Width: 386
VWidth: 839
Flags: W
LayerCount: 2
Fore
SplineSet
64 579 m 1,0,-1
 257 579 l 1,1,-1
 257 515 l 1,2,-1
 64 515 l 1,3,-1
 64 579 l 1,4,-1
 64 579 l 1,0,-1
0 515 m 1,5,-1
 64 515 l 1,6,-1
 64 322 l 1,7,-1
 0 322 l 1,8,-1
 0 515 l 1,9,-1
 0 515 l 1,5,-1
257 515 m 1,10,-1
 322 515 l 1,11,-1
 322 451 l 1,12,-1
 257 451 l 1,13,-1
 257 515 l 1,14,-1
 257 515 l 1,10,-1
64 322 m 1,15,-1
 257 322 l 1,16,-1
 257 257 l 1,17,-1
 64 257 l 1,18,-1
 64 322 l 1,19,-1
 64 322 l 1,15,-1
257 257 m 1,20,-1
 322 257 l 1,21,-1
 322 64 l 1,22,-1
 257 64 l 1,23,-1
 257 257 l 1,24,-1
 257 257 l 1,20,-1
0 129 m 1,25,-1
 64 129 l 1,26,-1
 64 64 l 1,27,-1
 0 64 l 1,28,-1
 0 129 l 1,29,-1
 0 129 l 1,25,-1
64 64 m 1,30,-1
 257 64 l 1,31,-1
 257 0 l 1,32,-1
 64 0 l 1,33,-1
 64 64 l 1,34,-1
 64 64 l 1,30,-1
EndSplineSet
EndChar

StartChar: T
Encoding: 84 84 52
Width: 386
VWidth: 839
Flags: W
LayerCount: 2
Fore
SplineSet
0 579 m 1,0,-1
 322 579 l 1,1,-1
 322 515 l 1,2,-1
 193 515 l 1,3,-1
 193 0 l 1,4,-1
 129 0 l 1,5,-1
 129 515 l 1,6,-1
 0 515 l 1,7,-1
 0 579 l 1,8,-1
 0 579 l 1,0,-1
EndSplineSet
EndChar

StartChar: U
Encoding: 85 85 53
Width: 386
VWidth: 839
Flags: W
LayerCount: 2
Fore
SplineSet
0 579 m 1,0,-1
 64 579 l 1,1,-1
 64 64 l 1,2,-1
 0 64 l 1,3,-1
 0 579 l 1,4,-1
 0 579 l 1,0,-1
257 579 m 1,5,-1
 322 579 l 1,6,-1
 322 64 l 1,7,-1
 257 64 l 1,8,-1
 257 579 l 1,9,-1
 257 579 l 1,5,-1
64 64 m 1,10,-1
 257 64 l 1,11,-1
 257 0 l 1,12,-1
 64 0 l 1,13,-1
 64 64 l 1,14,-1
 64 64 l 1,10,-1
EndSplineSet
EndChar

StartChar: V
Encoding: 86 86 54
Width: 386
VWidth: 839
Flags: W
LayerCount: 2
Fore
SplineSet
0 579 m 1,0,-1
 64 579 l 1,1,-1
 64 257 l 1,2,-1
 0 257 l 1,3,-1
 0 579 l 1,4,-1
 0 579 l 1,0,-1
257 579 m 1,5,-1
 322 579 l 1,6,-1
 322 257 l 1,7,-1
 257 257 l 1,8,-1
 257 579 l 1,9,-1
 257 579 l 1,5,-1
64 257 m 1,10,-1
 129 257 l 1,11,-1
 129 129 l 1,12,-1
 64 129 l 1,13,-1
 64 257 l 1,14,-1
 64 257 l 1,10,-1
193 257 m 1,15,-1
 257 257 l 1,16,-1
 257 129 l 1,17,-1
 193 129 l 1,18,-1
 193 257 l 1,19,-1
 193 257 l 1,15,-1
129 129 m 1,20,-1
 193 129 l 1,21,-1
 193 0 l 1,22,-1
 129 0 l 1,23,-1
 129 129 l 1,24,-1
 129 129 l 1,20,-1
EndSplineSet
EndChar

StartChar: W
Encoding: 87 87 55
Width: 386
VWidth: 839
Flags: W
LayerCount: 2
Fore
SplineSet
0 579 m 1,0,-1
 64 579 l 1,1,-1
 64 129 l 1,2,-1
 129 129 l 1,3,-1
 129 64 l 1,4,-1
 64 64 l 1,5,-1
 64 0 l 1,6,-1
 0 0 l 1,7,-1
 0 579 l 1,8,-1
 0 579 l 1,0,-1
257 579 m 1,9,-1
 322 579 l 1,10,-1
 322 0 l 1,11,-1
 257 0 l 1,12,-1
 257 64 l 1,13,-1
 193 64 l 1,14,-1
 193 129 l 1,15,-1
 257 129 l 1,16,-1
 257 579 l 1,17,-1
 257 579 l 1,9,-1
129 193 m 1,18,-1
 193 193 l 1,19,-1
 193 129 l 1,20,-1
 129 129 l 1,21,-1
 129 193 l 1,22,-1
 129 193 l 1,18,-1
EndSplineSet
EndChar

StartChar: X
Encoding: 88 88 56
Width: 386
VWidth: 839
Flags: W
LayerCount: 2
Fore
SplineSet
0 579 m 1,0,-1
 64 579 l 1,1,-1
 64 451 l 1,2,-1
 0 451 l 1,3,-1
 0 579 l 1,4,-1
 0 579 l 1,0,-1
257 579 m 1,5,-1
 322 579 l 1,6,-1
 322 451 l 1,7,-1
 257 451 l 1,8,-1
 257 579 l 1,9,-1
 257 579 l 1,5,-1
64 451 m 1,10,-1
 129 451 l 1,11,-1
 129 322 l 1,12,-1
 64 322 l 1,13,-1
 64 451 l 1,14,-1
 64 451 l 1,10,-1
193 451 m 1,15,-1
 257 451 l 1,16,-1
 257 322 l 1,17,-1
 193 322 l 1,18,-1
 193 451 l 1,19,-1
 193 451 l 1,15,-1
129 322 m 1,20,-1
 193 322 l 1,21,-1
 193 257 l 1,22,-1
 129 257 l 1,23,-1
 129 322 l 1,24,-1
 129 322 l 1,20,-1
64 257 m 1,25,-1
 129 257 l 1,26,-1
 129 129 l 1,27,-1
 64 129 l 1,28,-1
 64 257 l 1,29,-1
 64 257 l 1,25,-1
193 257 m 1,30,-1
 257 257 l 1,31,-1
 257 129 l 1,32,-1
 193 129 l 1,33,-1
 193 257 l 1,34,-1
 193 257 l 1,30,-1
0 129 m 1,35,-1
 64 129 l 1,36,-1
 64 0 l 1,37,-1
 0 0 l 1,38,-1
 0 129 l 1,39,-1
 0 129 l 1,35,-1
257 129 m 1,40,-1
 322 129 l 1,41,-1
 322 0 l 1,42,-1
 257 0 l 1,43,-1
 257 129 l 1,44,-1
 257 129 l 1,40,-1
EndSplineSet
EndChar

StartChar: Y
Encoding: 89 89 57
Width: 386
VWidth: 839
Flags: W
LayerCount: 2
Fore
SplineSet
0 579 m 1,0,-1
 64 579 l 1,1,-1
 64 386 l 1,2,-1
 0 386 l 1,3,-1
 0 579 l 1,4,-1
 0 579 l 1,0,-1
257 579 m 1,5,-1
 322 579 l 1,6,-1
 322 386 l 1,7,-1
 257 386 l 1,8,-1
 257 579 l 1,9,-1
 257 579 l 1,5,-1
64 386 m 1,10,-1
 129 386 l 1,11,-1
 129 257 l 1,12,-1
 64 257 l 1,13,-1
 64 386 l 1,14,-1
 64 386 l 1,10,-1
193 386 m 1,15,-1
 257 386 l 1,16,-1
 257 257 l 1,17,-1
 193 257 l 1,18,-1
 193 386 l 1,19,-1
 193 386 l 1,15,-1
129 257 m 1,20,-1
 193 257 l 1,21,-1
 193 0 l 1,22,-1
 129 0 l 1,23,-1
 129 257 l 1,24,-1
 129 257 l 1,20,-1
EndSplineSet
EndChar

StartChar: Z
Encoding: 90 90 58
Width: 386
VWidth: 839
Flags: W
LayerCount: 2
Fore
SplineSet
0 579 m 1,0,-1
 322 579 l 1,1,-1
 322 451 l 1,2,-1
 257 451 l 1,3,-1
 257 515 l 1,4,-1
 0 515 l 1,5,-1
 0 579 l 1,6,-1
 0 579 l 1,0,-1
193 451 m 1,7,-1
 257 451 l 1,8,-1
 257 322 l 1,9,-1
 193 322 l 1,10,-1
 193 451 l 1,11,-1
 193 451 l 1,7,-1
129 322 m 1,12,-1
 193 322 l 1,13,-1
 193 257 l 1,14,-1
 129 257 l 1,15,-1
 129 322 l 1,16,-1
 129 322 l 1,12,-1
64 257 m 1,17,-1
 129 257 l 1,18,-1
 129 129 l 1,19,-1
 64 129 l 1,20,-1
 64 257 l 1,21,-1
 64 257 l 1,17,-1
0 129 m 1,22,-1
 64 129 l 1,23,-1
 64 64 l 1,24,-1
 322 64 l 1,25,-1
 322 0 l 1,26,-1
 0 0 l 1,27,-1
 0 129 l 1,28,-1
 0 129 l 1,22,-1
EndSplineSet
EndChar

StartChar: bracketleft
Encoding: 91 91 59
Width: 257
VWidth: 839
Flags: W
LayerCount: 2
Fore
SplineSet
0 579 m 1,0,-1
 193 579 l 1,1,-1
 193 515 l 1,2,-1
 64 515 l 1,3,-1
 64 0 l 1,4,-1
 193 0 l 1,5,-1
 193 -64 l 1,6,-1
 0 -64 l 1,7,-1
 0 579 l 1,8,-1
 0 579 l 1,0,-1
EndSplineSet
EndChar

StartChar: backslash
Encoding: 92 92 60
Width: 386
VWidth: 839
Flags: W
LayerCount: 2
Fore
SplineSet
0 644 m 1,0,-1
 64 644 l 1,1,-1
 64 515 l 1,2,-1
 0 515 l 1,3,-1
 0 644 l 1,4,-1
 0 644 l 1,0,-1
64 515 m 1,5,-1
 129 515 l 1,6,-1
 129 386 l 1,7,-1
 64 386 l 1,8,-1
 64 515 l 1,9,-1
 64 515 l 1,5,-1
129 386 m 1,10,-1
 193 386 l 1,11,-1
 193 257 l 1,12,-1
 129 257 l 1,13,-1
 129 386 l 1,14,-1
 129 386 l 1,10,-1
193 257 m 1,15,-1
 257 257 l 1,16,-1
 257 129 l 1,17,-1
 193 129 l 1,18,-1
 193 257 l 1,19,-1
 193 257 l 1,15,-1
257 129 m 1,20,-1
 322 129 l 1,21,-1
 322 0 l 1,22,-1
 257 0 l 1,23,-1
 257 129 l 1,24,-1
 257 129 l 1,20,-1
EndSplineSet
EndChar

StartChar: bracketright
Encoding: 93 93 61
Width: 257
VWidth: 839
Flags: W
LayerCount: 2
Fore
SplineSet
0 579 m 1,0,-1
 193 579 l 1,1,-1
 193 -64 l 1,2,-1
 0 -64 l 1,3,-1
 0 0 l 1,4,-1
 129 0 l 1,5,-1
 129 515 l 1,6,-1
 0 515 l 1,7,-1
 0 579 l 1,8,-1
 0 579 l 1,0,-1
EndSplineSet
EndChar

StartChar: asciicircum
Encoding: 94 94 62
Width: 386
VWidth: 839
Flags: W
LayerCount: 2
Fore
SplineSet
129 644 m 1,0,-1
 193 644 l 1,1,-1
 193 579 l 1,2,-1
 129 579 l 1,3,-1
 129 644 l 1,4,-1
 129 644 l 1,0,-1
64 579 m 1,5,-1
 129 579 l 1,6,-1
 129 515 l 1,7,-1
 64 515 l 1,8,-1
 64 579 l 1,9,-1
 64 579 l 1,5,-1
193 579 m 1,10,-1
 257 579 l 1,11,-1
 257 515 l 1,12,-1
 193 515 l 1,13,-1
 193 579 l 1,14,-1
 193 579 l 1,10,-1
0 515 m 1,15,-1
 64 515 l 1,16,-1
 64 451 l 1,17,-1
 0 451 l 1,18,-1
 0 515 l 1,19,-1
 0 515 l 1,15,-1
257 515 m 1,20,-1
 322 515 l 1,21,-1
 322 451 l 1,22,-1
 257 451 l 1,23,-1
 257 515 l 1,24,-1
 257 515 l 1,20,-1
EndSplineSet
EndChar

StartChar: underscore
Encoding: 95 95 63
Width: 386
VWidth: 839
Flags: W
LayerCount: 2
Fore
SplineSet
0 64 m 1,0,-1
 322 64 l 1,1,-1
 322 0 l 1,2,-1
 0 0 l 1,3,-1
 0 64 l 1,4,-1
 0 64 l 1,0,-1
EndSplineSet
EndChar

StartChar: grave
Encoding: 96 96 64
Width: 257
VWidth: 839
Flags: W
LayerCount: 2
Fore
SplineSet
0 644 m 1,0,-1
 64 644 l 1,1,-1
 64 579 l 1,2,-1
 0 579 l 1,3,-1
 0 644 l 1,4,-1
 0 644 l 1,0,-1
64 579 m 1,5,-1
 129 579 l 1,6,-1
 129 515 l 1,7,-1
 64 515 l 1,8,-1
 64 579 l 1,9,-1
 64 579 l 1,5,-1
129 515 m 1,10,-1
 193 515 l 1,11,-1
 193 451 l 1,12,-1
 129 451 l 1,13,-1
 129 515 l 1,14,-1
 129 515 l 1,10,-1
EndSplineSet
EndChar

StartChar: a
Encoding: 97 97 65
Width: 384
Flags: W
LayerCount: 2
Fore
SplineSet
64.3701171875 386.219726562 m 1,0,-1
 257.48046875 386.219726562 l 1,1,-1
 257.48046875 321.849609375 l 1,2,-1
 64.3701171875 321.849609375 l 1,3,-1
 64.3701171875 386.219726562 l 1,4,-1
 64.3701171875 386.219726562 l 1,0,-1
257.48046875 321.849609375 m 1,5,-1
 321.849609375 321.849609375 l 1,6,-1
 321.849609375 0 l 1,7,-1
 64.3701171875 0 l 1,8,-1
 64.3701171875 64.3701171875 l 1,9,-1
 257.48046875 64.3701171875 l 1,10,-1
 257.48046875 193.110351562 l 1,11,-1
 64.3701171875 193.110351562 l 1,12,-1
 64.3701171875 257.48046875 l 1,13,-1
 257.48046875 257.48046875 l 1,14,-1
 257.48046875 321.849609375 l 1,15,-1
 257.48046875 321.849609375 l 1,5,-1
0 193.110351562 m 1,16,-1
 64.3701171875 193.110351562 l 1,17,-1
 64.3701171875 64.3701171875 l 1,18,-1
 0 64.3701171875 l 1,19,-1
 0 193.110351562 l 1,20,-1
 0 193.110351562 l 1,16,-1
EndSplineSet
EndChar

StartChar: b
Encoding: 98 98 66
Width: 384
Flags: W
LayerCount: 2
Fore
SplineSet
0 579.330078125 m 1,0,-1
 64.3701171875 579.330078125 l 1,1,-1
 64.3701171875 386.219726562 l 1,2,-1
 257.48046875 386.219726562 l 1,3,-1
 257.48046875 321.849609375 l 1,4,-1
 64.3701171875 321.849609375 l 1,5,-1
 64.3701171875 64.3701171875 l 1,6,-1
 257.48046875 64.3701171875 l 1,7,-1
 257.48046875 0 l 1,8,-1
 0 0 l 1,9,-1
 0 579.330078125 l 1,10,-1
 0 579.330078125 l 1,0,-1
257.48046875 321.849609375 m 1,11,-1
 321.849609375 321.849609375 l 1,12,-1
 321.849609375 64.3701171875 l 1,13,-1
 257.48046875 64.3701171875 l 1,14,-1
 257.48046875 321.849609375 l 1,15,-1
 257.48046875 321.849609375 l 1,11,-1
EndSplineSet
EndChar

StartChar: c
Encoding: 99 99 67
Width: 384
Flags: W
LayerCount: 2
Fore
SplineSet
64.3701171875 386.219726562 m 1,0,-1
 257.48046875 386.219726562 l 1,1,-1
 257.48046875 321.849609375 l 1,2,-1
 64.3701171875 321.849609375 l 1,3,-1
 64.3701171875 386.219726562 l 1,4,-1
 64.3701171875 386.219726562 l 1,0,-1
0 321.849609375 m 1,5,-1
 64.3701171875 321.849609375 l 1,6,-1
 64.3701171875 64.3701171875 l 1,7,-1
 0 64.3701171875 l 1,8,-1
 0 321.849609375 l 1,9,-1
 0 321.849609375 l 1,5,-1
257.48046875 321.849609375 m 1,10,-1
 321.849609375 321.849609375 l 1,11,-1
 321.849609375 257.48046875 l 1,12,-1
 257.48046875 257.48046875 l 1,13,-1
 257.48046875 321.849609375 l 1,14,-1
 257.48046875 321.849609375 l 1,10,-1
257.48046875 128.740234375 m 1,15,-1
 321.849609375 128.740234375 l 1,16,-1
 321.849609375 64.3701171875 l 1,17,-1
 257.48046875 64.3701171875 l 1,18,-1
 257.48046875 128.740234375 l 1,19,-1
 257.48046875 128.740234375 l 1,15,-1
64.3701171875 64.3701171875 m 1,20,-1
 257.48046875 64.3701171875 l 1,21,-1
 257.48046875 0 l 1,22,-1
 64.3701171875 0 l 1,23,-1
 64.3701171875 64.3701171875 l 1,24,-1
 64.3701171875 64.3701171875 l 1,20,-1
EndSplineSet
EndChar

StartChar: d
Encoding: 100 100 68
Width: 384
Flags: W
LayerCount: 2
Fore
SplineSet
257.48046875 579.330078125 m 1,0,-1
 321.849609375 579.330078125 l 1,1,-1
 321.849609375 0 l 1,2,-1
 64.3701171875 0 l 1,3,-1
 64.3701171875 64.3701171875 l 1,4,-1
 257.48046875 64.3701171875 l 1,5,-1
 257.48046875 321.849609375 l 1,6,-1
 64.3701171875 321.849609375 l 1,7,-1
 64.3701171875 386.219726562 l 1,8,-1
 257.48046875 386.219726562 l 1,9,-1
 257.48046875 579.330078125 l 1,10,-1
 257.48046875 579.330078125 l 1,0,-1
0 321.849609375 m 1,11,-1
 64.3701171875 321.849609375 l 1,12,-1
 64.3701171875 64.3701171875 l 1,13,-1
 0 64.3701171875 l 1,14,-1
 0 321.849609375 l 1,15,-1
 0 321.849609375 l 1,11,-1
EndSplineSet
EndChar

StartChar: e
Encoding: 101 101 69
Width: 384
Flags: W
LayerCount: 2
Fore
SplineSet
64.3701171875 386.219726562 m 1,0,-1
 257.48046875 386.219726562 l 1,1,-1
 257.48046875 321.849609375 l 1,2,-1
 64.3701171875 321.849609375 l 1,3,-1
 64.3701171875 386.219726562 l 1,4,-1
 64.3701171875 386.219726562 l 1,0,-1
0 321.849609375 m 1,5,-1
 64.3701171875 321.849609375 l 1,6,-1
 64.3701171875 193.110351562 l 1,7,-1
 257.48046875 193.110351562 l 1,8,-1
 257.48046875 321.849609375 l 1,9,-1
 321.849609375 321.849609375 l 1,10,-1
 321.849609375 128.740234375 l 1,11,-1
 64.3701171875 128.740234375 l 1,12,-1
 64.3701171875 64.3701171875 l 1,13,-1
 0 64.3701171875 l 1,14,-1
 0 321.849609375 l 1,15,-1
 0 321.849609375 l 1,5,-1
64.3701171875 64.3701171875 m 1,16,-1
 321.849609375 64.3701171875 l 1,17,-1
 321.849609375 0 l 1,18,-1
 64.3701171875 0 l 1,19,-1
 64.3701171875 64.3701171875 l 1,20,-1
 64.3701171875 64.3701171875 l 1,16,-1
EndSplineSet
EndChar

StartChar: f
Encoding: 102 102 70
Width: 319
Flags: W
LayerCount: 2
Fore
SplineSet
128.740234375 579.330078125 m 1,0,-1
 257.48046875 579.330078125 l 1,1,-1
 257.48046875 514.959960938 l 1,2,-1
 128.740234375 514.959960938 l 1,3,-1
 128.740234375 579.330078125 l 1,4,-1
 128.740234375 579.330078125 l 1,0,-1
64.3701171875 514.959960938 m 1,5,-1
 128.740234375 514.959960938 l 1,6,-1
 128.740234375 386.219726562 l 1,7,-1
 257.48046875 386.219726562 l 1,8,-1
 257.48046875 321.849609375 l 1,9,-1
 128.740234375 321.849609375 l 1,10,-1
 128.740234375 0 l 1,11,-1
 64.3701171875 0 l 1,12,-1
 64.3701171875 321.849609375 l 1,13,-1
 0 321.849609375 l 1,14,-1
 0 386.219726562 l 1,15,-1
 64.3701171875 386.219726562 l 1,16,-1
 64.3701171875 514.959960938 l 1,17,-1
 64.3701171875 514.959960938 l 1,5,-1
EndSplineSet
EndChar

StartChar: g
Encoding: 103 103 71
Width: 384
Flags: W
LayerCount: 2
Fore
SplineSet
64.3701171875 386.219726562 m 1,0,-1
 321.849609375 386.219726562 l 1,1,-1
 321.849609375 -64.3701171875 l 1,2,-1
 257.48046875 -64.3701171875 l 1,3,-1
 257.48046875 64.3701171875 l 1,4,-1
 64.3701171875 64.3701171875 l 1,5,-1
 64.3701171875 128.740234375 l 1,6,-1
 257.48046875 128.740234375 l 1,7,-1
 257.48046875 321.849609375 l 1,8,-1
 64.3701171875 321.849609375 l 1,9,-1
 64.3701171875 386.219726562 l 1,10,-1
 64.3701171875 386.219726562 l 1,0,-1
0 321.849609375 m 1,11,-1
 64.3701171875 321.849609375 l 1,12,-1
 64.3701171875 128.740234375 l 1,13,-1
 0 128.740234375 l 1,14,-1
 0 321.849609375 l 1,15,-1
 0 321.849609375 l 1,11,-1
64.3701171875 -64.3701171875 m 1,16,-1
 257.48046875 -64.3701171875 l 1,17,-1
 257.48046875 -128.740234375 l 1,18,-1
 64.3701171875 -128.740234375 l 1,19,-1
 64.3701171875 -64.3701171875 l 1,20,-1
 64.3701171875 -64.3701171875 l 1,16,-1
EndSplineSet
EndChar

StartChar: h
Encoding: 104 104 72
Width: 384
Flags: W
LayerCount: 2
Fore
SplineSet
0 579.330078125 m 1,0,-1
 64.3701171875 579.330078125 l 1,1,-1
 64.3701171875 386.219726562 l 1,2,-1
 257.48046875 386.219726562 l 1,3,-1
 257.48046875 321.849609375 l 1,4,-1
 64.3701171875 321.849609375 l 1,5,-1
 64.3701171875 0 l 1,6,-1
 0 0 l 1,7,-1
 0 579.330078125 l 1,8,-1
 0 579.330078125 l 1,0,-1
257.48046875 321.849609375 m 1,9,-1
 321.849609375 321.849609375 l 1,10,-1
 321.849609375 0 l 1,11,-1
 257.48046875 0 l 1,12,-1
 257.48046875 321.849609375 l 1,13,-1
 257.48046875 321.849609375 l 1,9,-1
EndSplineSet
EndChar

StartChar: i
Encoding: 105 105 73
Width: 128
Flags: W
LayerCount: 2
Fore
SplineSet
0 514.959960938 m 1,0,-1
 64.3701171875 514.959960938 l 1,1,-1
 64.3701171875 450.58984375 l 1,2,-1
 0 450.58984375 l 1,3,-1
 0 514.959960938 l 1,4,-1
 0 514.959960938 l 1,0,-1
0 386.219726562 m 1,5,-1
 64.3701171875 386.219726562 l 1,6,-1
 64.3701171875 0 l 1,7,-1
 0 0 l 1,8,-1
 0 386.219726562 l 1,9,-1
 0 386.219726562 l 1,5,-1
EndSplineSet
EndChar

StartChar: j
Encoding: 106 106 74
Width: 256
Flags: W
LayerCount: 2
Fore
SplineSet
128.740234375 514.959960938 m 1,0,-1
 193.110351562 514.959960938 l 1,1,-1
 193.110351562 450.58984375 l 1,2,-1
 128.740234375 450.58984375 l 1,3,-1
 128.740234375 514.959960938 l 1,4,-1
 128.740234375 514.959960938 l 1,0,-1
128.740234375 386.219726562 m 1,5,-1
 193.110351562 386.219726562 l 1,6,-1
 193.110351562 -64.3701171875 l 1,7,-1
 128.740234375 -64.3701171875 l 1,8,-1
 128.740234375 386.219726562 l 1,9,-1
 128.740234375 386.219726562 l 1,5,-1
0 -64.3701171875 m 1,10,-1
 128.740234375 -64.3701171875 l 1,11,-1
 128.740234375 -128.740234375 l 1,12,-1
 0 -128.740234375 l 1,13,-1
 0 -64.3701171875 l 1,14,-1
 0 -64.3701171875 l 1,10,-1
EndSplineSet
EndChar

StartChar: k
Encoding: 107 107 75
Width: 384
Flags: W
LayerCount: 2
Fore
SplineSet
0 579.330078125 m 1,0,-1
 64.3701171875 579.330078125 l 1,1,-1
 64.3701171875 257.48046875 l 1,2,-1
 193.110351562 257.48046875 l 1,3,-1
 193.110351562 128.740234375 l 1,4,-1
 128.740234375 128.740234375 l 1,5,-1
 128.740234375 193.110351562 l 1,6,-1
 64.3701171875 193.110351562 l 1,7,-1
 64.3701171875 0 l 1,8,-1
 0 0 l 1,9,-1
 0 579.330078125 l 1,10,-1
 0 579.330078125 l 1,0,-1
257.48046875 386.219726562 m 1,11,-1
 321.849609375 386.219726562 l 1,12,-1
 321.849609375 321.849609375 l 1,13,-1
 257.48046875 321.849609375 l 1,14,-1
 257.48046875 386.219726562 l 1,15,-1
 257.48046875 386.219726562 l 1,11,-1
193.110351562 321.849609375 m 1,16,-1
 257.48046875 321.849609375 l 1,17,-1
 257.48046875 257.48046875 l 1,18,-1
 193.110351562 257.48046875 l 1,19,-1
 193.110351562 321.849609375 l 1,20,-1
 193.110351562 321.849609375 l 1,16,-1
193.110351562 128.740234375 m 1,21,-1
 257.48046875 128.740234375 l 1,22,-1
 257.48046875 64.3701171875 l 1,23,-1
 193.110351562 64.3701171875 l 1,24,-1
 193.110351562 128.740234375 l 1,25,-1
 193.110351562 128.740234375 l 1,21,-1
257.48046875 64.3701171875 m 1,26,-1
 321.849609375 64.3701171875 l 1,27,-1
 321.849609375 0 l 1,28,-1
 257.48046875 0 l 1,29,-1
 257.48046875 64.3701171875 l 1,30,-1
 257.48046875 64.3701171875 l 1,26,-1
EndSplineSet
EndChar

StartChar: l
Encoding: 108 108 76
Width: 191
Flags: W
LayerCount: 2
Fore
SplineSet
0 579.330078125 m 1,0,-1
 128.740234375 579.330078125 l 1,1,-1
 128.740234375 0 l 1,2,-1
 64.3701171875 0 l 1,3,-1
 64.3701171875 514.959960938 l 1,4,-1
 0 514.959960938 l 1,5,-1
 0 579.330078125 l 1,6,-1
 0 579.330078125 l 1,0,-1
EndSplineSet
EndChar

StartChar: m
Encoding: 109 109 77
Width: 384
Flags: W
LayerCount: 2
Fore
SplineSet
0 386.219726562 m 1,0,-1
 257.48046875 386.219726562 l 1,1,-1
 257.48046875 321.849609375 l 1,2,-1
 193.110351562 321.849609375 l 1,3,-1
 193.110351562 0 l 1,4,-1
 128.740234375 0 l 1,5,-1
 128.740234375 321.849609375 l 1,6,-1
 64.3701171875 321.849609375 l 1,7,-1
 64.3701171875 0 l 1,8,-1
 0 0 l 1,9,-1
 0 386.219726562 l 1,10,-1
 0 386.219726562 l 1,0,-1
257.48046875 321.849609375 m 1,11,-1
 321.849609375 321.849609375 l 1,12,-1
 321.849609375 0 l 1,13,-1
 257.48046875 0 l 1,14,-1
 257.48046875 321.849609375 l 1,15,-1
 257.48046875 321.849609375 l 1,11,-1
EndSplineSet
EndChar

StartChar: n
Encoding: 110 110 78
Width: 384
Flags: W
LayerCount: 2
Fore
SplineSet
0 386.219726562 m 1,0,-1
 64.3701171875 386.219726562 l 1,1,-1
 64.3701171875 321.849609375 l 1,2,-1
 128.740234375 321.849609375 l 1,3,-1
 128.740234375 257.48046875 l 1,4,-1
 64.3701171875 257.48046875 l 1,5,-1
 64.3701171875 0 l 1,6,-1
 0 0 l 1,7,-1
 0 386.219726562 l 1,8,-1
 0 386.219726562 l 1,0,-1
128.740234375 386.219726562 m 1,9,-1
 257.48046875 386.219726562 l 1,10,-1
 257.48046875 321.849609375 l 1,11,-1
 128.740234375 321.849609375 l 1,12,-1
 128.740234375 386.219726562 l 1,13,-1
 128.740234375 386.219726562 l 1,9,-1
257.48046875 321.849609375 m 1,14,-1
 321.849609375 321.849609375 l 1,15,-1
 321.849609375 0 l 1,16,-1
 257.48046875 0 l 1,17,-1
 257.48046875 321.849609375 l 1,18,-1
 257.48046875 321.849609375 l 1,14,-1
EndSplineSet
EndChar

StartChar: o
Encoding: 111 111 79
Width: 384
Flags: W
LayerCount: 2
Fore
SplineSet
64.3701171875 386.219726562 m 1,0,-1
 257.48046875 386.219726562 l 1,1,-1
 257.48046875 321.849609375 l 1,2,-1
 64.3701171875 321.849609375 l 1,3,-1
 64.3701171875 386.219726562 l 1,4,-1
 64.3701171875 386.219726562 l 1,0,-1
0 321.849609375 m 1,5,-1
 64.3701171875 321.849609375 l 1,6,-1
 64.3701171875 64.3701171875 l 1,7,-1
 0 64.3701171875 l 1,8,-1
 0 321.849609375 l 1,9,-1
 0 321.849609375 l 1,5,-1
257.48046875 321.849609375 m 1,10,-1
 321.849609375 321.849609375 l 1,11,-1
 321.849609375 64.3701171875 l 1,12,-1
 257.48046875 64.3701171875 l 1,13,-1
 257.48046875 321.849609375 l 1,14,-1
 257.48046875 321.849609375 l 1,10,-1
64.3701171875 64.3701171875 m 1,15,-1
 257.48046875 64.3701171875 l 1,16,-1
 257.48046875 0 l 1,17,-1
 64.3701171875 0 l 1,18,-1
 64.3701171875 64.3701171875 l 1,19,-1
 64.3701171875 64.3701171875 l 1,15,-1
EndSplineSet
EndChar

StartChar: p
Encoding: 112 112 80
Width: 384
Flags: W
LayerCount: 2
Fore
SplineSet
0 386.219726562 m 1,0,-1
 257.48046875 386.219726562 l 1,1,-1
 257.48046875 321.849609375 l 1,2,-1
 64.3701171875 321.849609375 l 1,3,-1
 64.3701171875 128.740234375 l 1,4,-1
 257.48046875 128.740234375 l 1,5,-1
 257.48046875 64.3701171875 l 1,6,-1
 64.3701171875 64.3701171875 l 1,7,-1
 64.3701171875 -128.740234375 l 1,8,-1
 0 -128.740234375 l 1,9,-1
 0 386.219726562 l 1,10,-1
 0 386.219726562 l 1,0,-1
257.48046875 321.849609375 m 1,11,-1
 321.849609375 321.849609375 l 1,12,-1
 321.849609375 128.740234375 l 1,13,-1
 257.48046875 128.740234375 l 1,14,-1
 257.48046875 321.849609375 l 1,15,-1
 257.48046875 321.849609375 l 1,11,-1
EndSplineSet
EndChar

StartChar: q
Encoding: 113 113 81
Width: 384
Flags: W
LayerCount: 2
Fore
SplineSet
64.3701171875 386.219726562 m 1,0,-1
 321.849609375 386.219726562 l 1,1,-1
 321.849609375 -128.740234375 l 1,2,-1
 257.48046875 -128.740234375 l 1,3,-1
 257.48046875 64.3701171875 l 1,4,-1
 64.3701171875 64.3701171875 l 1,5,-1
 64.3701171875 128.740234375 l 1,6,-1
 257.48046875 128.740234375 l 1,7,-1
 257.48046875 321.849609375 l 1,8,-1
 64.3701171875 321.849609375 l 1,9,-1
 64.3701171875 386.219726562 l 1,10,-1
 64.3701171875 386.219726562 l 1,0,-1
0 321.849609375 m 1,11,-1
 64.3701171875 321.849609375 l 1,12,-1
 64.3701171875 128.740234375 l 1,13,-1
 0 128.740234375 l 1,14,-1
 0 321.849609375 l 1,15,-1
 0 321.849609375 l 1,11,-1
EndSplineSet
EndChar

StartChar: r
Encoding: 114 114 82
Width: 384
Flags: W
LayerCount: 2
Fore
SplineSet
0 386.219726562 m 1,0,-1
 64.3701171875 386.219726562 l 1,1,-1
 64.3701171875 321.849609375 l 1,2,-1
 128.740234375 321.849609375 l 1,3,-1
 128.740234375 257.48046875 l 1,4,-1
 64.3701171875 257.48046875 l 1,5,-1
 64.3701171875 0 l 1,6,-1
 0 0 l 1,7,-1
 0 386.219726562 l 1,8,-1
 0 386.219726562 l 1,0,-1
128.740234375 386.219726562 m 1,9,-1
 257.48046875 386.219726562 l 1,10,-1
 257.48046875 321.849609375 l 1,11,-1
 128.740234375 321.849609375 l 1,12,-1
 128.740234375 386.219726562 l 1,13,-1
 128.740234375 386.219726562 l 1,9,-1
257.48046875 321.849609375 m 1,14,-1
 321.849609375 321.849609375 l 1,15,-1
 321.849609375 257.48046875 l 1,16,-1
 257.48046875 257.48046875 l 1,17,-1
 257.48046875 321.849609375 l 1,18,-1
 257.48046875 321.849609375 l 1,14,-1
EndSplineSet
EndChar

StartChar: s
Encoding: 115 115 83
Width: 384
Flags: W
LayerCount: 2
Fore
SplineSet
64.3701171875 386.219726562 m 1,0,-1
 321.849609375 386.219726562 l 1,1,-1
 321.849609375 321.849609375 l 1,2,-1
 64.3701171875 321.849609375 l 1,3,-1
 64.3701171875 386.219726562 l 1,4,-1
 64.3701171875 386.219726562 l 1,0,-1
0 321.849609375 m 1,5,-1
 64.3701171875 321.849609375 l 1,6,-1
 64.3701171875 257.48046875 l 1,7,-1
 0 257.48046875 l 1,8,-1
 0 321.849609375 l 1,9,-1
 0 321.849609375 l 1,5,-1
64.3701171875 257.48046875 m 1,10,-1
 257.48046875 257.48046875 l 1,11,-1
 257.48046875 193.110351562 l 1,12,-1
 64.3701171875 193.110351562 l 1,13,-1
 64.3701171875 257.48046875 l 1,14,-1
 64.3701171875 257.48046875 l 1,10,-1
257.48046875 193.110351562 m 1,15,-1
 321.849609375 193.110351562 l 1,16,-1
 321.849609375 64.3701171875 l 1,17,-1
 257.48046875 64.3701171875 l 1,18,-1
 257.48046875 193.110351562 l 1,19,-1
 257.48046875 193.110351562 l 1,15,-1
0 128.740234375 m 1,20,-1
 64.3701171875 128.740234375 l 1,21,-1
 64.3701171875 64.3701171875 l 1,22,-1
 0 64.3701171875 l 1,23,-1
 0 128.740234375 l 1,24,-1
 0 128.740234375 l 1,20,-1
64.3701171875 64.3701171875 m 1,25,-1
 257.48046875 64.3701171875 l 1,26,-1
 257.48046875 0 l 1,27,-1
 64.3701171875 0 l 1,28,-1
 64.3701171875 64.3701171875 l 1,29,-1
 64.3701171875 64.3701171875 l 1,25,-1
EndSplineSet
EndChar

StartChar: t
Encoding: 116 116 84
Width: 319
Flags: W
LayerCount: 2
Fore
SplineSet
64.3701171875 450.58984375 m 1,0,-1
 128.740234375 450.58984375 l 1,1,-1
 128.740234375 386.219726562 l 1,2,-1
 257.48046875 386.219726562 l 1,3,-1
 257.48046875 321.849609375 l 1,4,-1
 128.740234375 321.849609375 l 1,5,-1
 128.740234375 64.3701171875 l 1,6,-1
 64.3701171875 64.3701171875 l 1,7,-1
 64.3701171875 321.849609375 l 1,8,-1
 0 321.849609375 l 1,9,-1
 0 386.219726562 l 1,10,-1
 64.3701171875 386.219726562 l 1,11,-1
 64.3701171875 450.58984375 l 1,12,-1
 64.3701171875 450.58984375 l 1,0,-1
128.740234375 64.3701171875 m 1,13,-1
 257.48046875 64.3701171875 l 1,14,-1
 257.48046875 0 l 1,15,-1
 128.740234375 0 l 1,16,-1
 128.740234375 64.3701171875 l 1,17,-1
 128.740234375 64.3701171875 l 1,13,-1
EndSplineSet
EndChar

StartChar: u
Encoding: 117 117 85
Width: 384
Flags: W
LayerCount: 2
Fore
SplineSet
0 386.219726562 m 1,0,-1
 64.3701171875 386.219726562 l 1,1,-1
 64.3701171875 64.3701171875 l 1,2,-1
 0 64.3701171875 l 1,3,-1
 0 386.219726562 l 1,4,-1
 0 386.219726562 l 1,0,-1
257.48046875 386.219726562 m 1,5,-1
 321.849609375 386.219726562 l 1,6,-1
 321.849609375 0 l 1,7,-1
 64.3701171875 0 l 1,8,-1
 64.3701171875 64.3701171875 l 1,9,-1
 257.48046875 64.3701171875 l 1,10,-1
 257.48046875 386.219726562 l 1,11,-1
 257.48046875 386.219726562 l 1,5,-1
EndSplineSet
EndChar

StartChar: v
Encoding: 118 118 86
Width: 384
Flags: W
LayerCount: 2
Fore
SplineSet
0 386.219726562 m 1,0,-1
 64.3701171875 386.219726562 l 1,1,-1
 64.3701171875 257.48046875 l 1,2,-1
 0 257.48046875 l 1,3,-1
 0 386.219726562 l 1,4,-1
 0 386.219726562 l 1,0,-1
257.48046875 386.219726562 m 1,5,-1
 321.849609375 386.219726562 l 1,6,-1
 321.849609375 257.48046875 l 1,7,-1
 257.48046875 257.48046875 l 1,8,-1
 257.48046875 386.219726562 l 1,9,-1
 257.48046875 386.219726562 l 1,5,-1
64.3701171875 257.48046875 m 1,10,-1
 128.740234375 257.48046875 l 1,11,-1
 128.740234375 128.740234375 l 1,12,-1
 64.3701171875 128.740234375 l 1,13,-1
 64.3701171875 257.48046875 l 1,14,-1
 64.3701171875 257.48046875 l 1,10,-1
193.110351562 257.48046875 m 1,15,-1
 257.48046875 257.48046875 l 1,16,-1
 257.48046875 128.740234375 l 1,17,-1
 193.110351562 128.740234375 l 1,18,-1
 193.110351562 257.48046875 l 1,19,-1
 193.110351562 257.48046875 l 1,15,-1
128.740234375 128.740234375 m 1,20,-1
 193.110351562 128.740234375 l 1,21,-1
 193.110351562 0 l 1,22,-1
 128.740234375 0 l 1,23,-1
 128.740234375 128.740234375 l 1,24,-1
 128.740234375 128.740234375 l 1,20,-1
EndSplineSet
EndChar

StartChar: w
Encoding: 119 119 87
Width: 384
Flags: W
LayerCount: 2
Fore
SplineSet
0 386.219726562 m 1,0,-1
 64.3701171875 386.219726562 l 1,1,-1
 64.3701171875 64.3701171875 l 1,2,-1
 0 64.3701171875 l 1,3,-1
 0 386.219726562 l 1,4,-1
 0 386.219726562 l 1,0,-1
257.48046875 386.219726562 m 1,5,-1
 321.849609375 386.219726562 l 1,6,-1
 321.849609375 64.3701171875 l 1,7,-1
 257.48046875 64.3701171875 l 1,8,-1
 257.48046875 386.219726562 l 1,9,-1
 257.48046875 386.219726562 l 1,5,-1
128.740234375 257.48046875 m 1,10,-1
 193.110351562 257.48046875 l 1,11,-1
 193.110351562 64.3701171875 l 1,12,-1
 128.740234375 64.3701171875 l 1,13,-1
 128.740234375 257.48046875 l 1,14,-1
 128.740234375 257.48046875 l 1,10,-1
64.3701171875 64.3701171875 m 1,15,-1
 128.740234375 64.3701171875 l 1,16,-1
 128.740234375 0 l 1,17,-1
 64.3701171875 0 l 1,18,-1
 64.3701171875 64.3701171875 l 1,19,-1
 64.3701171875 64.3701171875 l 1,15,-1
193.110351562 64.3701171875 m 1,20,-1
 257.48046875 64.3701171875 l 1,21,-1
 257.48046875 0 l 1,22,-1
 193.110351562 0 l 1,23,-1
 193.110351562 64.3701171875 l 1,24,-1
 193.110351562 64.3701171875 l 1,20,-1
EndSplineSet
EndChar

StartChar: x
Encoding: 120 120 88
Width: 384
Flags: W
LayerCount: 2
Fore
SplineSet
0 386.219726562 m 1,0,-1
 64.3701171875 386.219726562 l 1,1,-1
 64.3701171875 321.849609375 l 1,2,-1
 0 321.849609375 l 1,3,-1
 0 386.219726562 l 1,4,-1
 0 386.219726562 l 1,0,-1
257.48046875 386.219726562 m 1,5,-1
 321.849609375 386.219726562 l 1,6,-1
 321.849609375 321.849609375 l 1,7,-1
 257.48046875 321.849609375 l 1,8,-1
 257.48046875 386.219726562 l 1,9,-1
 257.48046875 386.219726562 l 1,5,-1
64.3701171875 321.849609375 m 1,10,-1
 128.740234375 321.849609375 l 1,11,-1
 128.740234375 257.48046875 l 1,12,-1
 64.3701171875 257.48046875 l 1,13,-1
 64.3701171875 321.849609375 l 1,14,-1
 64.3701171875 321.849609375 l 1,10,-1
193.110351562 321.849609375 m 1,15,-1
 257.48046875 321.849609375 l 1,16,-1
 257.48046875 257.48046875 l 1,17,-1
 193.110351562 257.48046875 l 1,18,-1
 193.110351562 321.849609375 l 1,19,-1
 193.110351562 321.849609375 l 1,15,-1
128.740234375 257.48046875 m 1,20,-1
 193.110351562 257.48046875 l 1,21,-1
 193.110351562 128.740234375 l 1,22,-1
 128.740234375 128.740234375 l 1,23,-1
 128.740234375 257.48046875 l 1,24,-1
 128.740234375 257.48046875 l 1,20,-1
64.3701171875 128.740234375 m 1,25,-1
 128.740234375 128.740234375 l 1,26,-1
 128.740234375 64.3701171875 l 1,27,-1
 64.3701171875 64.3701171875 l 1,28,-1
 64.3701171875 128.740234375 l 1,29,-1
 64.3701171875 128.740234375 l 1,25,-1
193.110351562 128.740234375 m 1,30,-1
 257.48046875 128.740234375 l 1,31,-1
 257.48046875 64.3701171875 l 1,32,-1
 193.110351562 64.3701171875 l 1,33,-1
 193.110351562 128.740234375 l 1,34,-1
 193.110351562 128.740234375 l 1,30,-1
0 64.3701171875 m 1,35,-1
 64.3701171875 64.3701171875 l 1,36,-1
 64.3701171875 0 l 1,37,-1
 0 0 l 1,38,-1
 0 64.3701171875 l 1,39,-1
 0 64.3701171875 l 1,35,-1
257.48046875 64.3701171875 m 1,40,-1
 321.849609375 64.3701171875 l 1,41,-1
 321.849609375 0 l 1,42,-1
 257.48046875 0 l 1,43,-1
 257.48046875 64.3701171875 l 1,44,-1
 257.48046875 64.3701171875 l 1,40,-1
EndSplineSet
EndChar

StartChar: y
Encoding: 121 121 89
Width: 384
Flags: W
LayerCount: 2
Fore
SplineSet
0 386.219726562 m 1,0,-1
 64.3701171875 386.219726562 l 1,1,-1
 64.3701171875 128.740234375 l 1,2,-1
 0 128.740234375 l 1,3,-1
 0 386.219726562 l 1,4,-1
 0 386.219726562 l 1,0,-1
257.48046875 386.219726562 m 1,5,-1
 321.849609375 386.219726562 l 1,6,-1
 321.849609375 -64.3701171875 l 1,7,-1
 257.48046875 -64.3701171875 l 1,8,-1
 257.48046875 64.3701171875 l 1,9,-1
 64.3701171875 64.3701171875 l 1,10,-1
 64.3701171875 128.740234375 l 1,11,-1
 257.48046875 128.740234375 l 1,12,-1
 257.48046875 386.219726562 l 1,13,-1
 257.48046875 386.219726562 l 1,5,-1
64.3701171875 -64.3701171875 m 1,14,-1
 257.48046875 -64.3701171875 l 1,15,-1
 257.48046875 -128.740234375 l 1,16,-1
 64.3701171875 -128.740234375 l 1,17,-1
 64.3701171875 -64.3701171875 l 1,18,-1
 64.3701171875 -64.3701171875 l 1,14,-1
EndSplineSet
EndChar

StartChar: z
Encoding: 122 122 90
Width: 384
Flags: W
LayerCount: 2
Fore
SplineSet
0 386.219726562 m 1,0,-1
 321.849609375 386.219726562 l 1,1,-1
 321.849609375 257.48046875 l 1,2,-1
 257.48046875 257.48046875 l 1,3,-1
 257.48046875 321.849609375 l 1,4,-1
 0 321.849609375 l 1,5,-1
 0 386.219726562 l 1,6,-1
 0 386.219726562 l 1,0,-1
193.110351562 257.48046875 m 1,7,-1
 257.48046875 257.48046875 l 1,8,-1
 257.48046875 193.110351562 l 1,9,-1
 193.110351562 193.110351562 l 1,10,-1
 193.110351562 257.48046875 l 1,11,-1
 193.110351562 257.48046875 l 1,7,-1
128.740234375 193.110351562 m 1,12,-1
 193.110351562 193.110351562 l 1,13,-1
 193.110351562 128.740234375 l 1,14,-1
 128.740234375 128.740234375 l 1,15,-1
 128.740234375 193.110351562 l 1,16,-1
 128.740234375 193.110351562 l 1,12,-1
64.3701171875 128.740234375 m 1,17,-1
 128.740234375 128.740234375 l 1,18,-1
 128.740234375 64.3701171875 l 1,19,-1
 321.849609375 64.3701171875 l 1,20,-1
 321.849609375 0 l 1,21,-1
 0 0 l 1,22,-1
 0 64.3701171875 l 1,23,-1
 64.3701171875 64.3701171875 l 1,24,-1
 64.3701171875 128.740234375 l 1,25,-1
 64.3701171875 128.740234375 l 1,17,-1
EndSplineSet
EndChar

StartChar: braceleft
Encoding: 123 123 91
Width: 257
VWidth: 839
Flags: W
LayerCount: 2
Fore
SplineSet
129 579 m 1,0,-1
 193 579 l 1,1,-1
 193 515 l 1,2,-1
 129 515 l 1,3,-1
 129 579 l 1,4,-1
 129 579 l 1,0,-1
64 515 m 1,5,-1
 129 515 l 1,6,-1
 129 322 l 1,7,-1
 64 322 l 1,8,-1
 64 515 l 1,9,-1
 64 515 l 1,5,-1
0 322 m 1,10,-1
 64 322 l 1,11,-1
 64 257 l 1,12,-1
 0 257 l 1,13,-1
 0 322 l 1,14,-1
 0 322 l 1,10,-1
64 257 m 1,15,-1
 129 257 l 1,16,-1
 129 0 l 1,17,-1
 64 0 l 1,18,-1
 64 257 l 1,19,-1
 64 257 l 1,15,-1
129 0 m 1,20,-1
 193 0 l 1,21,-1
 193 -64 l 1,22,-1
 129 -64 l 1,23,-1
 129 0 l 1,24,-1
 129 0 l 1,20,-1
EndSplineSet
EndChar

StartChar: bar
Encoding: 124 124 92
Width: 128
VWidth: 839
Flags: W
LayerCount: 2
Fore
SplineSet
0 644 m 1,0,-1
 64 644 l 1,1,-1
 64 0 l 1,2,-1
 0 0 l 1,3,-1
 0 644 l 1,4,-1
 0 644 l 1,0,-1
EndSplineSet
EndChar

StartChar: braceright
Encoding: 125 125 93
Width: 257
VWidth: 839
Flags: W
LayerCount: 2
Fore
SplineSet
0 579 m 1,0,-1
 64 579 l 1,1,-1
 64 515 l 1,2,-1
 0 515 l 1,3,-1
 0 579 l 1,4,-1
 0 579 l 1,0,-1
64 515 m 1,5,-1
 129 515 l 1,6,-1
 129 322 l 1,7,-1
 64 322 l 1,8,-1
 64 515 l 1,9,-1
 64 515 l 1,5,-1
129 322 m 1,10,-1
 193 322 l 1,11,-1
 193 257 l 1,12,-1
 129 257 l 1,13,-1
 129 322 l 1,14,-1
 129 322 l 1,10,-1
64 257 m 1,15,-1
 129 257 l 1,16,-1
 129 0 l 1,17,-1
 64 0 l 1,18,-1
 64 257 l 1,19,-1
 64 257 l 1,15,-1
0 0 m 1,20,-1
 64 0 l 1,21,-1
 64 -64 l 1,22,-1
 0 -64 l 1,23,-1
 0 0 l 1,24,-1
 0 0 l 1,20,-1
EndSplineSet
EndChar

StartChar: asciitilde
Encoding: 126 126 94
Width: 450
VWidth: 839
Flags: W
LayerCount: 2
Fore
SplineSet
64 322 m 1,0,-1
 193 322 l 1,1,-1
 193 257 l 1,2,-1
 64 257 l 1,3,-1
 64 322 l 1,4,-1
 64 322 l 1,0,-1
322 322 m 1,5,-1
 386 322 l 1,6,-1
 386 257 l 1,7,-1
 322 257 l 1,8,-1
 322 322 l 1,9,-1
 322 322 l 1,5,-1
0 257 m 1,10,-1
 64 257 l 1,11,-1
 64 193 l 1,12,-1
 0 193 l 1,13,-1
 0 257 l 1,14,-1
 0 257 l 1,10,-1
193 257 m 1,15,-1
 322 257 l 1,16,-1
 322 193 l 1,17,-1
 193 193 l 1,18,-1
 193 257 l 1,19,-1
 193 257 l 1,15,-1
EndSplineSet
EndChar

StartChar: exclamdown
Encoding: 161 161 95
Width: 128
VWidth: 839
Flags: W
LayerCount: 2
Fore
SplineSet
0 515 m 1,0,-1
 64 515 l 1,1,-1
 64 386 l 1,2,-1
 0 386 l 1,3,-1
 0 515 l 1,4,-1
 0 515 l 1,0,-1
0 257 m 1,5,-1
 64 257 l 1,6,-1
 64 -129 l 1,7,-1
 0 -129 l 1,8,-1
 0 257 l 1,9,-1
 0 257 l 1,5,-1
EndSplineSet
EndChar

StartChar: cent
Encoding: 162 162 96
Width: 386
VWidth: 839
Flags: W
LayerCount: 2
Fore
SplineSet
257 451 m 1,0,-1
 322 451 l 1,1,-1
 322 386 l 1,2,-1
 257 386 l 1,3,-1
 257 451 l 1,4,-1
 257 451 l 1,0,-1
64 386 m 1,5,-1
 257 386 l 1,6,-1
 257 322 l 1,7,-1
 322 322 l 1,8,-1
 322 257 l 1,9,-1
 193 257 l 1,10,-1
 193 322 l 1,11,-1
 64 322 l 1,12,-1
 64 386 l 1,13,-1
 64 386 l 1,5,-1
0 322 m 1,14,-1
 64 322 l 1,15,-1
 64 129 l 1,16,-1
 129 129 l 1,17,-1
 129 64 l 1,18,-1
 257 64 l 1,19,-1
 257 0 l 1,20,-1
 64 0 l 1,21,-1
 64 64 l 1,22,-1
 0 64 l 1,23,-1
 0 322 l 1,24,-1
 0 322 l 1,14,-1
129 257 m 1,25,-1
 193 257 l 1,26,-1
 193 129 l 1,27,-1
 129 129 l 1,28,-1
 129 257 l 1,29,-1
 129 257 l 1,25,-1
257 129 m 1,30,-1
 322 129 l 1,31,-1
 322 64 l 1,32,-1
 257 64 l 1,33,-1
 257 129 l 1,34,-1
 257 129 l 1,30,-1
0 0 m 1,35,-1
 64 0 l 1,36,-1
 64 -64 l 1,37,-1
 0 -64 l 1,38,-1
 0 0 l 1,39,-1
 0 0 l 1,35,-1
EndSplineSet
EndChar

StartChar: sterling
Encoding: 163 163 97
Width: 386
VWidth: 839
Flags: W
LayerCount: 2
Fore
SplineSet
129 579 m 1,0,-1
 257 579 l 1,1,-1
 257 515 l 1,2,-1
 129 515 l 1,3,-1
 129 579 l 1,4,-1
 129 579 l 1,0,-1
64 515 m 1,5,-1
 129 515 l 1,6,-1
 129 322 l 1,7,-1
 257 322 l 1,8,-1
 257 257 l 1,9,-1
 129 257 l 1,10,-1
 129 129 l 1,11,-1
 64 129 l 1,12,-1
 64 257 l 1,13,-1
 0 257 l 1,14,-1
 0 322 l 1,15,-1
 64 322 l 1,16,-1
 64 515 l 1,17,-1
 64 515 l 1,5,-1
257 515 m 1,18,-1
 322 515 l 1,19,-1
 322 451 l 1,20,-1
 257 451 l 1,21,-1
 257 515 l 1,22,-1
 257 515 l 1,18,-1
0 129 m 1,23,-1
 64 129 l 1,24,-1
 64 64 l 1,25,-1
 322 64 l 1,26,-1
 322 0 l 1,27,-1
 0 0 l 1,28,-1
 0 129 l 1,29,-1
 0 129 l 1,23,-1
EndSplineSet
EndChar

StartChar: currency
Encoding: 164 164 98
Width: 450
VWidth: 839
Flags: W
LayerCount: 2
Fore
SplineSet
0 451 m 1,0,-1
 64 451 l 1,1,-1
 64 386 l 1,2,-1
 0 386 l 1,3,-1
 0 451 l 1,4,-1
 0 451 l 1,0,-1
129 451 m 1,5,-1
 257 451 l 1,6,-1
 257 386 l 1,7,-1
 129 386 l 1,8,-1
 129 451 l 1,9,-1
 129 451 l 1,5,-1
322 451 m 1,10,-1
 386 451 l 1,11,-1
 386 386 l 1,12,-1
 322 386 l 1,13,-1
 322 451 l 1,14,-1
 322 451 l 1,10,-1
64 386 m 1,15,-1
 129 386 l 1,16,-1
 129 322 l 1,17,-1
 64 322 l 1,18,-1
 64 386 l 1,19,-1
 64 386 l 1,15,-1
257 386 m 1,20,-1
 322 386 l 1,21,-1
 322 322 l 1,22,-1
 257 322 l 1,23,-1
 257 386 l 1,24,-1
 257 386 l 1,20,-1
0 322 m 1,25,-1
 64 322 l 1,26,-1
 64 193 l 1,27,-1
 0 193 l 1,28,-1
 0 322 l 1,29,-1
 0 322 l 1,25,-1
322 322 m 1,30,-1
 386 322 l 1,31,-1
 386 193 l 1,32,-1
 322 193 l 1,33,-1
 322 322 l 1,34,-1
 322 322 l 1,30,-1
64 193 m 1,35,-1
 129 193 l 1,36,-1
 129 129 l 1,37,-1
 64 129 l 1,38,-1
 64 193 l 1,39,-1
 64 193 l 1,35,-1
257 193 m 1,40,-1
 322 193 l 1,41,-1
 322 129 l 1,42,-1
 257 129 l 1,43,-1
 257 193 l 1,44,-1
 257 193 l 1,40,-1
0 129 m 1,45,-1
 64 129 l 1,46,-1
 64 64 l 1,47,-1
 0 64 l 1,48,-1
 0 129 l 1,49,-1
 0 129 l 1,45,-1
129 129 m 1,50,-1
 257 129 l 1,51,-1
 257 64 l 1,52,-1
 129 64 l 1,53,-1
 129 129 l 1,54,-1
 129 129 l 1,50,-1
322 129 m 1,55,-1
 386 129 l 1,56,-1
 386 64 l 1,57,-1
 322 64 l 1,58,-1
 322 129 l 1,59,-1
 322 129 l 1,55,-1
EndSplineSet
EndChar

StartChar: yen
Encoding: 165 165 99
Width: 386
VWidth: 839
Flags: W
LayerCount: 2
Fore
SplineSet
0 579 m 1,0,-1
 64 579 l 1,1,-1
 64 386 l 1,2,-1
 0 386 l 1,3,-1
 0 579 l 1,4,-1
 0 579 l 1,0,-1
257 579 m 1,5,-1
 322 579 l 1,6,-1
 322 386 l 1,7,-1
 257 386 l 1,8,-1
 257 579 l 1,9,-1
 257 579 l 1,5,-1
64 386 m 1,10,-1
 129 386 l 1,11,-1
 129 322 l 1,12,-1
 193 322 l 1,13,-1
 193 386 l 1,14,-1
 257 386 l 1,15,-1
 257 322 l 1,16,-1
 322 322 l 1,17,-1
 322 257 l 1,18,-1
 193 257 l 1,19,-1
 193 193 l 1,20,-1
 322 193 l 1,21,-1
 322 129 l 1,22,-1
 193 129 l 1,23,-1
 193 0 l 1,24,-1
 129 0 l 1,25,-1
 129 129 l 1,26,-1
 0 129 l 1,27,-1
 0 193 l 1,28,-1
 129 193 l 1,29,-1
 129 257 l 1,30,-1
 0 257 l 1,31,-1
 0 322 l 1,32,-1
 64 322 l 1,33,-1
 64 386 l 1,34,-1
 64 386 l 1,10,-1
EndSplineSet
EndChar

StartChar: brokenbar
Encoding: 166 166 100
Width: 128
VWidth: 839
Flags: W
LayerCount: 2
Fore
SplineSet
0 644 m 1,0,-1
 64 644 l 1,1,-1
 64 322 l 1,2,-1
 0 322 l 1,3,-1
 0 644 l 1,4,-1
 0 644 l 1,0,-1
0 257 m 1,5,-1
 64 257 l 1,6,-1
 64 -64 l 1,7,-1
 0 -64 l 1,8,-1
 0 257 l 1,9,-1
 0 257 l 1,5,-1
EndSplineSet
EndChar

StartChar: section
Encoding: 167 167 101
Width: 386
VWidth: 839
Flags: W
LayerCount: 2
Fore
SplineSet
64 579 m 1,0,-1
 257 579 l 1,1,-1
 257 515 l 1,2,-1
 64 515 l 1,3,-1
 64 579 l 1,4,-1
 64 579 l 1,0,-1
0 515 m 1,5,-1
 64 515 l 1,6,-1
 64 451 l 1,7,-1
 0 451 l 1,8,-1
 0 515 l 1,9,-1
 0 515 l 1,5,-1
257 515 m 1,10,-1
 322 515 l 1,11,-1
 322 451 l 1,12,-1
 257 451 l 1,13,-1
 257 515 l 1,14,-1
 257 515 l 1,10,-1
64 451 m 1,15,-1
 193 451 l 1,16,-1
 193 386 l 1,17,-1
 64 386 l 1,18,-1
 64 451 l 1,19,-1
 64 451 l 1,15,-1
0 386 m 1,20,-1
 64 386 l 1,21,-1
 64 257 l 1,22,-1
 0 257 l 1,23,-1
 0 386 l 1,24,-1
 0 386 l 1,20,-1
193 386 m 1,25,-1
 257 386 l 1,26,-1
 257 322 l 1,27,-1
 193 322 l 1,28,-1
 193 386 l 1,29,-1
 193 386 l 1,25,-1
257 322 m 1,30,-1
 322 322 l 1,31,-1
 322 193 l 1,32,-1
 257 193 l 1,33,-1
 257 322 l 1,34,-1
 257 322 l 1,30,-1
64 257 m 1,35,-1
 129 257 l 1,36,-1
 129 193 l 1,37,-1
 64 193 l 1,38,-1
 64 257 l 1,39,-1
 64 257 l 1,35,-1
129 193 m 1,40,-1
 257 193 l 1,41,-1
 257 129 l 1,42,-1
 129 129 l 1,43,-1
 129 193 l 1,44,-1
 129 193 l 1,40,-1
0 129 m 1,45,-1
 64 129 l 1,46,-1
 64 64 l 1,47,-1
 0 64 l 1,48,-1
 0 129 l 1,49,-1
 0 129 l 1,45,-1
257 129 m 1,50,-1
 322 129 l 1,51,-1
 322 64 l 1,52,-1
 257 64 l 1,53,-1
 257 129 l 1,54,-1
 257 129 l 1,50,-1
64 64 m 1,55,-1
 257 64 l 1,56,-1
 257 0 l 1,57,-1
 64 0 l 1,58,-1
 64 64 l 1,59,-1
 64 64 l 1,55,-1
EndSplineSet
EndChar

StartChar: dieresis
Encoding: 168 168 102
Width: 321
VWidth: 839
Flags: W
LayerCount: 2
Fore
SplineSet
64 708 m 1,0,-1
 129 708 l 1,1,-1
 129 644 l 1,2,-1
 64 644 l 1,3,-1
 64 708 l 1,4,-1
 64 708 l 1,0,-1
193 708 m 1,5,-1
 257 708 l 1,6,-1
 257 644 l 1,7,-1
 193 644 l 1,8,-1
 193 708 l 1,9,-1
 193 708 l 1,5,-1
EndSplineSet
EndChar

StartChar: copyright
Encoding: 169 169 103
Width: 579
VWidth: 839
Flags: W
LayerCount: 2
Fore
SplineSet
129 579 m 1,0,-1
 386 579 l 1,1,-1
 386 515 l 1,2,-1
 129 515 l 1,3,-1
 129 579 l 1,4,-1
 129 579 l 1,0,-1
64 515 m 1,5,-1
 129 515 l 1,6,-1
 129 451 l 1,7,-1
 64 451 l 1,8,-1
 64 515 l 1,9,-1
 64 515 l 1,5,-1
386 515 m 1,10,-1
 451 515 l 1,11,-1
 451 451 l 1,12,-1
 386 451 l 1,13,-1
 386 515 l 1,14,-1
 386 515 l 1,10,-1
0 451 m 1,15,-1
 64 451 l 1,16,-1
 64 193 l 1,17,-1
 0 193 l 1,18,-1
 0 451 l 1,19,-1
 0 451 l 1,15,-1
193 451 m 1,20,-1
 386 451 l 1,21,-1
 386 386 l 1,22,-1
 193 386 l 1,23,-1
 193 451 l 1,24,-1
 193 451 l 1,20,-1
451 451 m 1,25,-1
 515 451 l 1,26,-1
 515 193 l 1,27,-1
 451 193 l 1,28,-1
 451 451 l 1,29,-1
 451 451 l 1,25,-1
129 386 m 1,30,-1
 193 386 l 1,31,-1
 193 257 l 1,32,-1
 129 257 l 1,33,-1
 129 386 l 1,34,-1
 129 386 l 1,30,-1
193 257 m 1,35,-1
 386 257 l 1,36,-1
 386 193 l 1,37,-1
 193 193 l 1,38,-1
 193 257 l 1,39,-1
 193 257 l 1,35,-1
64 193 m 1,40,-1
 129 193 l 1,41,-1
 129 129 l 1,42,-1
 64 129 l 1,43,-1
 64 193 l 1,44,-1
 64 193 l 1,40,-1
386 193 m 1,45,-1
 451 193 l 1,46,-1
 451 129 l 1,47,-1
 386 129 l 1,48,-1
 386 193 l 1,49,-1
 386 193 l 1,45,-1
129 129 m 1,50,-1
 386 129 l 1,51,-1
 386 64 l 1,52,-1
 129 64 l 1,53,-1
 129 129 l 1,54,-1
 129 129 l 1,50,-1
EndSplineSet
EndChar

StartChar: ordfeminine
Encoding: 170 170 104
Width: 386
VWidth: 839
Flags: W
LayerCount: 2
Fore
SplineSet
64 708 m 1,0,-1
 257 708 l 1,1,-1
 257 644 l 1,2,-1
 64 644 l 1,3,-1
 64 708 l 1,4,-1
 64 708 l 1,0,-1
257 644 m 1,5,-1
 322 644 l 1,6,-1
 322 322 l 1,7,-1
 64 322 l 1,8,-1
 64 386 l 1,9,-1
 257 386 l 1,10,-1
 257 515 l 1,11,-1
 64 515 l 1,12,-1
 64 579 l 1,13,-1
 257 579 l 1,14,-1
 257 644 l 1,15,-1
 257 644 l 1,5,-1
0 515 m 1,16,-1
 64 515 l 1,17,-1
 64 386 l 1,18,-1
 0 386 l 1,19,-1
 0 515 l 1,20,-1
 0 515 l 1,16,-1
EndSplineSet
EndChar

StartChar: guillemotleft
Encoding: 171 171 105
Width: 386
VWidth: 839
Flags: W
LayerCount: 2
Fore
SplineSet
129 579 m 1,0,-1
 193 579 l 1,1,-1
 193 451 l 1,2,-1
 129 451 l 1,3,-1
 129 579 l 1,4,-1
 129 579 l 1,0,-1
257 579 m 1,5,-1
 322 579 l 1,6,-1
 322 451 l 1,7,-1
 257 451 l 1,8,-1
 257 579 l 1,9,-1
 257 579 l 1,5,-1
64 451 m 1,10,-1
 129 451 l 1,11,-1
 129 322 l 1,12,-1
 64 322 l 1,13,-1
 64 451 l 1,14,-1
 64 451 l 1,10,-1
193 451 m 1,15,-1
 257 451 l 1,16,-1
 257 322 l 1,17,-1
 193 322 l 1,18,-1
 193 451 l 1,19,-1
 193 451 l 1,15,-1
0 322 m 1,20,-1
 64 322 l 1,21,-1
 64 193 l 1,22,-1
 0 193 l 1,23,-1
 0 322 l 1,24,-1
 0 322 l 1,20,-1
129 322 m 1,25,-1
 193 322 l 1,26,-1
 193 193 l 1,27,-1
 129 193 l 1,28,-1
 129 322 l 1,29,-1
 129 322 l 1,25,-1
64 193 m 1,30,-1
 129 193 l 1,31,-1
 129 64 l 1,32,-1
 64 64 l 1,33,-1
 64 193 l 1,34,-1
 64 193 l 1,30,-1
193 193 m 1,35,-1
 257 193 l 1,36,-1
 257 64 l 1,37,-1
 193 64 l 1,38,-1
 193 193 l 1,39,-1
 193 193 l 1,35,-1
129 64 m 1,40,-1
 193 64 l 1,41,-1
 193 -64 l 1,42,-1
 129 -64 l 1,43,-1
 129 64 l 1,44,-1
 129 64 l 1,40,-1
257 64 m 1,45,-1
 322 64 l 1,46,-1
 322 -64 l 1,47,-1
 257 -64 l 1,48,-1
 257 64 l 1,49,-1
 257 64 l 1,45,-1
EndSplineSet
EndChar

StartChar: logicalnot
Encoding: 172 172 106
Width: 386
VWidth: 839
Flags: W
LayerCount: 2
Fore
SplineSet
0 322 m 1,0,-1
 322 322 l 1,1,-1
 322 129 l 1,2,-1
 257 129 l 1,3,-1
 257 257 l 1,4,-1
 0 257 l 1,5,-1
 0 322 l 1,6,-1
 0 322 l 1,0,-1
EndSplineSet
EndChar

StartChar: sfthyphen
Encoding: 173 173 107
Width: 386
VWidth: 839
Flags: W
LayerCount: 2
Fore
SplineSet
0 322 m 1,0,-1
 322 322 l 1,1,-1
 322 257 l 1,2,-1
 0 257 l 1,3,-1
 0 322 l 1,4,-1
 0 322 l 1,0,-1
EndSplineSet
EndChar

StartChar: registered
Encoding: 174 174 108
Width: 579
VWidth: 839
Flags: W
LayerCount: 2
Fore
SplineSet
129 579 m 1,0,-1
 386 579 l 1,1,-1
 386 515 l 1,2,-1
 129 515 l 1,3,-1
 129 579 l 1,4,-1
 129 579 l 1,0,-1
64 515 m 1,5,-1
 129 515 l 1,6,-1
 129 451 l 1,7,-1
 64 451 l 1,8,-1
 64 515 l 1,9,-1
 64 515 l 1,5,-1
386 515 m 1,10,-1
 451 515 l 1,11,-1
 451 451 l 1,12,-1
 386 451 l 1,13,-1
 386 515 l 1,14,-1
 386 515 l 1,10,-1
0 451 m 1,15,-1
 64 451 l 1,16,-1
 64 193 l 1,17,-1
 0 193 l 1,18,-1
 0 451 l 1,19,-1
 0 451 l 1,15,-1
129 451 m 1,20,-1
 322 451 l 1,21,-1
 322 386 l 1,22,-1
 193 386 l 1,23,-1
 193 322 l 1,24,-1
 322 322 l 1,25,-1
 322 257 l 1,26,-1
 193 257 l 1,27,-1
 193 193 l 1,28,-1
 129 193 l 1,29,-1
 129 451 l 1,30,-1
 129 451 l 1,20,-1
451 451 m 1,31,-1
 515 451 l 1,32,-1
 515 193 l 1,33,-1
 451 193 l 1,34,-1
 451 451 l 1,35,-1
 451 451 l 1,31,-1
322 386 m 1,36,-1
 386 386 l 1,37,-1
 386 322 l 1,38,-1
 322 322 l 1,39,-1
 322 386 l 1,40,-1
 322 386 l 1,36,-1
322 257 m 1,41,-1
 386 257 l 1,42,-1
 386 193 l 1,43,-1
 322 193 l 1,44,-1
 322 257 l 1,45,-1
 322 257 l 1,41,-1
64 193 m 1,46,-1
 129 193 l 1,47,-1
 129 129 l 1,48,-1
 64 129 l 1,49,-1
 64 193 l 1,50,-1
 64 193 l 1,46,-1
386 193 m 1,51,-1
 451 193 l 1,52,-1
 451 129 l 1,53,-1
 386 129 l 1,54,-1
 386 193 l 1,55,-1
 386 193 l 1,51,-1
129 129 m 1,56,-1
 386 129 l 1,57,-1
 386 64 l 1,58,-1
 129 64 l 1,59,-1
 129 129 l 1,60,-1
 129 129 l 1,56,-1
EndSplineSet
EndChar

StartChar: macron
Encoding: 175 175 109
Width: 386
VWidth: 839
Flags: W
LayerCount: 2
Fore
SplineSet
0 708 m 1,0,-1
 322 708 l 1,1,-1
 322 644 l 1,2,-1
 0 644 l 1,3,-1
 0 708 l 1,4,-1
 0 708 l 1,0,-1
EndSplineSet
EndChar

StartChar: degree
Encoding: 176 176 110
Width: 321
VWidth: 839
Flags: W
LayerCount: 2
Fore
SplineSet
64 708 m 1,0,-1
 193 708 l 1,1,-1
 193 644 l 1,2,-1
 64 644 l 1,3,-1
 64 708 l 1,4,-1
 64 708 l 1,0,-1
0 644 m 1,5,-1
 64 644 l 1,6,-1
 64 515 l 1,7,-1
 0 515 l 1,8,-1
 0 644 l 1,9,-1
 0 644 l 1,5,-1
193 644 m 1,10,-1
 257 644 l 1,11,-1
 257 515 l 1,12,-1
 193 515 l 1,13,-1
 193 644 l 1,14,-1
 193 644 l 1,10,-1
64 515 m 1,15,-1
 193 515 l 1,16,-1
 193 451 l 1,17,-1
 64 451 l 1,18,-1
 64 515 l 1,19,-1
 64 515 l 1,15,-1
EndSplineSet
EndChar

StartChar: plusminus
Encoding: 177 177 111
Width: 386
VWidth: 839
Flags: W
LayerCount: 2
Fore
SplineSet
129 451 m 1,0,-1
 193 451 l 1,1,-1
 193 322 l 1,2,-1
 322 322 l 1,3,-1
 322 257 l 1,4,-1
 193 257 l 1,5,-1
 193 129 l 1,6,-1
 129 129 l 1,7,-1
 129 257 l 1,8,-1
 0 257 l 1,9,-1
 0 322 l 1,10,-1
 129 322 l 1,11,-1
 129 451 l 1,12,-1
 129 451 l 1,0,-1
0 64 m 1,13,-1
 322 64 l 1,14,-1
 322 0 l 1,15,-1
 0 0 l 1,16,-1
 0 64 l 1,17,-1
 0 64 l 1,13,-1
EndSplineSet
EndChar

StartChar: twosuperior
Encoding: 178 178 112
Width: 321
VWidth: 839
Flags: W
LayerCount: 2
Fore
SplineSet
64 708 m 1,0,-1
 193 708 l 1,1,-1
 193 644 l 1,2,-1
 64 644 l 1,3,-1
 64 708 l 1,4,-1
 64 708 l 1,0,-1
0 644 m 1,5,-1
 64 644 l 1,6,-1
 64 579 l 1,7,-1
 0 579 l 1,8,-1
 0 644 l 1,9,-1
 0 644 l 1,5,-1
193 644 m 1,10,-1
 257 644 l 1,11,-1
 257 579 l 1,12,-1
 193 579 l 1,13,-1
 193 644 l 1,14,-1
 193 644 l 1,10,-1
129 579 m 1,15,-1
 193 579 l 1,16,-1
 193 515 l 1,17,-1
 129 515 l 1,18,-1
 129 579 l 1,19,-1
 129 579 l 1,15,-1
64 515 m 1,20,-1
 129 515 l 1,21,-1
 129 451 l 1,22,-1
 257 451 l 1,23,-1
 257 386 l 1,24,-1
 0 386 l 1,25,-1
 0 451 l 1,26,-1
 64 451 l 1,27,-1
 64 515 l 1,28,-1
 64 515 l 1,20,-1
EndSplineSet
EndChar

StartChar: threesuperior
Encoding: 179 179 113
Width: 321
VWidth: 839
Flags: W
LayerCount: 2
Fore
SplineSet
64 708 m 1,0,-1
 193 708 l 1,1,-1
 193 644 l 1,2,-1
 64 644 l 1,3,-1
 64 708 l 1,4,-1
 64 708 l 1,0,-1
0 644 m 1,5,-1
 64 644 l 1,6,-1
 64 579 l 1,7,-1
 0 579 l 1,8,-1
 0 644 l 1,9,-1
 0 644 l 1,5,-1
193 644 m 1,10,-1
 257 644 l 1,11,-1
 257 579 l 1,12,-1
 193 579 l 1,13,-1
 193 644 l 1,14,-1
 193 644 l 1,10,-1
129 579 m 1,15,-1
 193 579 l 1,16,-1
 193 515 l 1,17,-1
 129 515 l 1,18,-1
 129 579 l 1,19,-1
 129 579 l 1,15,-1
0 515 m 1,20,-1
 64 515 l 1,21,-1
 64 451 l 1,22,-1
 0 451 l 1,23,-1
 0 515 l 1,24,-1
 0 515 l 1,20,-1
193 515 m 1,25,-1
 257 515 l 1,26,-1
 257 451 l 1,27,-1
 193 451 l 1,28,-1
 193 515 l 1,29,-1
 193 515 l 1,25,-1
64 451 m 1,30,-1
 193 451 l 1,31,-1
 193 386 l 1,32,-1
 64 386 l 1,33,-1
 64 451 l 1,34,-1
 64 451 l 1,30,-1
EndSplineSet
EndChar

StartChar: acute
Encoding: 180 180 114
Width: 257
VWidth: 839
Flags: W
LayerCount: 2
Fore
SplineSet
129 579 m 1,0,-1
 193 579 l 1,1,-1
 193 515 l 1,2,-1
 129 515 l 1,3,-1
 129 579 l 1,4,-1
 129 579 l 1,0,-1
64 515 m 1,5,-1
 129 515 l 1,6,-1
 129 451 l 1,7,-1
 64 451 l 1,8,-1
 64 515 l 1,9,-1
 64 515 l 1,5,-1
0 451 m 1,10,-1
 64 451 l 1,11,-1
 64 386 l 1,12,-1
 0 386 l 1,13,-1
 0 451 l 1,14,-1
 0 451 l 1,10,-1
EndSplineSet
EndChar

StartChar: mu
Encoding: 181 181 115
Width: 386
VWidth: 839
Flags: W
LayerCount: 2
Fore
SplineSet
0 386 m 1,0,-1
 64 386 l 1,1,-1
 64 64 l 1,2,-1
 193 64 l 1,3,-1
 193 0 l 1,4,-1
 64 0 l 1,5,-1
 64 -129 l 1,6,-1
 0 -129 l 1,7,-1
 0 386 l 1,8,-1
 0 386 l 1,0,-1
257 386 m 1,9,-1
 322 386 l 1,10,-1
 322 0 l 1,11,-1
 257 0 l 1,12,-1
 257 64 l 1,13,-1
 193 64 l 1,14,-1
 193 129 l 1,15,-1
 257 129 l 1,16,-1
 257 386 l 1,17,-1
 257 386 l 1,9,-1
EndSplineSet
EndChar

StartChar: paragraph
Encoding: 182 182 116
Width: 386
VWidth: 839
Flags: W
LayerCount: 2
Fore
SplineSet
64 579 m 1,0,-1
 322 579 l 1,1,-1
 322 0 l 1,2,-1
 257 0 l 1,3,-1
 257 515 l 1,4,-1
 193 515 l 1,5,-1
 193 0 l 1,6,-1
 129 0 l 1,7,-1
 129 322 l 1,8,-1
 64 322 l 1,9,-1
 64 386 l 1,10,-1
 0 386 l 1,11,-1
 0 515 l 1,12,-1
 64 515 l 1,13,-1
 64 579 l 1,14,-1
 64 579 l 1,0,-1
EndSplineSet
EndChar

StartChar: middot
Encoding: 183 183 117
Width: 257
VWidth: 839
Flags: W
LayerCount: 2
Fore
SplineSet
129 322 m 1,0,-1
 193 322 l 1,1,-1
 193 257 l 1,2,-1
 129 257 l 1,3,-1
 129 322 l 1,4,-1
 129 322 l 1,0,-1
EndSplineSet
EndChar

StartChar: cedilla
Encoding: 184 184 118
Width: 257
VWidth: 839
Flags: W
LayerCount: 2
Fore
SplineSet
129 0 m 1,0,-1
 193 0 l 1,1,-1
 193 -129 l 1,2,-1
 64 -129 l 1,3,-1
 64 -64 l 1,4,-1
 129 -64 l 1,5,-1
 129 0 l 1,6,-1
 129 0 l 1,0,-1
EndSplineSet
EndChar

StartChar: onesuperior
Encoding: 185 185 119
Width: 257
VWidth: 839
Flags: W
LayerCount: 2
Fore
SplineSet
64 708 m 1,0,-1
 129 708 l 1,1,-1
 129 451 l 1,2,-1
 193 451 l 1,3,-1
 193 386 l 1,4,-1
 0 386 l 1,5,-1
 0 451 l 1,6,-1
 64 451 l 1,7,-1
 64 579 l 1,8,-1
 0 579 l 1,9,-1
 0 644 l 1,10,-1
 64 644 l 1,11,-1
 64 708 l 1,12,-1
 64 708 l 1,0,-1
EndSplineSet
EndChar

StartChar: ordmasculine
Encoding: 186 186 120
Width: 386
VWidth: 839
Flags: W
LayerCount: 2
Fore
SplineSet
64 708 m 1,0,-1
 257 708 l 1,1,-1
 257 644 l 1,2,-1
 64 644 l 1,3,-1
 64 708 l 1,4,-1
 64 708 l 1,0,-1
0 644 m 1,5,-1
 64 644 l 1,6,-1
 64 386 l 1,7,-1
 0 386 l 1,8,-1
 0 644 l 1,9,-1
 0 644 l 1,5,-1
257 644 m 1,10,-1
 322 644 l 1,11,-1
 322 386 l 1,12,-1
 257 386 l 1,13,-1
 257 644 l 1,14,-1
 257 644 l 1,10,-1
64 386 m 1,15,-1
 257 386 l 1,16,-1
 257 322 l 1,17,-1
 64 322 l 1,18,-1
 64 386 l 1,19,-1
 64 386 l 1,15,-1
EndSplineSet
EndChar

StartChar: guillemotright
Encoding: 187 187 121
Width: 386
VWidth: 839
Flags: W
LayerCount: 2
Fore
SplineSet
0 579 m 1,0,-1
 64 579 l 1,1,-1
 64 451 l 1,2,-1
 0 451 l 1,3,-1
 0 579 l 1,4,-1
 0 579 l 1,0,-1
129 579 m 1,5,-1
 193 579 l 1,6,-1
 193 451 l 1,7,-1
 129 451 l 1,8,-1
 129 579 l 1,9,-1
 129 579 l 1,5,-1
64 451 m 1,10,-1
 129 451 l 1,11,-1
 129 322 l 1,12,-1
 64 322 l 1,13,-1
 64 451 l 1,14,-1
 64 451 l 1,10,-1
193 451 m 1,15,-1
 257 451 l 1,16,-1
 257 322 l 1,17,-1
 193 322 l 1,18,-1
 193 451 l 1,19,-1
 193 451 l 1,15,-1
129 322 m 1,20,-1
 193 322 l 1,21,-1
 193 193 l 1,22,-1
 129 193 l 1,23,-1
 129 322 l 1,24,-1
 129 322 l 1,20,-1
257 322 m 1,25,-1
 322 322 l 1,26,-1
 322 193 l 1,27,-1
 257 193 l 1,28,-1
 257 322 l 1,29,-1
 257 322 l 1,25,-1
64 193 m 1,30,-1
 129 193 l 1,31,-1
 129 64 l 1,32,-1
 64 64 l 1,33,-1
 64 193 l 1,34,-1
 64 193 l 1,30,-1
193 193 m 1,35,-1
 257 193 l 1,36,-1
 257 64 l 1,37,-1
 193 64 l 1,38,-1
 193 193 l 1,39,-1
 193 193 l 1,35,-1
0 64 m 1,40,-1
 64 64 l 1,41,-1
 64 -64 l 1,42,-1
 0 -64 l 1,43,-1
 0 64 l 1,44,-1
 0 64 l 1,40,-1
129 64 m 1,45,-1
 193 64 l 1,46,-1
 193 -64 l 1,47,-1
 129 -64 l 1,48,-1
 129 64 l 1,49,-1
 129 64 l 1,45,-1
EndSplineSet
EndChar

StartChar: onequarter
Encoding: 188 188 122
Width: 708
VWidth: 839
Flags: W
LayerCount: 2
Fore
SplineSet
64 644 m 1,0,-1
 129 644 l 1,1,-1
 129 386 l 1,2,-1
 193 386 l 1,3,-1
 193 322 l 1,4,-1
 0 322 l 1,5,-1
 0 386 l 1,6,-1
 64 386 l 1,7,-1
 64 515 l 1,8,-1
 0 515 l 1,9,-1
 0 579 l 1,10,-1
 64 579 l 1,11,-1
 64 644 l 1,12,-1
 64 644 l 1,0,-1
386 644 m 1,13,-1
 451 644 l 1,14,-1
 451 515 l 1,15,-1
 386 515 l 1,16,-1
 386 644 l 1,17,-1
 386 644 l 1,13,-1
322 515 m 1,18,-1
 386 515 l 1,19,-1
 386 386 l 1,20,-1
 322 386 l 1,21,-1
 322 515 l 1,22,-1
 322 515 l 1,18,-1
257 386 m 1,23,-1
 322 386 l 1,24,-1
 322 257 l 1,25,-1
 257 257 l 1,26,-1
 257 386 l 1,27,-1
 257 386 l 1,23,-1
451 322 m 1,28,-1
 579 322 l 1,29,-1
 579 129 l 1,30,-1
 644 129 l 1,31,-1
 644 64 l 1,32,-1
 579 64 l 1,33,-1
 579 0 l 1,34,-1
 515 0 l 1,35,-1
 515 64 l 1,36,-1
 386 64 l 1,37,-1
 386 257 l 1,38,-1
 451 257 l 1,39,-1
 451 129 l 1,40,-1
 515 129 l 1,41,-1
 515 257 l 1,42,-1
 451 257 l 1,43,-1
 451 322 l 1,44,-1
 451 322 l 1,28,-1
193 257 m 1,45,-1
 257 257 l 1,46,-1
 257 129 l 1,47,-1
 193 129 l 1,48,-1
 193 257 l 1,49,-1
 193 257 l 1,45,-1
129 129 m 1,50,-1
 193 129 l 1,51,-1
 193 0 l 1,52,-1
 129 0 l 1,53,-1
 129 129 l 1,54,-1
 129 129 l 1,50,-1
EndSplineSet
EndChar

StartChar: onehalf
Encoding: 189 189 123
Width: 643
VWidth: 839
Flags: W
LayerCount: 2
Fore
SplineSet
64 644 m 1,0,-1
 129 644 l 1,1,-1
 129 386 l 1,2,-1
 193 386 l 1,3,-1
 193 322 l 1,4,-1
 0 322 l 1,5,-1
 0 386 l 1,6,-1
 64 386 l 1,7,-1
 64 515 l 1,8,-1
 0 515 l 1,9,-1
 0 579 l 1,10,-1
 64 579 l 1,11,-1
 64 644 l 1,12,-1
 64 644 l 1,0,-1
386 644 m 1,13,-1
 451 644 l 1,14,-1
 451 515 l 1,15,-1
 386 515 l 1,16,-1
 386 644 l 1,17,-1
 386 644 l 1,13,-1
322 515 m 1,18,-1
 386 515 l 1,19,-1
 386 386 l 1,20,-1
 322 386 l 1,21,-1
 322 515 l 1,22,-1
 322 515 l 1,18,-1
257 386 m 1,23,-1
 322 386 l 1,24,-1
 322 257 l 1,25,-1
 257 257 l 1,26,-1
 257 386 l 1,27,-1
 257 386 l 1,23,-1
386 322 m 1,28,-1
 515 322 l 1,29,-1
 515 257 l 1,30,-1
 386 257 l 1,31,-1
 386 322 l 1,32,-1
 386 322 l 1,28,-1
193 257 m 1,33,-1
 257 257 l 1,34,-1
 257 129 l 1,35,-1
 193 129 l 1,36,-1
 193 257 l 1,37,-1
 193 257 l 1,33,-1
515 257 m 1,38,-1
 579 257 l 1,39,-1
 579 193 l 1,40,-1
 515 193 l 1,41,-1
 515 257 l 1,42,-1
 515 257 l 1,38,-1
451 193 m 1,43,-1
 515 193 l 1,44,-1
 515 129 l 1,45,-1
 451 129 l 1,46,-1
 451 193 l 1,47,-1
 451 193 l 1,43,-1
129 129 m 1,48,-1
 193 129 l 1,49,-1
 193 0 l 1,50,-1
 129 0 l 1,51,-1
 129 129 l 1,52,-1
 129 129 l 1,48,-1
386 129 m 1,53,-1
 451 129 l 1,54,-1
 451 64 l 1,55,-1
 579 64 l 1,56,-1
 579 0 l 1,57,-1
 386 0 l 1,58,-1
 386 129 l 1,59,-1
 386 129 l 1,53,-1
EndSplineSet
EndChar

StartChar: threequarters
Encoding: 190 190 124
Width: 708
VWidth: 839
Flags: W
LayerCount: 2
Fore
SplineSet
0 644 m 1,0,-1
 129 644 l 1,1,-1
 129 579 l 1,2,-1
 0 579 l 1,3,-1
 0 644 l 1,4,-1
 0 644 l 1,0,-1
386 644 m 1,5,-1
 451 644 l 1,6,-1
 451 515 l 1,7,-1
 386 515 l 1,8,-1
 386 644 l 1,9,-1
 386 644 l 1,5,-1
129 579 m 1,10,-1
 193 579 l 1,11,-1
 193 515 l 1,12,-1
 129 515 l 1,13,-1
 129 579 l 1,14,-1
 129 579 l 1,10,-1
64 515 m 1,15,-1
 129 515 l 1,16,-1
 129 451 l 1,17,-1
 64 451 l 1,18,-1
 64 515 l 1,19,-1
 64 515 l 1,15,-1
322 515 m 1,20,-1
 386 515 l 1,21,-1
 386 386 l 1,22,-1
 322 386 l 1,23,-1
 322 515 l 1,24,-1
 322 515 l 1,20,-1
129 451 m 1,25,-1
 193 451 l 1,26,-1
 193 386 l 1,27,-1
 129 386 l 1,28,-1
 129 451 l 1,29,-1
 129 451 l 1,25,-1
0 386 m 1,30,-1
 129 386 l 1,31,-1
 129 322 l 1,32,-1
 0 322 l 1,33,-1
 0 386 l 1,34,-1
 0 386 l 1,30,-1
257 386 m 1,35,-1
 322 386 l 1,36,-1
 322 257 l 1,37,-1
 257 257 l 1,38,-1
 257 386 l 1,39,-1
 257 386 l 1,35,-1
451 322 m 1,40,-1
 579 322 l 1,41,-1
 579 129 l 1,42,-1
 644 129 l 1,43,-1
 644 64 l 1,44,-1
 579 64 l 1,45,-1
 579 0 l 1,46,-1
 515 0 l 1,47,-1
 515 64 l 1,48,-1
 386 64 l 1,49,-1
 386 257 l 1,50,-1
 451 257 l 1,51,-1
 451 129 l 1,52,-1
 515 129 l 1,53,-1
 515 257 l 1,54,-1
 451 257 l 1,55,-1
 451 322 l 1,56,-1
 451 322 l 1,40,-1
193 257 m 1,57,-1
 257 257 l 1,58,-1
 257 129 l 1,59,-1
 193 129 l 1,60,-1
 193 257 l 1,61,-1
 193 257 l 1,57,-1
129 129 m 1,62,-1
 193 129 l 1,63,-1
 193 0 l 1,64,-1
 129 0 l 1,65,-1
 129 129 l 1,66,-1
 129 129 l 1,62,-1
EndSplineSet
EndChar

StartChar: questiondown
Encoding: 191 191 125
Width: 386
VWidth: 839
Flags: W
LayerCount: 2
Fore
SplineSet
129 515 m 1,0,-1
 193 515 l 1,1,-1
 193 386 l 1,2,-1
 129 386 l 1,3,-1
 129 515 l 1,4,-1
 129 515 l 1,0,-1
129 322 m 1,5,-1
 193 322 l 1,6,-1
 193 129 l 1,7,-1
 64 129 l 1,8,-1
 64 193 l 1,9,-1
 129 193 l 1,10,-1
 129 322 l 1,11,-1
 129 322 l 1,5,-1
0 129 m 1,12,-1
 64 129 l 1,13,-1
 64 -64 l 1,14,-1
 0 -64 l 1,15,-1
 0 129 l 1,16,-1
 0 129 l 1,12,-1
257 129 m 1,17,-1
 322 129 l 1,18,-1
 322 -64 l 1,19,-1
 257 -64 l 1,20,-1
 257 129 l 1,21,-1
 257 129 l 1,17,-1
64 -64 m 1,22,-1
 257 -64 l 1,23,-1
 257 -129 l 1,24,-1
 64 -129 l 1,25,-1
 64 -64 l 1,26,-1
 64 -64 l 1,22,-1
EndSplineSet
EndChar

StartChar: Agrave
Encoding: 192 192 126
Width: 386
VWidth: 839
Flags: W
LayerCount: 2
Fore
SplineSet
64 772 m 1,0,-1
 129 772 l 1,1,-1
 129 708 l 1,2,-1
 64 708 l 1,3,-1
 64 772 l 1,4,-1
 64 772 l 1,0,-1
129 708 m 1,5,-1
 193 708 l 1,6,-1
 193 644 l 1,7,-1
 129 644 l 1,8,-1
 129 708 l 1,9,-1
 129 708 l 1,5,-1
64 579 m 1,10,-1
 257 579 l 1,11,-1
 257 515 l 1,12,-1
 64 515 l 1,13,-1
 64 579 l 1,14,-1
 64 579 l 1,10,-1
0 515 m 1,15,-1
 64 515 l 1,16,-1
 64 322 l 1,17,-1
 257 322 l 1,18,-1
 257 515 l 1,19,-1
 322 515 l 1,20,-1
 322 0 l 1,21,-1
 257 0 l 1,22,-1
 257 257 l 1,23,-1
 64 257 l 1,24,-1
 64 0 l 1,25,-1
 0 0 l 1,26,-1
 0 515 l 1,27,-1
 0 515 l 1,15,-1
EndSplineSet
EndChar

StartChar: Aacute
Encoding: 193 193 127
Width: 386
VWidth: 839
Flags: W
LayerCount: 2
Fore
SplineSet
193 772 m 1,0,-1
 257 772 l 1,1,-1
 257 708 l 1,2,-1
 193 708 l 1,3,-1
 193 772 l 1,4,-1
 193 772 l 1,0,-1
129 708 m 1,5,-1
 193 708 l 1,6,-1
 193 644 l 1,7,-1
 129 644 l 1,8,-1
 129 708 l 1,9,-1
 129 708 l 1,5,-1
64 579 m 1,10,-1
 257 579 l 1,11,-1
 257 515 l 1,12,-1
 64 515 l 1,13,-1
 64 579 l 1,14,-1
 64 579 l 1,10,-1
0 515 m 1,15,-1
 64 515 l 1,16,-1
 64 322 l 1,17,-1
 257 322 l 1,18,-1
 257 515 l 1,19,-1
 322 515 l 1,20,-1
 322 0 l 1,21,-1
 257 0 l 1,22,-1
 257 257 l 1,23,-1
 64 257 l 1,24,-1
 64 0 l 1,25,-1
 0 0 l 1,26,-1
 0 515 l 1,27,-1
 0 515 l 1,15,-1
EndSplineSet
EndChar

StartChar: Acircumflex
Encoding: 194 194 128
Width: 386
VWidth: 839
Flags: W
LayerCount: 2
Fore
SplineSet
129 772 m 1,0,-1
 193 772 l 1,1,-1
 193 708 l 1,2,-1
 129 708 l 1,3,-1
 129 772 l 1,4,-1
 129 772 l 1,0,-1
64 708 m 1,5,-1
 129 708 l 1,6,-1
 129 644 l 1,7,-1
 64 644 l 1,8,-1
 64 708 l 1,9,-1
 64 708 l 1,5,-1
193 708 m 1,10,-1
 257 708 l 1,11,-1
 257 644 l 1,12,-1
 193 644 l 1,13,-1
 193 708 l 1,14,-1
 193 708 l 1,10,-1
64 579 m 1,15,-1
 257 579 l 1,16,-1
 257 515 l 1,17,-1
 64 515 l 1,18,-1
 64 579 l 1,19,-1
 64 579 l 1,15,-1
0 515 m 1,20,-1
 64 515 l 1,21,-1
 64 322 l 1,22,-1
 257 322 l 1,23,-1
 257 515 l 1,24,-1
 322 515 l 1,25,-1
 322 0 l 1,26,-1
 257 0 l 1,27,-1
 257 257 l 1,28,-1
 64 257 l 1,29,-1
 64 0 l 1,30,-1
 0 0 l 1,31,-1
 0 515 l 1,32,-1
 0 515 l 1,20,-1
EndSplineSet
EndChar

StartChar: Atilde
Encoding: 195 195 129
Width: 386
VWidth: 839
Flags: W
LayerCount: 2
Fore
SplineSet
129 772 m 1,0,-1
 193 772 l 1,1,-1
 193 708 l 1,2,-1
 129 708 l 1,3,-1
 129 772 l 1,4,-1
 129 772 l 1,0,-1
257 772 m 1,5,-1
 322 772 l 1,6,-1
 322 708 l 1,7,-1
 257 708 l 1,8,-1
 257 772 l 1,9,-1
 257 772 l 1,5,-1
64 708 m 1,10,-1
 129 708 l 1,11,-1
 129 644 l 1,12,-1
 64 644 l 1,13,-1
 64 708 l 1,14,-1
 64 708 l 1,10,-1
193 708 m 1,15,-1
 257 708 l 1,16,-1
 257 644 l 1,17,-1
 193 644 l 1,18,-1
 193 708 l 1,19,-1
 193 708 l 1,15,-1
64 579 m 1,20,-1
 257 579 l 1,21,-1
 257 515 l 1,22,-1
 64 515 l 1,23,-1
 64 579 l 1,24,-1
 64 579 l 1,20,-1
0 515 m 1,25,-1
 64 515 l 1,26,-1
 64 322 l 1,27,-1
 257 322 l 1,28,-1
 257 515 l 1,29,-1
 322 515 l 1,30,-1
 322 0 l 1,31,-1
 257 0 l 1,32,-1
 257 257 l 1,33,-1
 64 257 l 1,34,-1
 64 0 l 1,35,-1
 0 0 l 1,36,-1
 0 515 l 1,37,-1
 0 515 l 1,25,-1
EndSplineSet
EndChar

StartChar: Adieresis
Encoding: 196 196 130
Width: 386
VWidth: 839
Flags: W
LayerCount: 2
Fore
SplineSet
64 708 m 1,0,-1
 129 708 l 1,1,-1
 129 644 l 1,2,-1
 64 644 l 1,3,-1
 64 708 l 1,4,-1
 64 708 l 1,0,-1
193 708 m 1,5,-1
 257 708 l 1,6,-1
 257 644 l 1,7,-1
 193 644 l 1,8,-1
 193 708 l 1,9,-1
 193 708 l 1,5,-1
64 579 m 1,10,-1
 257 579 l 1,11,-1
 257 515 l 1,12,-1
 64 515 l 1,13,-1
 64 579 l 1,14,-1
 64 579 l 1,10,-1
0 515 m 1,15,-1
 64 515 l 1,16,-1
 64 322 l 1,17,-1
 257 322 l 1,18,-1
 257 515 l 1,19,-1
 322 515 l 1,20,-1
 322 0 l 1,21,-1
 257 0 l 1,22,-1
 257 257 l 1,23,-1
 64 257 l 1,24,-1
 64 0 l 1,25,-1
 0 0 l 1,26,-1
 0 515 l 1,27,-1
 0 515 l 1,15,-1
EndSplineSet
EndChar

StartChar: Aring
Encoding: 197 197 131
Width: 386
VWidth: 839
Flags: W
LayerCount: 2
Fore
SplineSet
129 772 m 1,0,-1
 193 772 l 1,1,-1
 193 708 l 1,2,-1
 129 708 l 1,3,-1
 129 772 l 1,4,-1
 129 772 l 1,0,-1
64 708 m 1,5,-1
 129 708 l 1,6,-1
 129 644 l 1,7,-1
 64 644 l 1,8,-1
 64 708 l 1,9,-1
 64 708 l 1,5,-1
193 708 m 1,10,-1
 257 708 l 1,11,-1
 257 644 l 1,12,-1
 193 644 l 1,13,-1
 193 708 l 1,14,-1
 193 708 l 1,10,-1
129 644 m 1,15,-1
 193 644 l 1,16,-1
 193 579 l 1,17,-1
 257 579 l 1,18,-1
 257 515 l 1,19,-1
 64 515 l 1,20,-1
 64 579 l 1,21,-1
 129 579 l 1,22,-1
 129 644 l 1,23,-1
 129 644 l 1,15,-1
0 515 m 1,24,-1
 64 515 l 1,25,-1
 64 322 l 1,26,-1
 257 322 l 1,27,-1
 257 515 l 1,28,-1
 322 515 l 1,29,-1
 322 0 l 1,30,-1
 257 0 l 1,31,-1
 257 257 l 1,32,-1
 64 257 l 1,33,-1
 64 0 l 1,34,-1
 0 0 l 1,35,-1
 0 515 l 1,36,-1
 0 515 l 1,24,-1
EndSplineSet
EndChar

StartChar: AE
Encoding: 198 198 132
Width: 643
VWidth: 839
Flags: W
LayerCount: 2
Fore
SplineSet
64 579 m 1,0,-1
 579 579 l 1,1,-1
 579 515 l 1,2,-1
 322 515 l 1,3,-1
 322 322 l 1,4,-1
 579 322 l 1,5,-1
 579 257 l 1,6,-1
 322 257 l 1,7,-1
 322 64 l 1,8,-1
 579 64 l 1,9,-1
 579 0 l 1,10,-1
 257 0 l 1,11,-1
 257 257 l 1,12,-1
 64 257 l 1,13,-1
 64 0 l 1,14,-1
 0 0 l 1,15,-1
 0 515 l 1,16,-1
 64 515 l 1,17,-1
 64 322 l 1,18,-1
 257 322 l 1,19,-1
 257 515 l 1,20,-1
 64 515 l 1,21,-1
 64 579 l 1,22,-1
 64 579 l 1,0,-1
EndSplineSet
EndChar

StartChar: Ccedilla
Encoding: 199 199 133
Width: 386
VWidth: 839
Flags: W
LayerCount: 2
Fore
SplineSet
64 579 m 1,0,-1
 257 579 l 1,1,-1
 257 515 l 1,2,-1
 64 515 l 1,3,-1
 64 579 l 1,4,-1
 64 579 l 1,0,-1
0 515 m 1,5,-1
 64 515 l 1,6,-1
 64 64 l 1,7,-1
 0 64 l 1,8,-1
 0 515 l 1,9,-1
 0 515 l 1,5,-1
257 515 m 1,10,-1
 322 515 l 1,11,-1
 322 386 l 1,12,-1
 257 386 l 1,13,-1
 257 515 l 1,14,-1
 257 515 l 1,10,-1
257 193 m 1,15,-1
 322 193 l 1,16,-1
 322 64 l 1,17,-1
 257 64 l 1,18,-1
 257 193 l 1,19,-1
 257 193 l 1,15,-1
64 64 m 1,20,-1
 257 64 l 1,21,-1
 257 0 l 1,22,-1
 193 0 l 1,23,-1
 193 -129 l 1,24,-1
 64 -129 l 1,25,-1
 64 -64 l 1,26,-1
 129 -64 l 1,27,-1
 129 0 l 1,28,-1
 64 0 l 1,29,-1
 64 64 l 1,30,-1
 64 64 l 1,20,-1
EndSplineSet
EndChar

StartChar: Egrave
Encoding: 200 200 134
Width: 386
VWidth: 839
Flags: W
LayerCount: 2
Fore
SplineSet
64 772 m 1,0,-1
 129 772 l 1,1,-1
 129 708 l 1,2,-1
 64 708 l 1,3,-1
 64 772 l 1,4,-1
 64 772 l 1,0,-1
129 708 m 1,5,-1
 193 708 l 1,6,-1
 193 644 l 1,7,-1
 129 644 l 1,8,-1
 129 708 l 1,9,-1
 129 708 l 1,5,-1
0 579 m 1,10,-1
 322 579 l 1,11,-1
 322 515 l 1,12,-1
 64 515 l 1,13,-1
 64 322 l 1,14,-1
 322 322 l 1,15,-1
 322 257 l 1,16,-1
 64 257 l 1,17,-1
 64 64 l 1,18,-1
 322 64 l 1,19,-1
 322 0 l 1,20,-1
 0 0 l 1,21,-1
 0 579 l 1,22,-1
 0 579 l 1,10,-1
EndSplineSet
EndChar

StartChar: Eacute
Encoding: 201 201 135
Width: 386
VWidth: 839
Flags: W
LayerCount: 2
Fore
SplineSet
193 772 m 1,0,-1
 257 772 l 1,1,-1
 257 708 l 1,2,-1
 193 708 l 1,3,-1
 193 772 l 1,4,-1
 193 772 l 1,0,-1
129 708 m 1,5,-1
 193 708 l 1,6,-1
 193 644 l 1,7,-1
 129 644 l 1,8,-1
 129 708 l 1,9,-1
 129 708 l 1,5,-1
0 579 m 1,10,-1
 322 579 l 1,11,-1
 322 515 l 1,12,-1
 64 515 l 1,13,-1
 64 322 l 1,14,-1
 322 322 l 1,15,-1
 322 257 l 1,16,-1
 64 257 l 1,17,-1
 64 64 l 1,18,-1
 322 64 l 1,19,-1
 322 0 l 1,20,-1
 0 0 l 1,21,-1
 0 579 l 1,22,-1
 0 579 l 1,10,-1
EndSplineSet
EndChar

StartChar: Ecircumflex
Encoding: 202 202 136
Width: 386
VWidth: 839
Flags: W
LayerCount: 2
Fore
SplineSet
129 772 m 1,0,-1
 193 772 l 1,1,-1
 193 708 l 1,2,-1
 129 708 l 1,3,-1
 129 772 l 1,4,-1
 129 772 l 1,0,-1
64 708 m 1,5,-1
 129 708 l 1,6,-1
 129 644 l 1,7,-1
 64 644 l 1,8,-1
 64 708 l 1,9,-1
 64 708 l 1,5,-1
193 708 m 1,10,-1
 257 708 l 1,11,-1
 257 644 l 1,12,-1
 193 644 l 1,13,-1
 193 708 l 1,14,-1
 193 708 l 1,10,-1
0 579 m 1,15,-1
 322 579 l 1,16,-1
 322 515 l 1,17,-1
 64 515 l 1,18,-1
 64 322 l 1,19,-1
 322 322 l 1,20,-1
 322 257 l 1,21,-1
 64 257 l 1,22,-1
 64 64 l 1,23,-1
 322 64 l 1,24,-1
 322 0 l 1,25,-1
 0 0 l 1,26,-1
 0 579 l 1,27,-1
 0 579 l 1,15,-1
EndSplineSet
EndChar

StartChar: Edieresis
Encoding: 203 203 137
Width: 386
VWidth: 839
Flags: W
LayerCount: 2
Fore
SplineSet
64 708 m 1,0,-1
 129 708 l 1,1,-1
 129 644 l 1,2,-1
 64 644 l 1,3,-1
 64 708 l 1,4,-1
 64 708 l 1,0,-1
193 708 m 1,5,-1
 257 708 l 1,6,-1
 257 644 l 1,7,-1
 193 644 l 1,8,-1
 193 708 l 1,9,-1
 193 708 l 1,5,-1
0 579 m 1,10,-1
 322 579 l 1,11,-1
 322 515 l 1,12,-1
 64 515 l 1,13,-1
 64 322 l 1,14,-1
 322 322 l 1,15,-1
 322 257 l 1,16,-1
 64 257 l 1,17,-1
 64 64 l 1,18,-1
 322 64 l 1,19,-1
 322 0 l 1,20,-1
 0 0 l 1,21,-1
 0 579 l 1,22,-1
 0 579 l 1,10,-1
EndSplineSet
EndChar

StartChar: Igrave
Encoding: 204 204 138
Width: 321
VWidth: 839
Flags: W
LayerCount: 2
Fore
SplineSet
64 772 m 1,0,-1
 129 772 l 1,1,-1
 129 708 l 1,2,-1
 64 708 l 1,3,-1
 64 772 l 1,4,-1
 64 772 l 1,0,-1
129 708 m 1,5,-1
 193 708 l 1,6,-1
 193 644 l 1,7,-1
 129 644 l 1,8,-1
 129 708 l 1,9,-1
 129 708 l 1,5,-1
64 579 m 1,10,-1
 257 579 l 1,11,-1
 257 515 l 1,12,-1
 193 515 l 1,13,-1
 193 64 l 1,14,-1
 257 64 l 1,15,-1
 257 0 l 1,16,-1
 64 0 l 1,17,-1
 64 64 l 1,18,-1
 129 64 l 1,19,-1
 129 515 l 1,20,-1
 64 515 l 1,21,-1
 64 579 l 1,22,-1
 64 579 l 1,10,-1
EndSplineSet
EndChar

StartChar: Iacute
Encoding: 205 205 139
Width: 321
VWidth: 839
Flags: W
LayerCount: 2
Fore
SplineSet
193 772 m 1,0,-1
 257 772 l 1,1,-1
 257 708 l 1,2,-1
 193 708 l 1,3,-1
 193 772 l 1,4,-1
 193 772 l 1,0,-1
129 708 m 1,5,-1
 193 708 l 1,6,-1
 193 644 l 1,7,-1
 129 644 l 1,8,-1
 129 708 l 1,9,-1
 129 708 l 1,5,-1
64 579 m 1,10,-1
 257 579 l 1,11,-1
 257 515 l 1,12,-1
 193 515 l 1,13,-1
 193 64 l 1,14,-1
 257 64 l 1,15,-1
 257 0 l 1,16,-1
 64 0 l 1,17,-1
 64 64 l 1,18,-1
 129 64 l 1,19,-1
 129 515 l 1,20,-1
 64 515 l 1,21,-1
 64 579 l 1,22,-1
 64 579 l 1,10,-1
EndSplineSet
EndChar

StartChar: Icircumflex
Encoding: 206 206 140
Width: 321
VWidth: 839
Flags: W
LayerCount: 2
Fore
SplineSet
129 772 m 1,0,-1
 193 772 l 1,1,-1
 193 708 l 1,2,-1
 129 708 l 1,3,-1
 129 772 l 1,4,-1
 129 772 l 1,0,-1
64 708 m 1,5,-1
 129 708 l 1,6,-1
 129 644 l 1,7,-1
 64 644 l 1,8,-1
 64 708 l 1,9,-1
 64 708 l 1,5,-1
193 708 m 1,10,-1
 257 708 l 1,11,-1
 257 644 l 1,12,-1
 193 644 l 1,13,-1
 193 708 l 1,14,-1
 193 708 l 1,10,-1
64 579 m 1,15,-1
 257 579 l 1,16,-1
 257 515 l 1,17,-1
 193 515 l 1,18,-1
 193 64 l 1,19,-1
 257 64 l 1,20,-1
 257 0 l 1,21,-1
 64 0 l 1,22,-1
 64 64 l 1,23,-1
 129 64 l 1,24,-1
 129 515 l 1,25,-1
 64 515 l 1,26,-1
 64 579 l 1,27,-1
 64 579 l 1,15,-1
EndSplineSet
EndChar

StartChar: Idieresis
Encoding: 207 207 141
Width: 321
VWidth: 839
Flags: W
LayerCount: 2
Fore
SplineSet
64 708 m 1,0,-1
 129 708 l 1,1,-1
 129 644 l 1,2,-1
 64 644 l 1,3,-1
 64 708 l 1,4,-1
 64 708 l 1,0,-1
193 708 m 1,5,-1
 257 708 l 1,6,-1
 257 644 l 1,7,-1
 193 644 l 1,8,-1
 193 708 l 1,9,-1
 193 708 l 1,5,-1
64 579 m 1,10,-1
 257 579 l 1,11,-1
 257 515 l 1,12,-1
 193 515 l 1,13,-1
 193 64 l 1,14,-1
 257 64 l 1,15,-1
 257 0 l 1,16,-1
 64 0 l 1,17,-1
 64 64 l 1,18,-1
 129 64 l 1,19,-1
 129 515 l 1,20,-1
 64 515 l 1,21,-1
 64 579 l 1,22,-1
 64 579 l 1,10,-1
EndSplineSet
EndChar

StartChar: Eth
Encoding: 208 208 142
Width: 386
VWidth: 839
Flags: W
LayerCount: 2
Fore
SplineSet
0 579 m 1,0,-1
 257 579 l 1,1,-1
 257 515 l 1,2,-1
 64 515 l 1,3,-1
 64 322 l 1,4,-1
 193 322 l 1,5,-1
 193 257 l 1,6,-1
 64 257 l 1,7,-1
 64 64 l 1,8,-1
 257 64 l 1,9,-1
 257 0 l 1,10,-1
 0 0 l 1,11,-1
 0 579 l 1,12,-1
 0 579 l 1,0,-1
257 515 m 1,13,-1
 322 515 l 1,14,-1
 322 64 l 1,15,-1
 257 64 l 1,16,-1
 257 515 l 1,17,-1
 257 515 l 1,13,-1
EndSplineSet
EndChar

StartChar: Ntilde
Encoding: 209 209 143
Width: 386
VWidth: 839
Flags: W
LayerCount: 2
Fore
SplineSet
129 772 m 1,0,-1
 193 772 l 1,1,-1
 193 708 l 1,2,-1
 129 708 l 1,3,-1
 129 772 l 1,4,-1
 129 772 l 1,0,-1
257 772 m 1,5,-1
 322 772 l 1,6,-1
 322 708 l 1,7,-1
 257 708 l 1,8,-1
 257 772 l 1,9,-1
 257 772 l 1,5,-1
64 708 m 1,10,-1
 129 708 l 1,11,-1
 129 644 l 1,12,-1
 64 644 l 1,13,-1
 64 708 l 1,14,-1
 64 708 l 1,10,-1
193 708 m 1,15,-1
 257 708 l 1,16,-1
 257 644 l 1,17,-1
 193 644 l 1,18,-1
 193 708 l 1,19,-1
 193 708 l 1,15,-1
0 579 m 1,20,-1
 64 579 l 1,21,-1
 64 451 l 1,22,-1
 129 451 l 1,23,-1
 129 322 l 1,24,-1
 64 322 l 1,25,-1
 64 0 l 1,26,-1
 0 0 l 1,27,-1
 0 579 l 1,28,-1
 0 579 l 1,20,-1
257 579 m 1,29,-1
 322 579 l 1,30,-1
 322 0 l 1,31,-1
 257 0 l 1,32,-1
 257 129 l 1,33,-1
 193 129 l 1,34,-1
 193 257 l 1,35,-1
 257 257 l 1,36,-1
 257 579 l 1,37,-1
 257 579 l 1,29,-1
129 322 m 1,38,-1
 193 322 l 1,39,-1
 193 257 l 1,40,-1
 129 257 l 1,41,-1
 129 322 l 1,42,-1
 129 322 l 1,38,-1
EndSplineSet
EndChar

StartChar: Ograve
Encoding: 210 210 144
Width: 386
VWidth: 839
Flags: W
LayerCount: 2
Fore
SplineSet
64 772 m 1,0,-1
 129 772 l 1,1,-1
 129 708 l 1,2,-1
 64 708 l 1,3,-1
 64 772 l 1,4,-1
 64 772 l 1,0,-1
129 708 m 1,5,-1
 193 708 l 1,6,-1
 193 644 l 1,7,-1
 129 644 l 1,8,-1
 129 708 l 1,9,-1
 129 708 l 1,5,-1
64 579 m 1,10,-1
 257 579 l 1,11,-1
 257 515 l 1,12,-1
 64 515 l 1,13,-1
 64 579 l 1,14,-1
 64 579 l 1,10,-1
0 515 m 1,15,-1
 64 515 l 1,16,-1
 64 64 l 1,17,-1
 0 64 l 1,18,-1
 0 515 l 1,19,-1
 0 515 l 1,15,-1
257 515 m 1,20,-1
 322 515 l 1,21,-1
 322 64 l 1,22,-1
 257 64 l 1,23,-1
 257 515 l 1,24,-1
 257 515 l 1,20,-1
64 64 m 1,25,-1
 257 64 l 1,26,-1
 257 0 l 1,27,-1
 64 0 l 1,28,-1
 64 64 l 1,29,-1
 64 64 l 1,25,-1
EndSplineSet
EndChar

StartChar: Oacute
Encoding: 211 211 145
Width: 386
VWidth: 839
Flags: W
LayerCount: 2
Fore
SplineSet
193 772 m 1,0,-1
 257 772 l 1,1,-1
 257 708 l 1,2,-1
 193 708 l 1,3,-1
 193 772 l 1,4,-1
 193 772 l 1,0,-1
129 708 m 1,5,-1
 193 708 l 1,6,-1
 193 644 l 1,7,-1
 129 644 l 1,8,-1
 129 708 l 1,9,-1
 129 708 l 1,5,-1
64 579 m 1,10,-1
 257 579 l 1,11,-1
 257 515 l 1,12,-1
 64 515 l 1,13,-1
 64 579 l 1,14,-1
 64 579 l 1,10,-1
0 515 m 1,15,-1
 64 515 l 1,16,-1
 64 64 l 1,17,-1
 0 64 l 1,18,-1
 0 515 l 1,19,-1
 0 515 l 1,15,-1
257 515 m 1,20,-1
 322 515 l 1,21,-1
 322 64 l 1,22,-1
 257 64 l 1,23,-1
 257 515 l 1,24,-1
 257 515 l 1,20,-1
64 64 m 1,25,-1
 257 64 l 1,26,-1
 257 0 l 1,27,-1
 64 0 l 1,28,-1
 64 64 l 1,29,-1
 64 64 l 1,25,-1
EndSplineSet
EndChar

StartChar: Ocircumflex
Encoding: 212 212 146
Width: 386
VWidth: 839
Flags: W
LayerCount: 2
Fore
SplineSet
129 772 m 1,0,-1
 193 772 l 1,1,-1
 193 708 l 1,2,-1
 129 708 l 1,3,-1
 129 772 l 1,4,-1
 129 772 l 1,0,-1
64 708 m 1,5,-1
 129 708 l 1,6,-1
 129 644 l 1,7,-1
 64 644 l 1,8,-1
 64 708 l 1,9,-1
 64 708 l 1,5,-1
193 708 m 1,10,-1
 257 708 l 1,11,-1
 257 644 l 1,12,-1
 193 644 l 1,13,-1
 193 708 l 1,14,-1
 193 708 l 1,10,-1
64 579 m 1,15,-1
 257 579 l 1,16,-1
 257 515 l 1,17,-1
 64 515 l 1,18,-1
 64 579 l 1,19,-1
 64 579 l 1,15,-1
0 515 m 1,20,-1
 64 515 l 1,21,-1
 64 64 l 1,22,-1
 0 64 l 1,23,-1
 0 515 l 1,24,-1
 0 515 l 1,20,-1
257 515 m 1,25,-1
 322 515 l 1,26,-1
 322 64 l 1,27,-1
 257 64 l 1,28,-1
 257 515 l 1,29,-1
 257 515 l 1,25,-1
64 64 m 1,30,-1
 257 64 l 1,31,-1
 257 0 l 1,32,-1
 64 0 l 1,33,-1
 64 64 l 1,34,-1
 64 64 l 1,30,-1
EndSplineSet
EndChar

StartChar: Otilde
Encoding: 213 213 147
Width: 386
VWidth: 839
Flags: W
LayerCount: 2
Fore
SplineSet
129 772 m 1,0,-1
 193 772 l 1,1,-1
 193 708 l 1,2,-1
 129 708 l 1,3,-1
 129 772 l 1,4,-1
 129 772 l 1,0,-1
257 772 m 1,5,-1
 322 772 l 1,6,-1
 322 708 l 1,7,-1
 257 708 l 1,8,-1
 257 772 l 1,9,-1
 257 772 l 1,5,-1
64 708 m 1,10,-1
 129 708 l 1,11,-1
 129 644 l 1,12,-1
 64 644 l 1,13,-1
 64 708 l 1,14,-1
 64 708 l 1,10,-1
193 708 m 1,15,-1
 257 708 l 1,16,-1
 257 644 l 1,17,-1
 193 644 l 1,18,-1
 193 708 l 1,19,-1
 193 708 l 1,15,-1
64 579 m 1,20,-1
 257 579 l 1,21,-1
 257 515 l 1,22,-1
 64 515 l 1,23,-1
 64 579 l 1,24,-1
 64 579 l 1,20,-1
0 515 m 1,25,-1
 64 515 l 1,26,-1
 64 64 l 1,27,-1
 0 64 l 1,28,-1
 0 515 l 1,29,-1
 0 515 l 1,25,-1
257 515 m 1,30,-1
 322 515 l 1,31,-1
 322 64 l 1,32,-1
 257 64 l 1,33,-1
 257 515 l 1,34,-1
 257 515 l 1,30,-1
64 64 m 1,35,-1
 257 64 l 1,36,-1
 257 0 l 1,37,-1
 64 0 l 1,38,-1
 64 64 l 1,39,-1
 64 64 l 1,35,-1
EndSplineSet
EndChar

StartChar: Odieresis
Encoding: 214 214 148
Width: 386
VWidth: 839
Flags: W
LayerCount: 2
Fore
SplineSet
64 708 m 1,0,-1
 129 708 l 1,1,-1
 129 644 l 1,2,-1
 64 644 l 1,3,-1
 64 708 l 1,4,-1
 64 708 l 1,0,-1
193 708 m 1,5,-1
 257 708 l 1,6,-1
 257 644 l 1,7,-1
 193 644 l 1,8,-1
 193 708 l 1,9,-1
 193 708 l 1,5,-1
64 579 m 1,10,-1
 257 579 l 1,11,-1
 257 515 l 1,12,-1
 64 515 l 1,13,-1
 64 579 l 1,14,-1
 64 579 l 1,10,-1
0 515 m 1,15,-1
 64 515 l 1,16,-1
 64 64 l 1,17,-1
 0 64 l 1,18,-1
 0 515 l 1,19,-1
 0 515 l 1,15,-1
257 515 m 1,20,-1
 322 515 l 1,21,-1
 322 64 l 1,22,-1
 257 64 l 1,23,-1
 257 515 l 1,24,-1
 257 515 l 1,20,-1
64 64 m 1,25,-1
 257 64 l 1,26,-1
 257 0 l 1,27,-1
 64 0 l 1,28,-1
 64 64 l 1,29,-1
 64 64 l 1,25,-1
EndSplineSet
EndChar

StartChar: multiply
Encoding: 215 215 149
Width: 386
VWidth: 839
Flags: W
LayerCount: 2
Fore
SplineSet
0 451 m 1,0,-1
 64 451 l 1,1,-1
 64 386 l 1,2,-1
 0 386 l 1,3,-1
 0 451 l 1,4,-1
 0 451 l 1,0,-1
257 451 m 1,5,-1
 322 451 l 1,6,-1
 322 386 l 1,7,-1
 257 386 l 1,8,-1
 257 451 l 1,9,-1
 257 451 l 1,5,-1
64 386 m 1,10,-1
 129 386 l 1,11,-1
 129 322 l 1,12,-1
 64 322 l 1,13,-1
 64 386 l 1,14,-1
 64 386 l 1,10,-1
193 386 m 1,15,-1
 257 386 l 1,16,-1
 257 322 l 1,17,-1
 193 322 l 1,18,-1
 193 386 l 1,19,-1
 193 386 l 1,15,-1
129 322 m 1,20,-1
 193 322 l 1,21,-1
 193 257 l 1,22,-1
 129 257 l 1,23,-1
 129 322 l 1,24,-1
 129 322 l 1,20,-1
64 257 m 1,25,-1
 129 257 l 1,26,-1
 129 193 l 1,27,-1
 64 193 l 1,28,-1
 64 257 l 1,29,-1
 64 257 l 1,25,-1
193 257 m 1,30,-1
 257 257 l 1,31,-1
 257 193 l 1,32,-1
 193 193 l 1,33,-1
 193 257 l 1,34,-1
 193 257 l 1,30,-1
0 193 m 1,35,-1
 64 193 l 1,36,-1
 64 129 l 1,37,-1
 0 129 l 1,38,-1
 0 193 l 1,39,-1
 0 193 l 1,35,-1
257 193 m 1,40,-1
 322 193 l 1,41,-1
 322 129 l 1,42,-1
 257 129 l 1,43,-1
 257 193 l 1,44,-1
 257 193 l 1,40,-1
EndSplineSet
EndChar

StartChar: Oslash
Encoding: 216 216 150
Width: 386
VWidth: 839
Flags: W
LayerCount: 2
Fore
SplineSet
257 579 m 1,0,-1
 322 579 l 1,1,-1
 322 515 l 1,2,-1
 257 515 l 1,3,-1
 257 579 l 1,4,-1
 257 579 l 1,0,-1
64 515 m 1,5,-1
 257 515 l 1,6,-1
 257 451 l 1,7,-1
 322 451 l 1,8,-1
 322 64 l 1,9,-1
 257 64 l 1,10,-1
 257 322 l 1,11,-1
 193 322 l 1,12,-1
 193 451 l 1,13,-1
 64 451 l 1,14,-1
 64 515 l 1,15,-1
 64 515 l 1,5,-1
0 451 m 1,16,-1
 64 451 l 1,17,-1
 64 193 l 1,18,-1
 129 193 l 1,19,-1
 129 64 l 1,20,-1
 257 64 l 1,21,-1
 257 0 l 1,22,-1
 64 0 l 1,23,-1
 64 64 l 1,24,-1
 0 64 l 1,25,-1
 0 451 l 1,26,-1
 0 451 l 1,16,-1
129 322 m 1,27,-1
 193 322 l 1,28,-1
 193 193 l 1,29,-1
 129 193 l 1,30,-1
 129 322 l 1,31,-1
 129 322 l 1,27,-1
0 0 m 1,32,-1
 64 0 l 1,33,-1
 64 -64 l 1,34,-1
 0 -64 l 1,35,-1
 0 0 l 1,36,-1
 0 0 l 1,32,-1
EndSplineSet
EndChar

StartChar: Ugrave
Encoding: 217 217 151
Width: 386
VWidth: 839
Flags: W
LayerCount: 2
Fore
SplineSet
64 772 m 1,0,-1
 129 772 l 1,1,-1
 129 708 l 1,2,-1
 64 708 l 1,3,-1
 64 772 l 1,4,-1
 64 772 l 1,0,-1
129 708 m 1,5,-1
 193 708 l 1,6,-1
 193 644 l 1,7,-1
 129 644 l 1,8,-1
 129 708 l 1,9,-1
 129 708 l 1,5,-1
0 579 m 1,10,-1
 64 579 l 1,11,-1
 64 64 l 1,12,-1
 0 64 l 1,13,-1
 0 579 l 1,14,-1
 0 579 l 1,10,-1
257 579 m 1,15,-1
 322 579 l 1,16,-1
 322 64 l 1,17,-1
 257 64 l 1,18,-1
 257 579 l 1,19,-1
 257 579 l 1,15,-1
64 64 m 1,20,-1
 257 64 l 1,21,-1
 257 0 l 1,22,-1
 64 0 l 1,23,-1
 64 64 l 1,24,-1
 64 64 l 1,20,-1
EndSplineSet
EndChar

StartChar: Uacute
Encoding: 218 218 152
Width: 386
VWidth: 839
Flags: W
LayerCount: 2
Fore
SplineSet
193 772 m 1,0,-1
 257 772 l 1,1,-1
 257 708 l 1,2,-1
 193 708 l 1,3,-1
 193 772 l 1,4,-1
 193 772 l 1,0,-1
129 708 m 1,5,-1
 193 708 l 1,6,-1
 193 644 l 1,7,-1
 129 644 l 1,8,-1
 129 708 l 1,9,-1
 129 708 l 1,5,-1
0 579 m 1,10,-1
 64 579 l 1,11,-1
 64 64 l 1,12,-1
 0 64 l 1,13,-1
 0 579 l 1,14,-1
 0 579 l 1,10,-1
257 579 m 1,15,-1
 322 579 l 1,16,-1
 322 64 l 1,17,-1
 257 64 l 1,18,-1
 257 579 l 1,19,-1
 257 579 l 1,15,-1
64 64 m 1,20,-1
 257 64 l 1,21,-1
 257 0 l 1,22,-1
 64 0 l 1,23,-1
 64 64 l 1,24,-1
 64 64 l 1,20,-1
EndSplineSet
EndChar

StartChar: Ucircumflex
Encoding: 219 219 153
Width: 386
VWidth: 839
Flags: W
LayerCount: 2
Fore
SplineSet
129 772 m 1,0,-1
 193 772 l 1,1,-1
 193 708 l 1,2,-1
 129 708 l 1,3,-1
 129 772 l 1,4,-1
 129 772 l 1,0,-1
64 708 m 1,5,-1
 129 708 l 1,6,-1
 129 644 l 1,7,-1
 64 644 l 1,8,-1
 64 708 l 1,9,-1
 64 708 l 1,5,-1
193 708 m 1,10,-1
 257 708 l 1,11,-1
 257 644 l 1,12,-1
 193 644 l 1,13,-1
 193 708 l 1,14,-1
 193 708 l 1,10,-1
0 579 m 1,15,-1
 64 579 l 1,16,-1
 64 64 l 1,17,-1
 0 64 l 1,18,-1
 0 579 l 1,19,-1
 0 579 l 1,15,-1
257 579 m 1,20,-1
 322 579 l 1,21,-1
 322 64 l 1,22,-1
 257 64 l 1,23,-1
 257 579 l 1,24,-1
 257 579 l 1,20,-1
64 64 m 1,25,-1
 257 64 l 1,26,-1
 257 0 l 1,27,-1
 64 0 l 1,28,-1
 64 64 l 1,29,-1
 64 64 l 1,25,-1
EndSplineSet
EndChar

StartChar: Udieresis
Encoding: 220 220 154
Width: 386
VWidth: 839
Flags: W
LayerCount: 2
Fore
SplineSet
64 708 m 1,0,-1
 129 708 l 1,1,-1
 129 644 l 1,2,-1
 64 644 l 1,3,-1
 64 708 l 1,4,-1
 64 708 l 1,0,-1
193 708 m 1,5,-1
 257 708 l 1,6,-1
 257 644 l 1,7,-1
 193 644 l 1,8,-1
 193 708 l 1,9,-1
 193 708 l 1,5,-1
0 579 m 1,10,-1
 64 579 l 1,11,-1
 64 64 l 1,12,-1
 0 64 l 1,13,-1
 0 579 l 1,14,-1
 0 579 l 1,10,-1
257 579 m 1,15,-1
 322 579 l 1,16,-1
 322 64 l 1,17,-1
 257 64 l 1,18,-1
 257 579 l 1,19,-1
 257 579 l 1,15,-1
64 64 m 1,20,-1
 257 64 l 1,21,-1
 257 0 l 1,22,-1
 64 0 l 1,23,-1
 64 64 l 1,24,-1
 64 64 l 1,20,-1
EndSplineSet
EndChar

StartChar: Yacute
Encoding: 221 221 155
Width: 386
VWidth: 839
Flags: W
LayerCount: 2
Fore
SplineSet
193 772 m 1,0,-1
 257 772 l 1,1,-1
 257 708 l 1,2,-1
 193 708 l 1,3,-1
 193 772 l 1,4,-1
 193 772 l 1,0,-1
129 708 m 1,5,-1
 193 708 l 1,6,-1
 193 644 l 1,7,-1
 129 644 l 1,8,-1
 129 708 l 1,9,-1
 129 708 l 1,5,-1
0 579 m 1,10,-1
 64 579 l 1,11,-1
 64 386 l 1,12,-1
 0 386 l 1,13,-1
 0 579 l 1,14,-1
 0 579 l 1,10,-1
257 579 m 1,15,-1
 322 579 l 1,16,-1
 322 386 l 1,17,-1
 257 386 l 1,18,-1
 257 579 l 1,19,-1
 257 579 l 1,15,-1
64 386 m 1,20,-1
 129 386 l 1,21,-1
 129 257 l 1,22,-1
 64 257 l 1,23,-1
 64 386 l 1,24,-1
 64 386 l 1,20,-1
193 386 m 1,25,-1
 257 386 l 1,26,-1
 257 257 l 1,27,-1
 193 257 l 1,28,-1
 193 386 l 1,29,-1
 193 386 l 1,25,-1
129 257 m 1,30,-1
 193 257 l 1,31,-1
 193 0 l 1,32,-1
 129 0 l 1,33,-1
 129 257 l 1,34,-1
 129 257 l 1,30,-1
EndSplineSet
EndChar

StartChar: Thorn
Encoding: 222 222 156
Width: 386
VWidth: 839
Flags: W
LayerCount: 2
Fore
SplineSet
0 579 m 1,0,-1
 64 579 l 1,1,-1
 64 451 l 1,2,-1
 257 451 l 1,3,-1
 257 386 l 1,4,-1
 64 386 l 1,5,-1
 64 193 l 1,6,-1
 257 193 l 1,7,-1
 257 129 l 1,8,-1
 64 129 l 1,9,-1
 64 0 l 1,10,-1
 0 0 l 1,11,-1
 0 579 l 1,12,-1
 0 579 l 1,0,-1
257 386 m 1,13,-1
 322 386 l 1,14,-1
 322 193 l 1,15,-1
 257 193 l 1,16,-1
 257 386 l 1,17,-1
 257 386 l 1,13,-1
EndSplineSet
EndChar

StartChar: germandbls
Encoding: 223 223 157
Width: 386
VWidth: 839
Flags: W
LayerCount: 2
Fore
SplineSet
64 515 m 1,0,-1
 193 515 l 1,1,-1
 193 451 l 1,2,-1
 64 451 l 1,3,-1
 64 515 l 1,4,-1
 64 515 l 1,0,-1
0 451 m 1,5,-1
 64 451 l 1,6,-1
 64 -64 l 1,7,-1
 0 -64 l 1,8,-1
 0 451 l 1,9,-1
 0 451 l 1,5,-1
193 451 m 1,10,-1
 257 451 l 1,11,-1
 257 257 l 1,12,-1
 129 257 l 1,13,-1
 129 322 l 1,14,-1
 193 322 l 1,15,-1
 193 451 l 1,16,-1
 193 451 l 1,10,-1
257 257 m 1,17,-1
 322 257 l 1,18,-1
 322 64 l 1,19,-1
 257 64 l 1,20,-1
 257 257 l 1,21,-1
 257 257 l 1,17,-1
129 64 m 1,22,-1
 257 64 l 1,23,-1
 257 0 l 1,24,-1
 129 0 l 1,25,-1
 129 64 l 1,26,-1
 129 64 l 1,22,-1
EndSplineSet
EndChar

StartChar: agrave
Encoding: 224 224 158
Width: 386
VWidth: 839
Flags: W
LayerCount: 2
Fore
SplineSet
64 579 m 1,0,-1
 129 579 l 1,1,-1
 129 515 l 1,2,-1
 64 515 l 1,3,-1
 64 579 l 1,4,-1
 64 579 l 1,0,-1
129 515 m 1,5,-1
 193 515 l 1,6,-1
 193 451 l 1,7,-1
 129 451 l 1,8,-1
 129 515 l 1,9,-1
 129 515 l 1,5,-1
64 386 m 1,10,-1
 257 386 l 1,11,-1
 257 322 l 1,12,-1
 64 322 l 1,13,-1
 64 386 l 1,14,-1
 64 386 l 1,10,-1
257 322 m 1,15,-1
 322 322 l 1,16,-1
 322 0 l 1,17,-1
 64 0 l 1,18,-1
 64 64 l 1,19,-1
 257 64 l 1,20,-1
 257 193 l 1,21,-1
 64 193 l 1,22,-1
 64 257 l 1,23,-1
 257 257 l 1,24,-1
 257 322 l 1,25,-1
 257 322 l 1,15,-1
0 193 m 1,26,-1
 64 193 l 1,27,-1
 64 64 l 1,28,-1
 0 64 l 1,29,-1
 0 193 l 1,30,-1
 0 193 l 1,26,-1
EndSplineSet
EndChar

StartChar: aacute
Encoding: 225 225 159
Width: 386
VWidth: 839
Flags: W
LayerCount: 2
Fore
SplineSet
193 579 m 1,0,-1
 257 579 l 1,1,-1
 257 515 l 1,2,-1
 193 515 l 1,3,-1
 193 579 l 1,4,-1
 193 579 l 1,0,-1
129 515 m 1,5,-1
 193 515 l 1,6,-1
 193 451 l 1,7,-1
 129 451 l 1,8,-1
 129 515 l 1,9,-1
 129 515 l 1,5,-1
64 386 m 1,10,-1
 257 386 l 1,11,-1
 257 322 l 1,12,-1
 64 322 l 1,13,-1
 64 386 l 1,14,-1
 64 386 l 1,10,-1
257 322 m 1,15,-1
 322 322 l 1,16,-1
 322 0 l 1,17,-1
 64 0 l 1,18,-1
 64 64 l 1,19,-1
 257 64 l 1,20,-1
 257 193 l 1,21,-1
 64 193 l 1,22,-1
 64 257 l 1,23,-1
 257 257 l 1,24,-1
 257 322 l 1,25,-1
 257 322 l 1,15,-1
0 193 m 1,26,-1
 64 193 l 1,27,-1
 64 64 l 1,28,-1
 0 64 l 1,29,-1
 0 193 l 1,30,-1
 0 193 l 1,26,-1
EndSplineSet
EndChar

StartChar: acircumflex
Encoding: 226 226 160
Width: 386
VWidth: 839
Flags: W
LayerCount: 2
Fore
SplineSet
129 579 m 1,0,-1
 193 579 l 1,1,-1
 193 515 l 1,2,-1
 129 515 l 1,3,-1
 129 579 l 1,4,-1
 129 579 l 1,0,-1
64 515 m 1,5,-1
 129 515 l 1,6,-1
 129 451 l 1,7,-1
 64 451 l 1,8,-1
 64 515 l 1,9,-1
 64 515 l 1,5,-1
193 515 m 1,10,-1
 257 515 l 1,11,-1
 257 451 l 1,12,-1
 193 451 l 1,13,-1
 193 515 l 1,14,-1
 193 515 l 1,10,-1
64 386 m 1,15,-1
 257 386 l 1,16,-1
 257 322 l 1,17,-1
 64 322 l 1,18,-1
 64 386 l 1,19,-1
 64 386 l 1,15,-1
257 322 m 1,20,-1
 322 322 l 1,21,-1
 322 0 l 1,22,-1
 64 0 l 1,23,-1
 64 64 l 1,24,-1
 257 64 l 1,25,-1
 257 193 l 1,26,-1
 64 193 l 1,27,-1
 64 257 l 1,28,-1
 257 257 l 1,29,-1
 257 322 l 1,30,-1
 257 322 l 1,20,-1
0 193 m 1,31,-1
 64 193 l 1,32,-1
 64 64 l 1,33,-1
 0 64 l 1,34,-1
 0 193 l 1,35,-1
 0 193 l 1,31,-1
EndSplineSet
EndChar

StartChar: atilde
Encoding: 227 227 161
Width: 386
VWidth: 839
Flags: W
LayerCount: 2
Fore
SplineSet
129 579 m 1,0,-1
 193 579 l 1,1,-1
 193 515 l 1,2,-1
 129 515 l 1,3,-1
 129 579 l 1,4,-1
 129 579 l 1,0,-1
257 579 m 1,5,-1
 322 579 l 1,6,-1
 322 515 l 1,7,-1
 257 515 l 1,8,-1
 257 579 l 1,9,-1
 257 579 l 1,5,-1
64 515 m 1,10,-1
 129 515 l 1,11,-1
 129 451 l 1,12,-1
 64 451 l 1,13,-1
 64 515 l 1,14,-1
 64 515 l 1,10,-1
193 515 m 1,15,-1
 257 515 l 1,16,-1
 257 451 l 1,17,-1
 193 451 l 1,18,-1
 193 515 l 1,19,-1
 193 515 l 1,15,-1
64 386 m 1,20,-1
 257 386 l 1,21,-1
 257 322 l 1,22,-1
 64 322 l 1,23,-1
 64 386 l 1,24,-1
 64 386 l 1,20,-1
257 322 m 1,25,-1
 322 322 l 1,26,-1
 322 0 l 1,27,-1
 64 0 l 1,28,-1
 64 64 l 1,29,-1
 257 64 l 1,30,-1
 257 193 l 1,31,-1
 64 193 l 1,32,-1
 64 257 l 1,33,-1
 257 257 l 1,34,-1
 257 322 l 1,35,-1
 257 322 l 1,25,-1
0 193 m 1,36,-1
 64 193 l 1,37,-1
 64 64 l 1,38,-1
 0 64 l 1,39,-1
 0 193 l 1,40,-1
 0 193 l 1,36,-1
EndSplineSet
EndChar

StartChar: adieresis
Encoding: 228 228 162
Width: 386
VWidth: 839
Flags: W
LayerCount: 2
Fore
SplineSet
64 515 m 1,0,-1
 129 515 l 1,1,-1
 129 451 l 1,2,-1
 64 451 l 1,3,-1
 64 515 l 1,4,-1
 64 515 l 1,0,-1
193 515 m 1,5,-1
 257 515 l 1,6,-1
 257 451 l 1,7,-1
 193 451 l 1,8,-1
 193 515 l 1,9,-1
 193 515 l 1,5,-1
64 386 m 1,10,-1
 257 386 l 1,11,-1
 257 322 l 1,12,-1
 64 322 l 1,13,-1
 64 386 l 1,14,-1
 64 386 l 1,10,-1
257 322 m 1,15,-1
 322 322 l 1,16,-1
 322 0 l 1,17,-1
 64 0 l 1,18,-1
 64 64 l 1,19,-1
 257 64 l 1,20,-1
 257 193 l 1,21,-1
 64 193 l 1,22,-1
 64 257 l 1,23,-1
 257 257 l 1,24,-1
 257 322 l 1,25,-1
 257 322 l 1,15,-1
0 193 m 1,26,-1
 64 193 l 1,27,-1
 64 64 l 1,28,-1
 0 64 l 1,29,-1
 0 193 l 1,30,-1
 0 193 l 1,26,-1
EndSplineSet
EndChar

StartChar: aring
Encoding: 229 229 163
Width: 386
VWidth: 839
Flags: W
LayerCount: 2
Fore
SplineSet
129 579 m 1,0,-1
 193 579 l 1,1,-1
 193 515 l 1,2,-1
 129 515 l 1,3,-1
 129 579 l 1,4,-1
 129 579 l 1,0,-1
64 515 m 1,5,-1
 129 515 l 1,6,-1
 129 451 l 1,7,-1
 64 451 l 1,8,-1
 64 515 l 1,9,-1
 64 515 l 1,5,-1
193 515 m 1,10,-1
 257 515 l 1,11,-1
 257 451 l 1,12,-1
 193 451 l 1,13,-1
 193 515 l 1,14,-1
 193 515 l 1,10,-1
129 451 m 1,15,-1
 193 451 l 1,16,-1
 193 386 l 1,17,-1
 257 386 l 1,18,-1
 257 322 l 1,19,-1
 64 322 l 1,20,-1
 64 386 l 1,21,-1
 129 386 l 1,22,-1
 129 451 l 1,23,-1
 129 451 l 1,15,-1
257 322 m 1,24,-1
 322 322 l 1,25,-1
 322 0 l 1,26,-1
 64 0 l 1,27,-1
 64 64 l 1,28,-1
 257 64 l 1,29,-1
 257 193 l 1,30,-1
 64 193 l 1,31,-1
 64 257 l 1,32,-1
 257 257 l 1,33,-1
 257 322 l 1,34,-1
 257 322 l 1,24,-1
0 193 m 1,35,-1
 64 193 l 1,36,-1
 64 64 l 1,37,-1
 0 64 l 1,38,-1
 0 193 l 1,39,-1
 0 193 l 1,35,-1
EndSplineSet
EndChar

StartChar: ae
Encoding: 230 230 164
Width: 643
VWidth: 839
Flags: W
LayerCount: 2
Fore
SplineSet
64 386 m 1,0,-1
 257 386 l 1,1,-1
 257 322 l 1,2,-1
 64 322 l 1,3,-1
 64 386 l 1,4,-1
 64 386 l 1,0,-1
322 386 m 1,5,-1
 515 386 l 1,6,-1
 515 322 l 1,7,-1
 322 322 l 1,8,-1
 322 386 l 1,9,-1
 322 386 l 1,5,-1
257 322 m 1,10,-1
 322 322 l 1,11,-1
 322 193 l 1,12,-1
 515 193 l 1,13,-1
 515 322 l 1,14,-1
 579 322 l 1,15,-1
 579 129 l 1,16,-1
 322 129 l 1,17,-1
 322 64 l 1,18,-1
 579 64 l 1,19,-1
 579 0 l 1,20,-1
 64 0 l 1,21,-1
 64 64 l 1,22,-1
 257 64 l 1,23,-1
 257 193 l 1,24,-1
 64 193 l 1,25,-1
 64 257 l 1,26,-1
 257 257 l 1,27,-1
 257 322 l 1,28,-1
 257 322 l 1,10,-1
0 193 m 1,29,-1
 64 193 l 1,30,-1
 64 64 l 1,31,-1
 0 64 l 1,32,-1
 0 193 l 1,33,-1
 0 193 l 1,29,-1
EndSplineSet
EndChar

StartChar: ccedilla
Encoding: 231 231 165
Width: 386
VWidth: 839
Flags: W
LayerCount: 2
Fore
SplineSet
64 386 m 1,0,-1
 257 386 l 1,1,-1
 257 322 l 1,2,-1
 64 322 l 1,3,-1
 64 386 l 1,4,-1
 64 386 l 1,0,-1
0 322 m 1,5,-1
 64 322 l 1,6,-1
 64 64 l 1,7,-1
 0 64 l 1,8,-1
 0 322 l 1,9,-1
 0 322 l 1,5,-1
257 322 m 1,10,-1
 322 322 l 1,11,-1
 322 257 l 1,12,-1
 257 257 l 1,13,-1
 257 322 l 1,14,-1
 257 322 l 1,10,-1
257 129 m 1,15,-1
 322 129 l 1,16,-1
 322 64 l 1,17,-1
 257 64 l 1,18,-1
 257 129 l 1,19,-1
 257 129 l 1,15,-1
64 64 m 1,20,-1
 257 64 l 1,21,-1
 257 0 l 1,22,-1
 193 0 l 1,23,-1
 193 -129 l 1,24,-1
 64 -129 l 1,25,-1
 64 -64 l 1,26,-1
 129 -64 l 1,27,-1
 129 0 l 1,28,-1
 64 0 l 1,29,-1
 64 64 l 1,30,-1
 64 64 l 1,20,-1
EndSplineSet
EndChar

StartChar: egrave
Encoding: 232 232 166
Width: 386
VWidth: 839
Flags: W
LayerCount: 2
Fore
SplineSet
64 579 m 1,0,-1
 129 579 l 1,1,-1
 129 515 l 1,2,-1
 64 515 l 1,3,-1
 64 579 l 1,4,-1
 64 579 l 1,0,-1
129 515 m 1,5,-1
 193 515 l 1,6,-1
 193 451 l 1,7,-1
 129 451 l 1,8,-1
 129 515 l 1,9,-1
 129 515 l 1,5,-1
64 386 m 1,10,-1
 257 386 l 1,11,-1
 257 322 l 1,12,-1
 64 322 l 1,13,-1
 64 386 l 1,14,-1
 64 386 l 1,10,-1
0 322 m 1,15,-1
 64 322 l 1,16,-1
 64 193 l 1,17,-1
 257 193 l 1,18,-1
 257 322 l 1,19,-1
 322 322 l 1,20,-1
 322 129 l 1,21,-1
 64 129 l 1,22,-1
 64 64 l 1,23,-1
 0 64 l 1,24,-1
 0 322 l 1,25,-1
 0 322 l 1,15,-1
64 64 m 1,26,-1
 322 64 l 1,27,-1
 322 0 l 1,28,-1
 64 0 l 1,29,-1
 64 64 l 1,30,-1
 64 64 l 1,26,-1
EndSplineSet
EndChar

StartChar: eacute
Encoding: 233 233 167
Width: 386
VWidth: 839
Flags: W
LayerCount: 2
Fore
SplineSet
193 579 m 1,0,-1
 257 579 l 1,1,-1
 257 515 l 1,2,-1
 193 515 l 1,3,-1
 193 579 l 1,4,-1
 193 579 l 1,0,-1
129 515 m 1,5,-1
 193 515 l 1,6,-1
 193 451 l 1,7,-1
 129 451 l 1,8,-1
 129 515 l 1,9,-1
 129 515 l 1,5,-1
64 386 m 1,10,-1
 257 386 l 1,11,-1
 257 322 l 1,12,-1
 64 322 l 1,13,-1
 64 386 l 1,14,-1
 64 386 l 1,10,-1
0 322 m 1,15,-1
 64 322 l 1,16,-1
 64 193 l 1,17,-1
 257 193 l 1,18,-1
 257 322 l 1,19,-1
 322 322 l 1,20,-1
 322 129 l 1,21,-1
 64 129 l 1,22,-1
 64 64 l 1,23,-1
 0 64 l 1,24,-1
 0 322 l 1,25,-1
 0 322 l 1,15,-1
64 64 m 1,26,-1
 322 64 l 1,27,-1
 322 0 l 1,28,-1
 64 0 l 1,29,-1
 64 64 l 1,30,-1
 64 64 l 1,26,-1
EndSplineSet
EndChar

StartChar: ecircumflex
Encoding: 234 234 168
Width: 386
VWidth: 839
Flags: W
LayerCount: 2
Fore
SplineSet
129 579 m 1,0,-1
 193 579 l 1,1,-1
 193 515 l 1,2,-1
 129 515 l 1,3,-1
 129 579 l 1,4,-1
 129 579 l 1,0,-1
64 515 m 1,5,-1
 129 515 l 1,6,-1
 129 451 l 1,7,-1
 64 451 l 1,8,-1
 64 515 l 1,9,-1
 64 515 l 1,5,-1
193 515 m 1,10,-1
 257 515 l 1,11,-1
 257 451 l 1,12,-1
 193 451 l 1,13,-1
 193 515 l 1,14,-1
 193 515 l 1,10,-1
64 386 m 1,15,-1
 257 386 l 1,16,-1
 257 322 l 1,17,-1
 64 322 l 1,18,-1
 64 386 l 1,19,-1
 64 386 l 1,15,-1
0 322 m 1,20,-1
 64 322 l 1,21,-1
 64 193 l 1,22,-1
 257 193 l 1,23,-1
 257 322 l 1,24,-1
 322 322 l 1,25,-1
 322 129 l 1,26,-1
 64 129 l 1,27,-1
 64 64 l 1,28,-1
 0 64 l 1,29,-1
 0 322 l 1,30,-1
 0 322 l 1,20,-1
64 64 m 1,31,-1
 322 64 l 1,32,-1
 322 0 l 1,33,-1
 64 0 l 1,34,-1
 64 64 l 1,35,-1
 64 64 l 1,31,-1
EndSplineSet
EndChar

StartChar: edieresis
Encoding: 235 235 169
Width: 386
VWidth: 839
Flags: W
LayerCount: 2
Fore
SplineSet
64 515 m 1,0,-1
 129 515 l 1,1,-1
 129 451 l 1,2,-1
 64 451 l 1,3,-1
 64 515 l 1,4,-1
 64 515 l 1,0,-1
193 515 m 1,5,-1
 257 515 l 1,6,-1
 257 451 l 1,7,-1
 193 451 l 1,8,-1
 193 515 l 1,9,-1
 193 515 l 1,5,-1
64 386 m 1,10,-1
 257 386 l 1,11,-1
 257 322 l 1,12,-1
 64 322 l 1,13,-1
 64 386 l 1,14,-1
 64 386 l 1,10,-1
0 322 m 1,15,-1
 64 322 l 1,16,-1
 64 193 l 1,17,-1
 257 193 l 1,18,-1
 257 322 l 1,19,-1
 322 322 l 1,20,-1
 322 129 l 1,21,-1
 64 129 l 1,22,-1
 64 64 l 1,23,-1
 0 64 l 1,24,-1
 0 322 l 1,25,-1
 0 322 l 1,15,-1
64 64 m 1,26,-1
 322 64 l 1,27,-1
 322 0 l 1,28,-1
 64 0 l 1,29,-1
 64 64 l 1,30,-1
 64 64 l 1,26,-1
EndSplineSet
EndChar

StartChar: igrave
Encoding: 236 236 170
Width: 257
VWidth: 839
Flags: W
LayerCount: 2
Fore
SplineSet
64 644 m 1,0,-1
 129 644 l 1,1,-1
 129 579 l 1,2,-1
 64 579 l 1,3,-1
 64 644 l 1,4,-1
 64 644 l 1,0,-1
129 579 m 1,5,-1
 193 579 l 1,6,-1
 193 515 l 1,7,-1
 129 515 l 1,8,-1
 129 579 l 1,9,-1
 129 579 l 1,5,-1
64 386 m 1,10,-1
 129 386 l 1,11,-1
 129 0 l 1,12,-1
 64 0 l 1,13,-1
 64 386 l 1,14,-1
 64 386 l 1,10,-1
EndSplineSet
EndChar

StartChar: iacute
Encoding: 237 237 171
Width: 257
VWidth: 839
Flags: W
LayerCount: 2
Fore
SplineSet
129 644 m 1,0,-1
 193 644 l 1,1,-1
 193 579 l 1,2,-1
 129 579 l 1,3,-1
 129 644 l 1,4,-1
 129 644 l 1,0,-1
64 579 m 1,5,-1
 129 579 l 1,6,-1
 129 515 l 1,7,-1
 64 515 l 1,8,-1
 64 579 l 1,9,-1
 64 579 l 1,5,-1
64 386 m 1,10,-1
 129 386 l 1,11,-1
 129 0 l 1,12,-1
 64 0 l 1,13,-1
 64 386 l 1,14,-1
 64 386 l 1,10,-1
EndSplineSet
EndChar

StartChar: icircumflex
Encoding: 238 238 172
Width: 257
VWidth: 839
Flags: W
LayerCount: 2
Fore
SplineSet
64 644 m 1,0,-1
 129 644 l 1,1,-1
 129 579 l 1,2,-1
 64 579 l 1,3,-1
 64 644 l 1,4,-1
 64 644 l 1,0,-1
0 579 m 1,5,-1
 64 579 l 1,6,-1
 64 515 l 1,7,-1
 0 515 l 1,8,-1
 0 579 l 1,9,-1
 0 579 l 1,5,-1
129 579 m 1,10,-1
 193 579 l 1,11,-1
 193 515 l 1,12,-1
 129 515 l 1,13,-1
 129 579 l 1,14,-1
 129 579 l 1,10,-1
64 386 m 1,15,-1
 129 386 l 1,16,-1
 129 0 l 1,17,-1
 64 0 l 1,18,-1
 64 386 l 1,19,-1
 64 386 l 1,15,-1
EndSplineSet
EndChar

StartChar: idieresis
Encoding: 239 239 173
Width: 257
VWidth: 839
Flags: W
LayerCount: 2
Fore
SplineSet
0 579 m 1,0,-1
 64 579 l 1,1,-1
 64 515 l 1,2,-1
 0 515 l 1,3,-1
 0 579 l 1,4,-1
 0 579 l 1,0,-1
129 579 m 1,5,-1
 193 579 l 1,6,-1
 193 515 l 1,7,-1
 129 515 l 1,8,-1
 129 579 l 1,9,-1
 129 579 l 1,5,-1
64 386 m 1,10,-1
 129 386 l 1,11,-1
 129 0 l 1,12,-1
 64 0 l 1,13,-1
 64 386 l 1,14,-1
 64 386 l 1,10,-1
EndSplineSet
EndChar

StartChar: eth
Encoding: 240 240 174
Width: 386
VWidth: 839
Flags: W
LayerCount: 2
Fore
SplineSet
64 579 m 1,0,-1
 193 579 l 1,1,-1
 193 515 l 1,2,-1
 64 515 l 1,3,-1
 64 579 l 1,4,-1
 64 579 l 1,0,-1
257 579 m 1,5,-1
 322 579 l 1,6,-1
 322 515 l 1,7,-1
 257 515 l 1,8,-1
 257 579 l 1,9,-1
 257 579 l 1,5,-1
193 515 m 1,10,-1
 257 515 l 1,11,-1
 257 451 l 1,12,-1
 193 451 l 1,13,-1
 193 515 l 1,14,-1
 193 515 l 1,10,-1
129 451 m 1,15,-1
 193 451 l 1,16,-1
 193 386 l 1,17,-1
 129 386 l 1,18,-1
 129 451 l 1,19,-1
 129 451 l 1,15,-1
257 451 m 1,20,-1
 322 451 l 1,21,-1
 322 64 l 1,22,-1
 257 64 l 1,23,-1
 257 257 l 1,24,-1
 64 257 l 1,25,-1
 64 322 l 1,26,-1
 257 322 l 1,27,-1
 257 451 l 1,28,-1
 257 451 l 1,20,-1
0 257 m 1,29,-1
 64 257 l 1,30,-1
 64 64 l 1,31,-1
 0 64 l 1,32,-1
 0 257 l 1,33,-1
 0 257 l 1,29,-1
64 64 m 1,34,-1
 257 64 l 1,35,-1
 257 0 l 1,36,-1
 64 0 l 1,37,-1
 64 64 l 1,38,-1
 64 64 l 1,34,-1
EndSplineSet
EndChar

StartChar: ntilde
Encoding: 241 241 175
Width: 386
VWidth: 839
Flags: W
LayerCount: 2
Fore
SplineSet
129 579 m 1,0,-1
 193 579 l 1,1,-1
 193 515 l 1,2,-1
 129 515 l 1,3,-1
 129 579 l 1,4,-1
 129 579 l 1,0,-1
257 579 m 1,5,-1
 322 579 l 1,6,-1
 322 515 l 1,7,-1
 257 515 l 1,8,-1
 257 579 l 1,9,-1
 257 579 l 1,5,-1
64 515 m 1,10,-1
 129 515 l 1,11,-1
 129 451 l 1,12,-1
 64 451 l 1,13,-1
 64 515 l 1,14,-1
 64 515 l 1,10,-1
193 515 m 1,15,-1
 257 515 l 1,16,-1
 257 451 l 1,17,-1
 193 451 l 1,18,-1
 193 515 l 1,19,-1
 193 515 l 1,15,-1
0 386 m 1,20,-1
 64 386 l 1,21,-1
 64 322 l 1,22,-1
 129 322 l 1,23,-1
 129 257 l 1,24,-1
 64 257 l 1,25,-1
 64 0 l 1,26,-1
 0 0 l 1,27,-1
 0 386 l 1,28,-1
 0 386 l 1,20,-1
129 386 m 1,29,-1
 257 386 l 1,30,-1
 257 322 l 1,31,-1
 129 322 l 1,32,-1
 129 386 l 1,33,-1
 129 386 l 1,29,-1
257 322 m 1,34,-1
 322 322 l 1,35,-1
 322 0 l 1,36,-1
 257 0 l 1,37,-1
 257 322 l 1,38,-1
 257 322 l 1,34,-1
EndSplineSet
EndChar

StartChar: ograve
Encoding: 242 242 176
Width: 386
VWidth: 839
Flags: W
LayerCount: 2
Fore
SplineSet
64 579 m 1,0,-1
 129 579 l 1,1,-1
 129 515 l 1,2,-1
 64 515 l 1,3,-1
 64 579 l 1,4,-1
 64 579 l 1,0,-1
129 515 m 1,5,-1
 193 515 l 1,6,-1
 193 451 l 1,7,-1
 129 451 l 1,8,-1
 129 515 l 1,9,-1
 129 515 l 1,5,-1
64 386 m 1,10,-1
 257 386 l 1,11,-1
 257 322 l 1,12,-1
 64 322 l 1,13,-1
 64 386 l 1,14,-1
 64 386 l 1,10,-1
0 322 m 1,15,-1
 64 322 l 1,16,-1
 64 64 l 1,17,-1
 0 64 l 1,18,-1
 0 322 l 1,19,-1
 0 322 l 1,15,-1
257 322 m 1,20,-1
 322 322 l 1,21,-1
 322 64 l 1,22,-1
 257 64 l 1,23,-1
 257 322 l 1,24,-1
 257 322 l 1,20,-1
64 64 m 1,25,-1
 257 64 l 1,26,-1
 257 0 l 1,27,-1
 64 0 l 1,28,-1
 64 64 l 1,29,-1
 64 64 l 1,25,-1
EndSplineSet
EndChar

StartChar: oacute
Encoding: 243 243 177
Width: 386
VWidth: 839
Flags: W
LayerCount: 2
Fore
SplineSet
193 579 m 1,0,-1
 257 579 l 1,1,-1
 257 515 l 1,2,-1
 193 515 l 1,3,-1
 193 579 l 1,4,-1
 193 579 l 1,0,-1
129 515 m 1,5,-1
 193 515 l 1,6,-1
 193 451 l 1,7,-1
 129 451 l 1,8,-1
 129 515 l 1,9,-1
 129 515 l 1,5,-1
64 386 m 1,10,-1
 257 386 l 1,11,-1
 257 322 l 1,12,-1
 64 322 l 1,13,-1
 64 386 l 1,14,-1
 64 386 l 1,10,-1
0 322 m 1,15,-1
 64 322 l 1,16,-1
 64 64 l 1,17,-1
 0 64 l 1,18,-1
 0 322 l 1,19,-1
 0 322 l 1,15,-1
257 322 m 1,20,-1
 322 322 l 1,21,-1
 322 64 l 1,22,-1
 257 64 l 1,23,-1
 257 322 l 1,24,-1
 257 322 l 1,20,-1
64 64 m 1,25,-1
 257 64 l 1,26,-1
 257 0 l 1,27,-1
 64 0 l 1,28,-1
 64 64 l 1,29,-1
 64 64 l 1,25,-1
EndSplineSet
EndChar

StartChar: ocircumflex
Encoding: 244 244 178
Width: 386
VWidth: 839
Flags: W
LayerCount: 2
Fore
SplineSet
129 579 m 1,0,-1
 193 579 l 1,1,-1
 193 515 l 1,2,-1
 129 515 l 1,3,-1
 129 579 l 1,4,-1
 129 579 l 1,0,-1
64 515 m 1,5,-1
 129 515 l 1,6,-1
 129 451 l 1,7,-1
 64 451 l 1,8,-1
 64 515 l 1,9,-1
 64 515 l 1,5,-1
193 515 m 1,10,-1
 257 515 l 1,11,-1
 257 451 l 1,12,-1
 193 451 l 1,13,-1
 193 515 l 1,14,-1
 193 515 l 1,10,-1
64 386 m 1,15,-1
 257 386 l 1,16,-1
 257 322 l 1,17,-1
 64 322 l 1,18,-1
 64 386 l 1,19,-1
 64 386 l 1,15,-1
0 322 m 1,20,-1
 64 322 l 1,21,-1
 64 64 l 1,22,-1
 0 64 l 1,23,-1
 0 322 l 1,24,-1
 0 322 l 1,20,-1
257 322 m 1,25,-1
 322 322 l 1,26,-1
 322 64 l 1,27,-1
 257 64 l 1,28,-1
 257 322 l 1,29,-1
 257 322 l 1,25,-1
64 64 m 1,30,-1
 257 64 l 1,31,-1
 257 0 l 1,32,-1
 64 0 l 1,33,-1
 64 64 l 1,34,-1
 64 64 l 1,30,-1
EndSplineSet
EndChar

StartChar: otilde
Encoding: 245 245 179
Width: 386
VWidth: 839
Flags: W
LayerCount: 2
Fore
SplineSet
129 579 m 1,0,-1
 193 579 l 1,1,-1
 193 515 l 1,2,-1
 129 515 l 1,3,-1
 129 579 l 1,4,-1
 129 579 l 1,0,-1
257 579 m 1,5,-1
 322 579 l 1,6,-1
 322 515 l 1,7,-1
 257 515 l 1,8,-1
 257 579 l 1,9,-1
 257 579 l 1,5,-1
64 515 m 1,10,-1
 129 515 l 1,11,-1
 129 451 l 1,12,-1
 64 451 l 1,13,-1
 64 515 l 1,14,-1
 64 515 l 1,10,-1
193 515 m 1,15,-1
 257 515 l 1,16,-1
 257 451 l 1,17,-1
 193 451 l 1,18,-1
 193 515 l 1,19,-1
 193 515 l 1,15,-1
64 386 m 1,20,-1
 257 386 l 1,21,-1
 257 322 l 1,22,-1
 64 322 l 1,23,-1
 64 386 l 1,24,-1
 64 386 l 1,20,-1
0 322 m 1,25,-1
 64 322 l 1,26,-1
 64 64 l 1,27,-1
 0 64 l 1,28,-1
 0 322 l 1,29,-1
 0 322 l 1,25,-1
257 322 m 1,30,-1
 322 322 l 1,31,-1
 322 64 l 1,32,-1
 257 64 l 1,33,-1
 257 322 l 1,34,-1
 257 322 l 1,30,-1
64 64 m 1,35,-1
 257 64 l 1,36,-1
 257 0 l 1,37,-1
 64 0 l 1,38,-1
 64 64 l 1,39,-1
 64 64 l 1,35,-1
EndSplineSet
EndChar

StartChar: odieresis
Encoding: 246 246 180
Width: 386
VWidth: 839
Flags: W
LayerCount: 2
Fore
SplineSet
64 515 m 1,0,-1
 129 515 l 1,1,-1
 129 451 l 1,2,-1
 64 451 l 1,3,-1
 64 515 l 1,4,-1
 64 515 l 1,0,-1
193 515 m 1,5,-1
 257 515 l 1,6,-1
 257 451 l 1,7,-1
 193 451 l 1,8,-1
 193 515 l 1,9,-1
 193 515 l 1,5,-1
64 386 m 1,10,-1
 257 386 l 1,11,-1
 257 322 l 1,12,-1
 64 322 l 1,13,-1
 64 386 l 1,14,-1
 64 386 l 1,10,-1
0 322 m 1,15,-1
 64 322 l 1,16,-1
 64 64 l 1,17,-1
 0 64 l 1,18,-1
 0 322 l 1,19,-1
 0 322 l 1,15,-1
257 322 m 1,20,-1
 322 322 l 1,21,-1
 322 64 l 1,22,-1
 257 64 l 1,23,-1
 257 322 l 1,24,-1
 257 322 l 1,20,-1
64 64 m 1,25,-1
 257 64 l 1,26,-1
 257 0 l 1,27,-1
 64 0 l 1,28,-1
 64 64 l 1,29,-1
 64 64 l 1,25,-1
EndSplineSet
EndChar

StartChar: divide
Encoding: 247 247 181
Width: 386
VWidth: 839
Flags: W
LayerCount: 2
Fore
SplineSet
129 515 m 1,0,-1
 193 515 l 1,1,-1
 193 451 l 1,2,-1
 129 451 l 1,3,-1
 129 515 l 1,4,-1
 129 515 l 1,0,-1
0 322 m 1,5,-1
 322 322 l 1,6,-1
 322 257 l 1,7,-1
 0 257 l 1,8,-1
 0 322 l 1,9,-1
 0 322 l 1,5,-1
129 129 m 1,10,-1
 193 129 l 1,11,-1
 193 64 l 1,12,-1
 129 64 l 1,13,-1
 129 129 l 1,14,-1
 129 129 l 1,10,-1
EndSplineSet
EndChar

StartChar: oslash
Encoding: 248 248 182
Width: 386
VWidth: 839
Flags: W
LayerCount: 2
Fore
SplineSet
257 451 m 1,0,-1
 322 451 l 1,1,-1
 322 386 l 1,2,-1
 257 386 l 1,3,-1
 257 451 l 1,4,-1
 257 451 l 1,0,-1
64 386 m 1,5,-1
 257 386 l 1,6,-1
 257 322 l 1,7,-1
 322 322 l 1,8,-1
 322 64 l 1,9,-1
 257 64 l 1,10,-1
 257 257 l 1,11,-1
 193 257 l 1,12,-1
 193 322 l 1,13,-1
 64 322 l 1,14,-1
 64 386 l 1,15,-1
 64 386 l 1,5,-1
0 322 m 1,16,-1
 64 322 l 1,17,-1
 64 129 l 1,18,-1
 129 129 l 1,19,-1
 129 64 l 1,20,-1
 257 64 l 1,21,-1
 257 0 l 1,22,-1
 64 0 l 1,23,-1
 64 64 l 1,24,-1
 0 64 l 1,25,-1
 0 322 l 1,26,-1
 0 322 l 1,16,-1
129 257 m 1,27,-1
 193 257 l 1,28,-1
 193 129 l 1,29,-1
 129 129 l 1,30,-1
 129 257 l 1,31,-1
 129 257 l 1,27,-1
0 0 m 1,32,-1
 64 0 l 1,33,-1
 64 -64 l 1,34,-1
 0 -64 l 1,35,-1
 0 0 l 1,36,-1
 0 0 l 1,32,-1
EndSplineSet
EndChar

StartChar: ugrave
Encoding: 249 249 183
Width: 386
VWidth: 839
Flags: W
LayerCount: 2
Fore
SplineSet
64 579 m 1,0,-1
 129 579 l 1,1,-1
 129 515 l 1,2,-1
 64 515 l 1,3,-1
 64 579 l 1,4,-1
 64 579 l 1,0,-1
129 515 m 1,5,-1
 193 515 l 1,6,-1
 193 451 l 1,7,-1
 129 451 l 1,8,-1
 129 515 l 1,9,-1
 129 515 l 1,5,-1
0 386 m 1,10,-1
 64 386 l 1,11,-1
 64 64 l 1,12,-1
 0 64 l 1,13,-1
 0 386 l 1,14,-1
 0 386 l 1,10,-1
257 386 m 1,15,-1
 322 386 l 1,16,-1
 322 0 l 1,17,-1
 64 0 l 1,18,-1
 64 64 l 1,19,-1
 257 64 l 1,20,-1
 257 386 l 1,21,-1
 257 386 l 1,15,-1
EndSplineSet
EndChar

StartChar: uacute
Encoding: 250 250 184
Width: 386
VWidth: 839
Flags: W
LayerCount: 2
Fore
SplineSet
193 579 m 1,0,-1
 257 579 l 1,1,-1
 257 515 l 1,2,-1
 193 515 l 1,3,-1
 193 579 l 1,4,-1
 193 579 l 1,0,-1
129 515 m 1,5,-1
 193 515 l 1,6,-1
 193 451 l 1,7,-1
 129 451 l 1,8,-1
 129 515 l 1,9,-1
 129 515 l 1,5,-1
0 386 m 1,10,-1
 64 386 l 1,11,-1
 64 64 l 1,12,-1
 0 64 l 1,13,-1
 0 386 l 1,14,-1
 0 386 l 1,10,-1
257 386 m 1,15,-1
 322 386 l 1,16,-1
 322 0 l 1,17,-1
 64 0 l 1,18,-1
 64 64 l 1,19,-1
 257 64 l 1,20,-1
 257 386 l 1,21,-1
 257 386 l 1,15,-1
EndSplineSet
EndChar

StartChar: ucircumflex
Encoding: 251 251 185
Width: 386
VWidth: 839
Flags: W
LayerCount: 2
Fore
SplineSet
129 579 m 1,0,-1
 193 579 l 1,1,-1
 193 515 l 1,2,-1
 129 515 l 1,3,-1
 129 579 l 1,4,-1
 129 579 l 1,0,-1
64 515 m 1,5,-1
 129 515 l 1,6,-1
 129 451 l 1,7,-1
 64 451 l 1,8,-1
 64 515 l 1,9,-1
 64 515 l 1,5,-1
193 515 m 1,10,-1
 257 515 l 1,11,-1
 257 451 l 1,12,-1
 193 451 l 1,13,-1
 193 515 l 1,14,-1
 193 515 l 1,10,-1
0 386 m 1,15,-1
 64 386 l 1,16,-1
 64 64 l 1,17,-1
 0 64 l 1,18,-1
 0 386 l 1,19,-1
 0 386 l 1,15,-1
257 386 m 1,20,-1
 322 386 l 1,21,-1
 322 0 l 1,22,-1
 64 0 l 1,23,-1
 64 64 l 1,24,-1
 257 64 l 1,25,-1
 257 386 l 1,26,-1
 257 386 l 1,20,-1
EndSplineSet
EndChar

StartChar: udieresis
Encoding: 252 252 186
Width: 386
VWidth: 839
Flags: W
LayerCount: 2
Fore
SplineSet
64 515 m 1,0,-1
 129 515 l 1,1,-1
 129 451 l 1,2,-1
 64 451 l 1,3,-1
 64 515 l 1,4,-1
 64 515 l 1,0,-1
193 515 m 1,5,-1
 257 515 l 1,6,-1
 257 451 l 1,7,-1
 193 451 l 1,8,-1
 193 515 l 1,9,-1
 193 515 l 1,5,-1
0 386 m 1,10,-1
 64 386 l 1,11,-1
 64 64 l 1,12,-1
 0 64 l 1,13,-1
 0 386 l 1,14,-1
 0 386 l 1,10,-1
257 386 m 1,15,-1
 322 386 l 1,16,-1
 322 0 l 1,17,-1
 64 0 l 1,18,-1
 64 64 l 1,19,-1
 257 64 l 1,20,-1
 257 386 l 1,21,-1
 257 386 l 1,15,-1
EndSplineSet
EndChar

StartChar: yacute
Encoding: 253 253 187
Width: 386
VWidth: 839
Flags: W
LayerCount: 2
Fore
SplineSet
193 579 m 1,0,-1
 257 579 l 1,1,-1
 257 515 l 1,2,-1
 193 515 l 1,3,-1
 193 579 l 1,4,-1
 193 579 l 1,0,-1
129 515 m 1,5,-1
 193 515 l 1,6,-1
 193 451 l 1,7,-1
 129 451 l 1,8,-1
 129 515 l 1,9,-1
 129 515 l 1,5,-1
0 386 m 1,10,-1
 64 386 l 1,11,-1
 64 129 l 1,12,-1
 0 129 l 1,13,-1
 0 386 l 1,14,-1
 0 386 l 1,10,-1
257 386 m 1,15,-1
 322 386 l 1,16,-1
 322 -64 l 1,17,-1
 257 -64 l 1,18,-1
 257 64 l 1,19,-1
 64 64 l 1,20,-1
 64 129 l 1,21,-1
 257 129 l 1,22,-1
 257 386 l 1,23,-1
 257 386 l 1,15,-1
64 -64 m 1,24,-1
 257 -64 l 1,25,-1
 257 -129 l 1,26,-1
 64 -129 l 1,27,-1
 64 -64 l 1,28,-1
 64 -64 l 1,24,-1
EndSplineSet
EndChar

StartChar: thorn
Encoding: 254 254 188
Width: 386
VWidth: 839
Flags: W
LayerCount: 2
Fore
SplineSet
0 579 m 1,0,-1
 64 579 l 1,1,-1
 64 386 l 1,2,-1
 257 386 l 1,3,-1
 257 322 l 1,4,-1
 64 322 l 1,5,-1
 64 129 l 1,6,-1
 257 129 l 1,7,-1
 257 64 l 1,8,-1
 64 64 l 1,9,-1
 64 -129 l 1,10,-1
 0 -129 l 1,11,-1
 0 579 l 1,12,-1
 0 579 l 1,0,-1
257 322 m 1,13,-1
 322 322 l 1,14,-1
 322 129 l 1,15,-1
 257 129 l 1,16,-1
 257 322 l 1,17,-1
 257 322 l 1,13,-1
EndSplineSet
EndChar

StartChar: ydieresis
Encoding: 255 255 189
Width: 386
VWidth: 839
Flags: W
LayerCount: 2
Fore
SplineSet
64 515 m 1,0,-1
 129 515 l 1,1,-1
 129 451 l 1,2,-1
 64 451 l 1,3,-1
 64 515 l 1,4,-1
 64 515 l 1,0,-1
193 515 m 1,5,-1
 257 515 l 1,6,-1
 257 451 l 1,7,-1
 193 451 l 1,8,-1
 193 515 l 1,9,-1
 193 515 l 1,5,-1
0 386 m 1,10,-1
 64 386 l 1,11,-1
 64 129 l 1,12,-1
 0 129 l 1,13,-1
 0 386 l 1,14,-1
 0 386 l 1,10,-1
257 386 m 1,15,-1
 322 386 l 1,16,-1
 322 -64 l 1,17,-1
 257 -64 l 1,18,-1
 257 64 l 1,19,-1
 64 64 l 1,20,-1
 64 129 l 1,21,-1
 257 129 l 1,22,-1
 257 386 l 1,23,-1
 257 386 l 1,15,-1
64 -64 m 1,24,-1
 257 -64 l 1,25,-1
 257 -129 l 1,26,-1
 64 -129 l 1,27,-1
 64 -64 l 1,28,-1
 64 -64 l 1,24,-1
EndSplineSet
EndChar

StartChar: OE
Encoding: 338 338 190
Width: 643
VWidth: 839
Flags: W
LayerCount: 2
Fore
SplineSet
64 579 m 1,0,-1
 579 579 l 1,1,-1
 579 515 l 1,2,-1
 322 515 l 1,3,-1
 322 322 l 1,4,-1
 579 322 l 1,5,-1
 579 257 l 1,6,-1
 322 257 l 1,7,-1
 322 64 l 1,8,-1
 579 64 l 1,9,-1
 579 0 l 1,10,-1
 64 0 l 1,11,-1
 64 64 l 1,12,-1
 257 64 l 1,13,-1
 257 515 l 1,14,-1
 64 515 l 1,15,-1
 64 579 l 1,16,-1
 64 579 l 1,0,-1
0 515 m 1,17,-1
 64 515 l 1,18,-1
 64 64 l 1,19,-1
 0 64 l 1,20,-1
 0 515 l 1,21,-1
 0 515 l 1,17,-1
EndSplineSet
EndChar

StartChar: oe
Encoding: 339 339 191
Width: 643
VWidth: 839
Flags: W
LayerCount: 2
Fore
SplineSet
64 386 m 1,0,-1
 257 386 l 1,1,-1
 257 322 l 1,2,-1
 64 322 l 1,3,-1
 64 386 l 1,4,-1
 64 386 l 1,0,-1
322 386 m 1,5,-1
 515 386 l 1,6,-1
 515 322 l 1,7,-1
 322 322 l 1,8,-1
 322 386 l 1,9,-1
 322 386 l 1,5,-1
0 322 m 1,10,-1
 64 322 l 1,11,-1
 64 64 l 1,12,-1
 0 64 l 1,13,-1
 0 322 l 1,14,-1
 0 322 l 1,10,-1
257 322 m 1,15,-1
 322 322 l 1,16,-1
 322 193 l 1,17,-1
 515 193 l 1,18,-1
 515 322 l 1,19,-1
 579 322 l 1,20,-1
 579 129 l 1,21,-1
 322 129 l 1,22,-1
 322 64 l 1,23,-1
 257 64 l 1,24,-1
 257 322 l 1,25,-1
 257 322 l 1,15,-1
64 64 m 1,26,-1
 257 64 l 1,27,-1
 257 0 l 1,28,-1
 64 0 l 1,29,-1
 64 64 l 1,30,-1
 64 64 l 1,26,-1
322 64 m 1,31,-1
 579 64 l 1,32,-1
 579 0 l 1,33,-1
 322 0 l 1,34,-1
 322 64 l 1,35,-1
 322 64 l 1,31,-1
EndSplineSet
EndChar

StartChar: Scedilla
Encoding: 350 350 192
Width: 386
VWidth: 839
Flags: W
LayerCount: 2
Fore
SplineSet
64 579 m 1,0,-1
 257 579 l 1,1,-1
 257 515 l 1,2,-1
 64 515 l 1,3,-1
 64 579 l 1,4,-1
 64 579 l 1,0,-1
0 515 m 1,5,-1
 64 515 l 1,6,-1
 64 322 l 1,7,-1
 0 322 l 1,8,-1
 0 515 l 1,9,-1
 0 515 l 1,5,-1
257 515 m 1,10,-1
 322 515 l 1,11,-1
 322 451 l 1,12,-1
 257 451 l 1,13,-1
 257 515 l 1,14,-1
 257 515 l 1,10,-1
64 322 m 1,15,-1
 257 322 l 1,16,-1
 257 257 l 1,17,-1
 64 257 l 1,18,-1
 64 322 l 1,19,-1
 64 322 l 1,15,-1
257 257 m 1,20,-1
 322 257 l 1,21,-1
 322 64 l 1,22,-1
 257 64 l 1,23,-1
 257 257 l 1,24,-1
 257 257 l 1,20,-1
0 129 m 1,25,-1
 64 129 l 1,26,-1
 64 64 l 1,27,-1
 0 64 l 1,28,-1
 0 129 l 1,29,-1
 0 129 l 1,25,-1
64 64 m 1,30,-1
 257 64 l 1,31,-1
 257 0 l 1,32,-1
 193 0 l 1,33,-1
 193 -129 l 1,34,-1
 64 -129 l 1,35,-1
 64 -64 l 1,36,-1
 129 -64 l 1,37,-1
 129 0 l 1,38,-1
 64 0 l 1,39,-1
 64 64 l 1,40,-1
 64 64 l 1,30,-1
EndSplineSet
EndChar

StartChar: scedilla
Encoding: 351 351 193
Width: 386
VWidth: 839
Flags: W
LayerCount: 2
Fore
SplineSet
64 386 m 1,0,-1
 322 386 l 1,1,-1
 322 322 l 1,2,-1
 64 322 l 1,3,-1
 64 386 l 1,4,-1
 64 386 l 1,0,-1
0 322 m 1,5,-1
 64 322 l 1,6,-1
 64 257 l 1,7,-1
 0 257 l 1,8,-1
 0 322 l 1,9,-1
 0 322 l 1,5,-1
64 257 m 1,10,-1
 257 257 l 1,11,-1
 257 193 l 1,12,-1
 64 193 l 1,13,-1
 64 257 l 1,14,-1
 64 257 l 1,10,-1
257 193 m 1,15,-1
 322 193 l 1,16,-1
 322 64 l 1,17,-1
 257 64 l 1,18,-1
 257 193 l 1,19,-1
 257 193 l 1,15,-1
0 129 m 1,20,-1
 64 129 l 1,21,-1
 64 64 l 1,22,-1
 0 64 l 1,23,-1
 0 129 l 1,24,-1
 0 129 l 1,20,-1
64 64 m 1,25,-1
 257 64 l 1,26,-1
 257 0 l 1,27,-1
 193 0 l 1,28,-1
 193 -129 l 1,29,-1
 64 -129 l 1,30,-1
 64 -64 l 1,31,-1
 129 -64 l 1,32,-1
 129 0 l 1,33,-1
 64 0 l 1,34,-1
 64 64 l 1,35,-1
 64 64 l 1,25,-1
EndSplineSet
EndChar

StartChar: uni02B3
Encoding: 691 691 194
Width: 321
VWidth: 839
Flags: W
LayerCount: 2
Fore
SplineSet
0 708 m 1,0,-1
 64 708 l 1,1,-1
 64 644 l 1,2,-1
 129 644 l 1,3,-1
 129 579 l 1,4,-1
 64 579 l 1,5,-1
 64 386 l 1,6,-1
 0 386 l 1,7,-1
 0 708 l 1,8,-1
 0 708 l 1,0,-1
129 708 m 1,9,-1
 257 708 l 1,10,-1
 257 644 l 1,11,-1
 129 644 l 1,12,-1
 129 708 l 1,13,-1
 129 708 l 1,9,-1
EndSplineSet
EndChar

StartChar: uni1D49
Encoding: 7497 7497 195
Width: 321
VWidth: 839
Flags: W
LayerCount: 2
Fore
SplineSet
64 708 m 1,0,-1
 193 708 l 1,1,-1
 193 644 l 1,2,-1
 64 644 l 1,3,-1
 64 708 l 1,4,-1
 64 708 l 1,0,-1
0 644 m 1,5,-1
 64 644 l 1,6,-1
 64 515 l 1,7,-1
 193 515 l 1,8,-1
 193 644 l 1,9,-1
 257 644 l 1,10,-1
 257 451 l 1,11,-1
 64 451 l 1,12,-1
 64 386 l 1,13,-1
 0 386 l 1,14,-1
 0 644 l 1,15,-1
 0 644 l 1,5,-1
64 386 m 1,16,-1
 193 386 l 1,17,-1
 193 322 l 1,18,-1
 64 322 l 1,19,-1
 64 386 l 1,20,-1
 64 386 l 1,16,-1
EndSplineSet
EndChar

StartChar: quoteleft
Encoding: 8216 8216 196
Width: 257
VWidth: 839
Flags: W
LayerCount: 2
Fore
SplineSet
129 644 m 1,0,-1
 193 644 l 1,1,-1
 193 579 l 1,2,-1
 129 579 l 1,3,-1
 129 644 l 1,4,-1
 129 644 l 1,0,-1
64 579 m 1,5,-1
 129 579 l 1,6,-1
 129 515 l 1,7,-1
 193 515 l 1,8,-1
 193 386 l 1,9,-1
 64 386 l 1,10,-1
 64 579 l 1,11,-1
 64 579 l 1,5,-1
EndSplineSet
EndChar

StartChar: quoteright
Encoding: 8217 8217 197
Width: 257
VWidth: 839
Flags: W
LayerCount: 2
Fore
SplineSet
64 644 m 1,0,-1
 193 644 l 1,1,-1
 193 451 l 1,2,-1
 129 451 l 1,3,-1
 129 515 l 1,4,-1
 64 515 l 1,5,-1
 64 644 l 1,6,-1
 64 644 l 1,0,-1
64 451 m 1,7,-1
 129 451 l 1,8,-1
 129 386 l 1,9,-1
 64 386 l 1,10,-1
 64 451 l 1,11,-1
 64 451 l 1,7,-1
EndSplineSet
EndChar

StartChar: quotedblleft
Encoding: 8220 8220 198
Width: 386
VWidth: 839
Flags: W
LayerCount: 2
Fore
SplineSet
64 644 m 1,0,-1
 129 644 l 1,1,-1
 129 579 l 1,2,-1
 64 579 l 1,3,-1
 64 644 l 1,4,-1
 64 644 l 1,0,-1
257 644 m 1,5,-1
 322 644 l 1,6,-1
 322 579 l 1,7,-1
 257 579 l 1,8,-1
 257 644 l 1,9,-1
 257 644 l 1,5,-1
0 579 m 1,10,-1
 64 579 l 1,11,-1
 64 515 l 1,12,-1
 129 515 l 1,13,-1
 129 386 l 1,14,-1
 0 386 l 1,15,-1
 0 579 l 1,16,-1
 0 579 l 1,10,-1
193 579 m 1,17,-1
 257 579 l 1,18,-1
 257 515 l 1,19,-1
 322 515 l 1,20,-1
 322 386 l 1,21,-1
 193 386 l 1,22,-1
 193 579 l 1,23,-1
 193 579 l 1,17,-1
EndSplineSet
EndChar

StartChar: quotedblright
Encoding: 8221 8221 199
Width: 386
VWidth: 839
Flags: W
LayerCount: 2
Fore
SplineSet
0 644 m 1,0,-1
 129 644 l 1,1,-1
 129 451 l 1,2,-1
 64 451 l 1,3,-1
 64 515 l 1,4,-1
 0 515 l 1,5,-1
 0 644 l 1,6,-1
 0 644 l 1,0,-1
193 644 m 1,7,-1
 322 644 l 1,8,-1
 322 451 l 1,9,-1
 257 451 l 1,10,-1
 257 515 l 1,11,-1
 193 515 l 1,12,-1
 193 644 l 1,13,-1
 193 644 l 1,7,-1
0 451 m 1,14,-1
 64 451 l 1,15,-1
 64 386 l 1,16,-1
 0 386 l 1,17,-1
 0 451 l 1,18,-1
 0 451 l 1,14,-1
193 451 m 1,19,-1
 257 451 l 1,20,-1
 257 386 l 1,21,-1
 193 386 l 1,22,-1
 193 451 l 1,23,-1
 193 451 l 1,19,-1
EndSplineSet
EndChar

StartChar: quotedblbase
Encoding: 8222 8222 200
Width: 386
VWidth: 839
Flags: W
LayerCount: 2
Fore
SplineSet
0 129 m 1,0,-1
 129 129 l 1,1,-1
 129 -64 l 1,2,-1
 64 -64 l 1,3,-1
 64 0 l 1,4,-1
 0 0 l 1,5,-1
 0 129 l 1,6,-1
 0 129 l 1,0,-1
193 129 m 1,7,-1
 322 129 l 1,8,-1
 322 -64 l 1,9,-1
 257 -64 l 1,10,-1
 257 0 l 1,11,-1
 193 0 l 1,12,-1
 193 129 l 1,13,-1
 193 129 l 1,7,-1
0 -64 m 1,14,-1
 64 -64 l 1,15,-1
 64 -129 l 1,16,-1
 0 -129 l 1,17,-1
 0 -64 l 1,18,-1
 0 -64 l 1,14,-1
193 -64 m 1,19,-1
 257 -64 l 1,20,-1
 257 -129 l 1,21,-1
 193 -129 l 1,22,-1
 193 -64 l 1,23,-1
 193 -64 l 1,19,-1
EndSplineSet
EndChar

StartChar: ellipsis
Encoding: 8230 8230 201
Width: 942
Flags: W
LayerCount: 2
Fore
SplineSet
0 157 m 1,0,-1
 157 157 l 1,1,-1
 157 0 l 1,2,-1
 0 0 l 1,3,-1
 0 157 l 1,4,-1
 0 157 l 1,0,-1
314 157 m 1,5,-1
 471 157 l 1,6,-1
 471 0 l 1,7,-1
 314 0 l 1,8,-1
 314 157 l 1,9,-1
 314 157 l 1,5,-1
628 157 m 1,10,-1
 785 157 l 1,11,-1
 785 0 l 1,12,-1
 628 0 l 1,13,-1
 628 157 l 1,14,-1
 628 157 l 1,10,-1
EndSplineSet
EndChar

StartChar: arrowleft
Encoding: 8592 8592 202
Width: 450
VWidth: 839
Flags: W
LayerCount: 2
Fore
SplineSet
129 451 m 1,0,-1
 193 451 l 1,1,-1
 193 322 l 1,2,-1
 386 322 l 1,3,-1
 386 257 l 1,4,-1
 193 257 l 1,5,-1
 193 129 l 1,6,-1
 129 129 l 1,7,-1
 129 193 l 1,8,-1
 64 193 l 1,9,-1
 64 257 l 1,10,-1
 0 257 l 1,11,-1
 0 322 l 1,12,-1
 64 322 l 1,13,-1
 64 386 l 1,14,-1
 129 386 l 1,15,-1
 129 451 l 1,16,-1
 129 451 l 1,0,-1
EndSplineSet
EndChar

StartChar: arrowup
Encoding: 8593 8593 203
Width: 386
VWidth: 839
Flags: W
LayerCount: 2
Fore
SplineSet
129 451 m 1,0,-1
 193 451 l 1,1,-1
 193 386 l 1,2,-1
 257 386 l 1,3,-1
 257 322 l 1,4,-1
 322 322 l 1,5,-1
 322 257 l 1,6,-1
 193 257 l 1,7,-1
 193 64 l 1,8,-1
 129 64 l 1,9,-1
 129 257 l 1,10,-1
 0 257 l 1,11,-1
 0 322 l 1,12,-1
 64 322 l 1,13,-1
 64 386 l 1,14,-1
 129 386 l 1,15,-1
 129 451 l 1,16,-1
 129 451 l 1,0,-1
EndSplineSet
EndChar

StartChar: arrowright
Encoding: 8594 8594 204
Width: 450
VWidth: 839
Flags: W
LayerCount: 2
Fore
SplineSet
193 451 m 1,0,-1
 257 451 l 1,1,-1
 257 386 l 1,2,-1
 322 386 l 1,3,-1
 322 322 l 1,4,-1
 386 322 l 1,5,-1
 386 257 l 1,6,-1
 322 257 l 1,7,-1
 322 193 l 1,8,-1
 257 193 l 1,9,-1
 257 129 l 1,10,-1
 193 129 l 1,11,-1
 193 257 l 1,12,-1
 0 257 l 1,13,-1
 0 322 l 1,14,-1
 193 322 l 1,15,-1
 193 451 l 1,16,-1
 193 451 l 1,0,-1
EndSplineSet
EndChar

StartChar: arrowdown
Encoding: 8595 8595 205
Width: 386
VWidth: 839
Flags: W
LayerCount: 2
Fore
SplineSet
129 451 m 1,0,-1
 193 451 l 1,1,-1
 193 257 l 1,2,-1
 322 257 l 1,3,-1
 322 193 l 1,4,-1
 257 193 l 1,5,-1
 257 129 l 1,6,-1
 193 129 l 1,7,-1
 193 64 l 1,8,-1
 129 64 l 1,9,-1
 129 129 l 1,10,-1
 64 129 l 1,11,-1
 64 193 l 1,12,-1
 0 193 l 1,13,-1
 0 257 l 1,14,-1
 129 257 l 1,15,-1
 129 451 l 1,16,-1
 129 451 l 1,0,-1
EndSplineSet
EndChar

StartChar: uni22EF
Encoding: 8943 8943 206
Width: 514
VWidth: 839
Flags: W
LayerCount: 2
Fore
SplineSet
0 322 m 1,0,-1
 64 322 l 1,1,-1
 64 257 l 1,2,-1
 0 257 l 1,3,-1
 0 322 l 1,4,-1
 0 322 l 1,0,-1
193 322 m 1,5,-1
 257 322 l 1,6,-1
 257 257 l 1,7,-1
 193 257 l 1,8,-1
 193 322 l 1,9,-1
 193 322 l 1,5,-1
386 322 m 1,10,-1
 451 322 l 1,11,-1
 451 257 l 1,12,-1
 386 257 l 1,13,-1
 386 322 l 1,14,-1
 386 322 l 1,10,-1
EndSplineSet
EndChar

StartChar: H22073
Encoding: 9633 9633 207
Width: 386
VWidth: 839
Flags: W
LayerCount: 2
Fore
SplineSet
0 579 m 1,0,-1
 322 579 l 1,1,-1
 322 64 l 1,2,-1
 0 64 l 1,3,-1
 0 579 l 1,4,-1
 0 579 l 1,0,-1
64 515 m 1,5,-1
 64 129 l 1,6,-1
 257 129 l 1,7,-1
 257 515 l 1,8,-1
 64 515 l 1,9,-1
 64 515 l 1,5,-1
EndSplineSet
EndChar

StartChar: whiteuppointingtriangle
Encoding: 9651 9651 208
Width: 386
VWidth: 839
Flags: W
LayerCount: 2
Fore
SplineSet
129 579 m 1,0,-1
 193 579 l 1,1,-1
 193 515 l 1,2,-1
 129 515 l 1,3,-1
 129 579 l 1,4,-1
 129 579 l 1,0,-1
64 515 m 1,5,-1
 129 515 l 1,6,-1
 129 257 l 1,7,-1
 64 257 l 1,8,-1
 64 515 l 1,9,-1
 64 515 l 1,5,-1
193 515 m 1,10,-1
 257 515 l 1,11,-1
 257 257 l 1,12,-1
 193 257 l 1,13,-1
 193 515 l 1,14,-1
 193 515 l 1,10,-1
0 257 m 1,15,-1
 64 257 l 1,16,-1
 64 129 l 1,17,-1
 257 129 l 1,18,-1
 257 257 l 1,19,-1
 322 257 l 1,20,-1
 322 64 l 1,21,-1
 0 64 l 1,22,-1
 0 257 l 1,23,-1
 0 257 l 1,15,-1
EndSplineSet
EndChar

StartChar: blackrightpointingtriangle
Encoding: 9654 9654 209
Width: 386
VWidth: 839
Flags: W
LayerCount: 2
Fore
SplineSet
0 579 m 1,0,-1
 64 579 l 1,1,-1
 64 515 l 1,2,-1
 129 515 l 1,3,-1
 129 451 l 1,4,-1
 193 451 l 1,5,-1
 193 386 l 1,6,-1
 257 386 l 1,7,-1
 257 322 l 1,8,-1
 322 322 l 1,9,-1
 322 257 l 1,10,-1
 257 257 l 1,11,-1
 257 193 l 1,12,-1
 193 193 l 1,13,-1
 193 129 l 1,14,-1
 129 129 l 1,15,-1
 129 64 l 1,16,-1
 64 64 l 1,17,-1
 64 0 l 1,18,-1
 0 0 l 1,19,-1
 0 579 l 1,20,-1
 0 579 l 1,0,-1
EndSplineSet
EndChar

StartChar: whitediamond
Encoding: 9671 9671 210
Width: 386
VWidth: 839
Flags: W
LayerCount: 2
Fore
SplineSet
129 579 m 1,0,-1
 193 579 l 1,1,-1
 193 515 l 1,2,-1
 129 515 l 1,3,-1
 129 579 l 1,4,-1
 129 579 l 1,0,-1
64 515 m 1,5,-1
 129 515 l 1,6,-1
 129 386 l 1,7,-1
 64 386 l 1,8,-1
 64 515 l 1,9,-1
 64 515 l 1,5,-1
193 515 m 1,10,-1
 257 515 l 1,11,-1
 257 386 l 1,12,-1
 193 386 l 1,13,-1
 193 515 l 1,14,-1
 193 515 l 1,10,-1
0 386 m 1,15,-1
 64 386 l 1,16,-1
 64 257 l 1,17,-1
 0 257 l 1,18,-1
 0 386 l 1,19,-1
 0 386 l 1,15,-1
257 386 m 1,20,-1
 322 386 l 1,21,-1
 322 257 l 1,22,-1
 257 257 l 1,23,-1
 257 386 l 1,24,-1
 257 386 l 1,20,-1
64 257 m 1,25,-1
 129 257 l 1,26,-1
 129 129 l 1,27,-1
 64 129 l 1,28,-1
 64 257 l 1,29,-1
 64 257 l 1,25,-1
193 257 m 1,30,-1
 257 257 l 1,31,-1
 257 129 l 1,32,-1
 193 129 l 1,33,-1
 193 257 l 1,34,-1
 193 257 l 1,30,-1
129 129 m 1,35,-1
 193 129 l 1,36,-1
 193 64 l 1,37,-1
 129 64 l 1,38,-1
 129 129 l 1,39,-1
 129 129 l 1,35,-1
EndSplineSet
EndChar

StartChar: circle
Encoding: 9675 9675 211
Width: 386
VWidth: 839
Flags: W
LayerCount: 2
Fore
SplineSet
64 579 m 1,0,-1
 257 579 l 1,1,-1
 257 515 l 1,2,-1
 64 515 l 1,3,-1
 64 579 l 1,4,-1
 64 579 l 1,0,-1
0 515 m 1,5,-1
 64 515 l 1,6,-1
 64 64 l 1,7,-1
 0 64 l 1,8,-1
 0 515 l 1,9,-1
 0 515 l 1,5,-1
257 515 m 1,10,-1
 322 515 l 1,11,-1
 322 64 l 1,12,-1
 257 64 l 1,13,-1
 257 515 l 1,14,-1
 257 515 l 1,10,-1
64 64 m 1,15,-1
 257 64 l 1,16,-1
 257 0 l 1,17,-1
 64 0 l 1,18,-1
 64 64 l 1,19,-1
 64 64 l 1,15,-1
EndSplineSet
EndChar

StartChar: bullseye
Encoding: 9678 9678 212
Width: 386
VWidth: 839
Flags: W
LayerCount: 2
Fore
SplineSet
64 579 m 1,0,-1
 257 579 l 1,1,-1
 257 515 l 1,2,-1
 64 515 l 1,3,-1
 64 579 l 1,4,-1
 64 579 l 1,0,-1
0 515 m 1,5,-1
 64 515 l 1,6,-1
 64 64 l 1,7,-1
 0 64 l 1,8,-1
 0 515 l 1,9,-1
 0 515 l 1,5,-1
257 515 m 1,10,-1
 322 515 l 1,11,-1
 322 64 l 1,12,-1
 257 64 l 1,13,-1
 257 515 l 1,14,-1
 257 515 l 1,10,-1
129 386 m 1,15,-1
 193 386 l 1,16,-1
 193 193 l 1,17,-1
 129 193 l 1,18,-1
 129 386 l 1,19,-1
 129 386 l 1,15,-1
64 64 m 1,20,-1
 257 64 l 1,21,-1
 257 0 l 1,22,-1
 64 0 l 1,23,-1
 64 64 l 1,24,-1
 64 64 l 1,20,-1
EndSplineSet
EndChar

StartChar: uni2600
Encoding: 9728 9728 213
Width: 450
VWidth: 839
Flags: W
LayerCount: 2
Fore
SplineSet
64 515 m 1,0,-1
 129 515 l 1,1,-1
 129 451 l 1,2,-1
 64 451 l 1,3,-1
 64 515 l 1,4,-1
 64 515 l 1,0,-1
257 515 m 1,5,-1
 322 515 l 1,6,-1
 322 451 l 1,7,-1
 257 451 l 1,8,-1
 257 515 l 1,9,-1
 257 515 l 1,5,-1
129 386 m 1,10,-1
 257 386 l 1,11,-1
 257 193 l 1,12,-1
 129 193 l 1,13,-1
 129 386 l 1,14,-1
 129 386 l 1,10,-1
0 322 m 1,15,-1
 64 322 l 1,16,-1
 64 257 l 1,17,-1
 0 257 l 1,18,-1
 0 322 l 1,19,-1
 0 322 l 1,15,-1
322 322 m 1,20,-1
 386 322 l 1,21,-1
 386 257 l 1,22,-1
 322 257 l 1,23,-1
 322 322 l 1,24,-1
 322 322 l 1,20,-1
64 129 m 1,25,-1
 129 129 l 1,26,-1
 129 64 l 1,27,-1
 64 64 l 1,28,-1
 64 129 l 1,29,-1
 64 129 l 1,25,-1
257 129 m 1,30,-1
 322 129 l 1,31,-1
 322 64 l 1,32,-1
 257 64 l 1,33,-1
 257 129 l 1,34,-1
 257 129 l 1,30,-1
EndSplineSet
EndChar

StartChar: uni2601
Encoding: 9729 9729 214
Width: 386
VWidth: 839
Flags: W
LayerCount: 2
Fore
SplineSet
129 579 m 1,0,-1
 257 579 l 1,1,-1
 257 515 l 1,2,-1
 322 515 l 1,3,-1
 322 322 l 1,4,-1
 257 322 l 1,5,-1
 257 257 l 1,6,-1
 322 257 l 1,7,-1
 322 129 l 1,8,-1
 257 129 l 1,9,-1
 257 64 l 1,10,-1
 322 64 l 1,11,-1
 322 0 l 1,12,-1
 129 0 l 1,13,-1
 129 64 l 1,14,-1
 64 64 l 1,15,-1
 64 129 l 1,16,-1
 0 129 l 1,17,-1
 0 322 l 1,18,-1
 64 322 l 1,19,-1
 64 515 l 1,20,-1
 129 515 l 1,21,-1
 129 579 l 1,22,-1
 129 579 l 1,0,-1
EndSplineSet
EndChar

StartChar: uni2602
Encoding: 9730 9730 215
Width: 386
VWidth: 839
Flags: W
LayerCount: 2
Fore
SplineSet
129 579 m 1,0,-1
 193 579 l 1,1,-1
 193 515 l 1,2,-1
 257 515 l 1,3,-1
 257 386 l 1,4,-1
 322 386 l 1,5,-1
 322 193 l 1,6,-1
 257 193 l 1,7,-1
 257 257 l 1,8,-1
 193 257 l 1,9,-1
 193 64 l 1,10,-1
 129 64 l 1,11,-1
 129 257 l 1,12,-1
 64 257 l 1,13,-1
 64 193 l 1,14,-1
 0 193 l 1,15,-1
 0 386 l 1,16,-1
 64 386 l 1,17,-1
 64 515 l 1,18,-1
 129 515 l 1,19,-1
 129 579 l 1,20,-1
 129 579 l 1,0,-1
257 129 m 1,21,-1
 322 129 l 1,22,-1
 322 64 l 1,23,-1
 257 64 l 1,24,-1
 257 129 l 1,25,-1
 257 129 l 1,21,-1
193 64 m 1,26,-1
 257 64 l 1,27,-1
 257 0 l 1,28,-1
 193 0 l 1,29,-1
 193 64 l 1,30,-1
 193 64 l 1,26,-1
EndSplineSet
EndChar

StartChar: uni2603
Encoding: 9731 9731 216
Width: 386
VWidth: 839
Flags: W
LayerCount: 2
Fore
SplineSet
64 579 m 1,0,-1
 257 579 l 1,1,-1
 257 515 l 1,2,-1
 322 515 l 1,3,-1
 322 322 l 1,4,-1
 257 322 l 1,5,-1
 257 257 l 1,6,-1
 322 257 l 1,7,-1
 322 64 l 1,8,-1
 257 64 l 1,9,-1
 257 0 l 1,10,-1
 64 0 l 1,11,-1
 64 64 l 1,12,-1
 0 64 l 1,13,-1
 0 257 l 1,14,-1
 64 257 l 1,15,-1
 64 322 l 1,16,-1
 0 322 l 1,17,-1
 0 515 l 1,18,-1
 64 515 l 1,19,-1
 64 579 l 1,20,-1
 64 579 l 1,0,-1
EndSplineSet
EndChar

StartChar: blackstar
Encoding: 9733 9733 217
Width: 386
VWidth: 839
Flags: W
LayerCount: 2
Fore
SplineSet
129 579 m 1,0,-1
 193 579 l 1,1,-1
 193 451 l 1,2,-1
 322 451 l 1,3,-1
 322 386 l 1,4,-1
 257 386 l 1,5,-1
 257 322 l 1,6,-1
 193 322 l 1,7,-1
 193 257 l 1,8,-1
 257 257 l 1,9,-1
 257 64 l 1,10,-1
 193 64 l 1,11,-1
 193 129 l 1,12,-1
 129 129 l 1,13,-1
 129 64 l 1,14,-1
 64 64 l 1,15,-1
 64 257 l 1,16,-1
 129 257 l 1,17,-1
 129 322 l 1,18,-1
 64 322 l 1,19,-1
 64 386 l 1,20,-1
 0 386 l 1,21,-1
 0 451 l 1,22,-1
 129 451 l 1,23,-1
 129 579 l 1,24,-1
 129 579 l 1,0,-1
EndSplineSet
EndChar

StartChar: female
Encoding: 9792 9792 218
Width: 386
VWidth: 839
Flags: W
LayerCount: 2
Fore
SplineSet
64 579 m 1,0,-1
 257 579 l 1,1,-1
 257 515 l 1,2,-1
 64 515 l 1,3,-1
 64 579 l 1,4,-1
 64 579 l 1,0,-1
0 515 m 1,5,-1
 64 515 l 1,6,-1
 64 322 l 1,7,-1
 0 322 l 1,8,-1
 0 515 l 1,9,-1
 0 515 l 1,5,-1
257 515 m 1,10,-1
 322 515 l 1,11,-1
 322 322 l 1,12,-1
 257 322 l 1,13,-1
 257 515 l 1,14,-1
 257 515 l 1,10,-1
64 322 m 1,15,-1
 257 322 l 1,16,-1
 257 257 l 1,17,-1
 193 257 l 1,18,-1
 193 193 l 1,19,-1
 322 193 l 1,20,-1
 322 129 l 1,21,-1
 193 129 l 1,22,-1
 193 0 l 1,23,-1
 129 0 l 1,24,-1
 129 129 l 1,25,-1
 0 129 l 1,26,-1
 0 193 l 1,27,-1
 129 193 l 1,28,-1
 129 257 l 1,29,-1
 64 257 l 1,30,-1
 64 322 l 1,31,-1
 64 322 l 1,15,-1
EndSplineSet
EndChar

StartChar: male
Encoding: 9794 9794 219
Width: 386
VWidth: 839
Flags: W
LayerCount: 2
Fore
SplineSet
129 579 m 1,0,-1
 193 579 l 1,1,-1
 193 515 l 1,2,-1
 257 515 l 1,3,-1
 257 451 l 1,4,-1
 193 451 l 1,5,-1
 193 322 l 1,6,-1
 257 322 l 1,7,-1
 257 257 l 1,8,-1
 64 257 l 1,9,-1
 64 322 l 1,10,-1
 129 322 l 1,11,-1
 129 451 l 1,12,-1
 64 451 l 1,13,-1
 64 515 l 1,14,-1
 129 515 l 1,15,-1
 129 579 l 1,16,-1
 129 579 l 1,0,-1
0 451 m 1,17,-1
 64 451 l 1,18,-1
 64 386 l 1,19,-1
 0 386 l 1,20,-1
 0 451 l 1,21,-1
 0 451 l 1,17,-1
257 451 m 1,22,-1
 322 451 l 1,23,-1
 322 386 l 1,24,-1
 257 386 l 1,25,-1
 257 451 l 1,26,-1
 257 451 l 1,22,-1
0 257 m 1,27,-1
 64 257 l 1,28,-1
 64 64 l 1,29,-1
 0 64 l 1,30,-1
 0 257 l 1,31,-1
 0 257 l 1,27,-1
257 257 m 1,32,-1
 322 257 l 1,33,-1
 322 64 l 1,34,-1
 257 64 l 1,35,-1
 257 257 l 1,36,-1
 257 257 l 1,32,-1
64 64 m 1,37,-1
 257 64 l 1,38,-1
 257 0 l 1,39,-1
 64 0 l 1,40,-1
 64 64 l 1,41,-1
 64 64 l 1,37,-1
EndSplineSet
EndChar

StartChar: spade
Encoding: 9824 9824 220
Width: 386
VWidth: 839
Flags: W
LayerCount: 2
Fore
SplineSet
129 579 m 1,0,-1
 193 579 l 1,1,-1
 193 515 l 1,2,-1
 257 515 l 1,3,-1
 257 386 l 1,4,-1
 322 386 l 1,5,-1
 322 193 l 1,6,-1
 193 193 l 1,7,-1
 193 257 l 1,8,-1
 129 257 l 1,9,-1
 129 193 l 1,10,-1
 0 193 l 1,11,-1
 0 386 l 1,12,-1
 64 386 l 1,13,-1
 64 515 l 1,14,-1
 129 515 l 1,15,-1
 129 579 l 1,16,-1
 129 579 l 1,0,-1
129 193 m 1,17,-1
 193 193 l 1,18,-1
 193 129 l 1,19,-1
 257 129 l 1,20,-1
 257 64 l 1,21,-1
 64 64 l 1,22,-1
 64 129 l 1,23,-1
 129 129 l 1,24,-1
 129 193 l 1,25,-1
 129 193 l 1,17,-1
EndSplineSet
EndChar

StartChar: club
Encoding: 9827 9827 221
Width: 386
VWidth: 839
Flags: W
LayerCount: 2
Fore
SplineSet
64 579 m 1,0,-1
 257 579 l 1,1,-1
 257 386 l 1,2,-1
 322 386 l 1,3,-1
 322 193 l 1,4,-1
 193 193 l 1,5,-1
 193 257 l 1,6,-1
 129 257 l 1,7,-1
 129 193 l 1,8,-1
 0 193 l 1,9,-1
 0 386 l 1,10,-1
 64 386 l 1,11,-1
 64 579 l 1,12,-1
 64 579 l 1,0,-1
129 193 m 1,13,-1
 193 193 l 1,14,-1
 193 129 l 1,15,-1
 257 129 l 1,16,-1
 257 64 l 1,17,-1
 64 64 l 1,18,-1
 64 129 l 1,19,-1
 129 129 l 1,20,-1
 129 193 l 1,21,-1
 129 193 l 1,13,-1
EndSplineSet
EndChar

StartChar: heart
Encoding: 9829 9829 222
Width: 386
VWidth: 839
Flags: W
LayerCount: 2
Fore
SplineSet
64 579 m 1,0,-1
 129 579 l 1,1,-1
 129 451 l 1,2,-1
 193 451 l 1,3,-1
 193 579 l 1,4,-1
 257 579 l 1,5,-1
 257 515 l 1,6,-1
 322 515 l 1,7,-1
 322 322 l 1,8,-1
 257 322 l 1,9,-1
 257 193 l 1,10,-1
 193 193 l 1,11,-1
 193 64 l 1,12,-1
 129 64 l 1,13,-1
 129 193 l 1,14,-1
 64 193 l 1,15,-1
 64 322 l 1,16,-1
 0 322 l 1,17,-1
 0 515 l 1,18,-1
 64 515 l 1,19,-1
 64 579 l 1,20,-1
 64 579 l 1,0,-1
EndSplineSet
EndChar

StartChar: diamond
Encoding: 9830 9830 223
Width: 386
VWidth: 839
Flags: W
LayerCount: 2
Fore
SplineSet
129 579 m 1,0,-1
 193 579 l 1,1,-1
 193 515 l 1,2,-1
 257 515 l 1,3,-1
 257 386 l 1,4,-1
 322 386 l 1,5,-1
 322 257 l 1,6,-1
 257 257 l 1,7,-1
 257 129 l 1,8,-1
 193 129 l 1,9,-1
 193 64 l 1,10,-1
 129 64 l 1,11,-1
 129 129 l 1,12,-1
 64 129 l 1,13,-1
 64 257 l 1,14,-1
 0 257 l 1,15,-1
 0 386 l 1,16,-1
 64 386 l 1,17,-1
 64 515 l 1,18,-1
 129 515 l 1,19,-1
 129 579 l 1,20,-1
 129 579 l 1,0,-1
EndSplineSet
EndChar

StartChar: musicalnote
Encoding: 9834 9834 224
Width: 386
VWidth: 839
Flags: W
LayerCount: 2
Fore
SplineSet
129 644 m 1,0,-1
 193 644 l 1,1,-1
 193 579 l 1,2,-1
 257 579 l 1,3,-1
 257 515 l 1,4,-1
 322 515 l 1,5,-1
 322 322 l 1,6,-1
 257 322 l 1,7,-1
 257 451 l 1,8,-1
 193 451 l 1,9,-1
 193 64 l 1,10,-1
 129 64 l 1,11,-1
 129 0 l 1,12,-1
 64 0 l 1,13,-1
 64 64 l 1,14,-1
 0 64 l 1,15,-1
 0 193 l 1,16,-1
 129 193 l 1,17,-1
 129 644 l 1,18,-1
 129 644 l 1,0,-1
EndSplineSet
EndChar

StartChar: uni2709
Encoding: 9993 9993 225
Width: 708
VWidth: 839
Flags: W
LayerCount: 2
Fore
SplineSet
64 579 m 1,0,-1
 644 579 l 1,1,-1
 644 0 l 1,2,-1
 64 0 l 1,3,-1
 64 579 l 1,4,-1
 64 579 l 1,0,-1
129 515 m 1,5,-1
 129 451 l 1,6,-1
 193 451 l 1,7,-1
 193 386 l 1,8,-1
 257 386 l 1,9,-1
 257 322 l 1,10,-1
 451 322 l 1,11,-1
 451 386 l 1,12,-1
 515 386 l 1,13,-1
 515 451 l 1,14,-1
 579 451 l 1,15,-1
 579 515 l 1,16,-1
 129 515 l 1,17,-1
 129 515 l 1,5,-1
193 386 m 1,18,-1
 257 386 l 1,19,-1
 257 322 l 1,20,-1
 193 322 l 1,21,-1
 193 386 l 1,22,-1
 193 386 l 1,18,-1
451 386 m 1,23,-1
 515 386 l 1,24,-1
 515 322 l 1,25,-1
 451 322 l 1,26,-1
 451 386 l 1,27,-1
 451 386 l 1,23,-1
257 322 m 1,28,-1
 451 322 l 1,29,-1
 451 257 l 1,30,-1
 257 257 l 1,31,-1
 257 322 l 1,32,-1
 257 322 l 1,28,-1
EndSplineSet
EndChar

StartChar: uni2934
Encoding: 10548 10548 226
Width: 386
VWidth: 839
Flags: W
LayerCount: 2
Fore
SplineSet
129 579 m 1,0,-1
 193 579 l 1,1,-1
 193 515 l 1,2,-1
 257 515 l 1,3,-1
 257 451 l 1,4,-1
 322 451 l 1,5,-1
 322 386 l 1,6,-1
 193 386 l 1,7,-1
 193 129 l 1,8,-1
 129 129 l 1,9,-1
 129 386 l 1,10,-1
 0 386 l 1,11,-1
 0 451 l 1,12,-1
 64 451 l 1,13,-1
 64 515 l 1,14,-1
 129 515 l 1,15,-1
 129 579 l 1,16,-1
 129 579 l 1,0,-1
64 129 m 1,17,-1
 129 129 l 1,18,-1
 129 64 l 1,19,-1
 64 64 l 1,20,-1
 64 129 l 1,21,-1
 64 129 l 1,17,-1
0 64 m 1,22,-1
 64 64 l 1,23,-1
 64 0 l 1,24,-1
 0 0 l 1,25,-1
 0 64 l 1,26,-1
 0 64 l 1,22,-1
EndSplineSet
EndChar

StartChar: uni2935
Encoding: 10549 10549 227
Width: 386
VWidth: 839
Flags: W
LayerCount: 2
Fore
SplineSet
0 579 m 1,0,-1
 64 579 l 1,1,-1
 64 515 l 1,2,-1
 0 515 l 1,3,-1
 0 579 l 1,4,-1
 0 579 l 1,0,-1
64 515 m 1,5,-1
 129 515 l 1,6,-1
 129 451 l 1,7,-1
 64 451 l 1,8,-1
 64 515 l 1,9,-1
 64 515 l 1,5,-1
129 451 m 1,10,-1
 193 451 l 1,11,-1
 193 193 l 1,12,-1
 322 193 l 1,13,-1
 322 129 l 1,14,-1
 257 129 l 1,15,-1
 257 64 l 1,16,-1
 193 64 l 1,17,-1
 193 0 l 1,18,-1
 129 0 l 1,19,-1
 129 64 l 1,20,-1
 64 64 l 1,21,-1
 64 129 l 1,22,-1
 0 129 l 1,23,-1
 0 193 l 1,24,-1
 129 193 l 1,25,-1
 129 451 l 1,26,-1
 129 451 l 1,10,-1
EndSplineSet
EndChar

StartChar: ideographiccomma
Encoding: 12289 12289 229
Width: 579
VWidth: 839
Flags: W
LayerCount: 2
Fore
SplineSet
64 129 m 1,0,-1
 129 129 l 1,1,-1
 129 64 l 1,2,-1
 64 64 l 1,3,-1
 64 129 l 1,4,-1
 64 129 l 1,0,-1
129 64 m 1,5,-1
 193 64 l 1,6,-1
 193 0 l 1,7,-1
 129 0 l 1,8,-1
 129 64 l 1,9,-1
 129 64 l 1,5,-1
EndSplineSet
EndChar

StartChar: ideographicperiod
Encoding: 12290 12290 230
Width: 643
VWidth: 839
Flags: W
LayerCount: 2
Fore
SplineSet
64 193 m 1,0,-1
 257 193 l 1,1,-1
 257 0 l 1,2,-1
 64 0 l 1,3,-1
 64 193 l 1,4,-1
 64 193 l 1,0,-1
129 129 m 1,5,-1
 129 64 l 1,6,-1
 193 64 l 1,7,-1
 193 129 l 1,8,-1
 129 129 l 1,9,-1
 129 129 l 1,5,-1
EndSplineSet
EndChar

StartChar: cornerbracketleft
Encoding: 12300 12300 231
Width: 386
VWidth: 839
Flags: W
LayerCount: 2
Fore
SplineSet
64 644 m 1,0,-1
 322 644 l 1,1,-1
 322 579 l 1,2,-1
 129 579 l 1,3,-1
 129 193 l 1,4,-1
 64 193 l 1,5,-1
 64 644 l 1,6,-1
 64 644 l 1,0,-1
EndSplineSet
EndChar

StartChar: cornerbracketright
Encoding: 12301 12301 232
Width: 386
VWidth: 839
Flags: W
LayerCount: 2
Fore
SplineSet
257 386 m 1,0,-1
 322 386 l 1,1,-1
 322 -64 l 1,2,-1
 64 -64 l 1,3,-1
 64 0 l 1,4,-1
 257 0 l 1,5,-1
 257 386 l 1,6,-1
 257 386 l 1,0,-1
EndSplineSet
EndChar

StartChar: whitecornerbracketleft
Encoding: 12302 12302 233
Width: 450
VWidth: 839
Flags: W
LayerCount: 2
Fore
SplineSet
64 644 m 1,0,-1
 386 644 l 1,1,-1
 386 451 l 1,2,-1
 257 451 l 1,3,-1
 257 129 l 1,4,-1
 64 129 l 1,5,-1
 64 644 l 1,6,-1
 64 644 l 1,0,-1
129 579 m 1,7,-1
 129 193 l 1,8,-1
 193 193 l 1,9,-1
 193 515 l 1,10,-1
 322 515 l 1,11,-1
 322 579 l 1,12,-1
 129 579 l 1,13,-1
 129 579 l 1,7,-1
EndSplineSet
EndChar

StartChar: whitecornerbracketright
Encoding: 12303 12303 234
Width: 450
VWidth: 839
Flags: W
LayerCount: 2
Fore
SplineSet
193 451 m 1,0,-1
 386 451 l 1,1,-1
 386 -64 l 1,2,-1
 64 -64 l 1,3,-1
 64 129 l 1,4,-1
 193 129 l 1,5,-1
 193 451 l 1,6,-1
 193 451 l 1,0,-1
257 386 m 1,7,-1
 257 64 l 1,8,-1
 129 64 l 1,9,-1
 129 0 l 1,10,-1
 322 0 l 1,11,-1
 322 386 l 1,12,-1
 257 386 l 1,13,-1
 257 386 l 1,7,-1
EndSplineSet
EndChar

StartChar: asmallhiragana
Encoding: 12353 12353 235
Width: 579
VWidth: 839
Flags: W
LayerCount: 2
Fore
SplineSet
193 451 m 1,0,-1
 257 451 l 1,1,-1
 257 386 l 1,2,-1
 451 386 l 1,3,-1
 451 322 l 1,4,-1
 257 322 l 1,5,-1
 257 257 l 1,6,-1
 451 257 l 1,7,-1
 451 193 l 1,8,-1
 386 193 l 1,9,-1
 386 64 l 1,10,-1
 257 64 l 1,11,-1
 257 129 l 1,12,-1
 322 129 l 1,13,-1
 322 193 l 1,14,-1
 257 193 l 1,15,-1
 257 129 l 1,16,-1
 193 129 l 1,17,-1
 193 193 l 1,18,-1
 129 193 l 1,19,-1
 129 257 l 1,20,-1
 193 257 l 1,21,-1
 193 322 l 1,22,-1
 64 322 l 1,23,-1
 64 386 l 1,24,-1
 193 386 l 1,25,-1
 193 451 l 1,26,-1
 193 451 l 1,0,-1
64 193 m 1,27,-1
 129 193 l 1,28,-1
 129 64 l 1,29,-1
 64 64 l 1,30,-1
 64 193 l 1,31,-1
 64 193 l 1,27,-1
451 193 m 1,32,-1
 515 193 l 1,33,-1
 515 64 l 1,34,-1
 451 64 l 1,35,-1
 451 193 l 1,36,-1
 451 193 l 1,32,-1
129 64 m 1,37,-1
 257 64 l 1,38,-1
 257 0 l 1,39,-1
 129 0 l 1,40,-1
 129 64 l 1,41,-1
 129 64 l 1,37,-1
386 64 m 1,42,-1
 451 64 l 1,43,-1
 451 0 l 1,44,-1
 386 0 l 1,45,-1
 386 64 l 1,46,-1
 386 64 l 1,42,-1
EndSplineSet
EndChar

StartChar: ahiragana
Encoding: 12354 12354 236
Width: 643
VWidth: 839
Flags: W
LayerCount: 2
Fore
SplineSet
193 644 m 1,0,-1
 257 644 l 1,1,-1
 257 515 l 1,2,-1
 515 515 l 1,3,-1
 515 451 l 1,4,-1
 257 451 l 1,5,-1
 257 386 l 1,6,-1
 451 386 l 1,7,-1
 451 322 l 1,8,-1
 386 322 l 1,9,-1
 386 129 l 1,10,-1
 322 129 l 1,11,-1
 322 322 l 1,12,-1
 257 322 l 1,13,-1
 257 129 l 1,14,-1
 193 129 l 1,15,-1
 193 322 l 1,16,-1
 129 322 l 1,17,-1
 129 386 l 1,18,-1
 193 386 l 1,19,-1
 193 451 l 1,20,-1
 0 451 l 1,21,-1
 0 515 l 1,22,-1
 193 515 l 1,23,-1
 193 644 l 1,24,-1
 193 644 l 1,0,-1
64 322 m 1,25,-1
 129 322 l 1,26,-1
 129 257 l 1,27,-1
 64 257 l 1,28,-1
 64 322 l 1,29,-1
 64 322 l 1,25,-1
451 322 m 1,30,-1
 515 322 l 1,31,-1
 515 257 l 1,32,-1
 451 257 l 1,33,-1
 451 322 l 1,34,-1
 451 322 l 1,30,-1
0 257 m 1,35,-1
 64 257 l 1,36,-1
 64 129 l 1,37,-1
 0 129 l 1,38,-1
 0 257 l 1,39,-1
 0 257 l 1,35,-1
515 257 m 1,40,-1
 579 257 l 1,41,-1
 579 64 l 1,42,-1
 515 64 l 1,43,-1
 515 257 l 1,44,-1
 515 257 l 1,40,-1
64 129 m 1,45,-1
 129 129 l 1,46,-1
 129 64 l 1,47,-1
 64 64 l 1,48,-1
 64 129 l 1,49,-1
 64 129 l 1,45,-1
257 129 m 1,50,-1
 322 129 l 1,51,-1
 322 64 l 1,52,-1
 257 64 l 1,53,-1
 257 129 l 1,54,-1
 257 129 l 1,50,-1
129 64 m 1,55,-1
 257 64 l 1,56,-1
 257 0 l 1,57,-1
 129 0 l 1,58,-1
 129 64 l 1,59,-1
 129 64 l 1,55,-1
451 64 m 1,60,-1
 515 64 l 1,61,-1
 515 0 l 1,62,-1
 451 0 l 1,63,-1
 451 64 l 1,64,-1
 451 64 l 1,60,-1
EndSplineSet
EndChar

StartChar: ismallhiragana
Encoding: 12355 12355 237
Width: 579
VWidth: 839
Flags: W
LayerCount: 2
Fore
SplineSet
64 386 m 1,0,-1
 129 386 l 1,1,-1
 129 64 l 1,2,-1
 64 64 l 1,3,-1
 64 386 l 1,4,-1
 64 386 l 1,0,-1
386 386 m 1,5,-1
 451 386 l 1,6,-1
 451 322 l 1,7,-1
 386 322 l 1,8,-1
 386 386 l 1,9,-1
 386 386 l 1,5,-1
451 322 m 1,10,-1
 515 322 l 1,11,-1
 515 129 l 1,12,-1
 451 129 l 1,13,-1
 451 322 l 1,14,-1
 451 322 l 1,10,-1
257 129 m 1,15,-1
 322 129 l 1,16,-1
 322 64 l 1,17,-1
 257 64 l 1,18,-1
 257 129 l 1,19,-1
 257 129 l 1,15,-1
129 64 m 1,20,-1
 257 64 l 1,21,-1
 257 0 l 1,22,-1
 129 0 l 1,23,-1
 129 64 l 1,24,-1
 129 64 l 1,20,-1
EndSplineSet
EndChar

StartChar: ihiragana
Encoding: 12356 12356 238
Width: 643
VWidth: 839
Flags: W
LayerCount: 2
Fore
SplineSet
451 579 m 1,0,-1
 515 579 l 1,1,-1
 515 451 l 1,2,-1
 451 451 l 1,3,-1
 451 579 l 1,4,-1
 451 579 l 1,0,-1
0 515 m 1,5,-1
 64 515 l 1,6,-1
 64 129 l 1,7,-1
 0 129 l 1,8,-1
 0 515 l 1,9,-1
 0 515 l 1,5,-1
515 451 m 1,10,-1
 579 451 l 1,11,-1
 579 193 l 1,12,-1
 515 193 l 1,13,-1
 515 451 l 1,14,-1
 515 451 l 1,10,-1
64 129 m 1,15,-1
 129 129 l 1,16,-1
 129 64 l 1,17,-1
 64 64 l 1,18,-1
 64 129 l 1,19,-1
 64 129 l 1,15,-1
257 129 m 1,20,-1
 322 129 l 1,21,-1
 322 64 l 1,22,-1
 257 64 l 1,23,-1
 257 129 l 1,24,-1
 257 129 l 1,20,-1
129 64 m 1,25,-1
 257 64 l 1,26,-1
 257 0 l 1,27,-1
 129 0 l 1,28,-1
 129 64 l 1,29,-1
 129 64 l 1,25,-1
EndSplineSet
EndChar

StartChar: usmallhiragana
Encoding: 12357 12357 239
Width: 514
VWidth: 839
Flags: W
LayerCount: 2
Fore
SplineSet
129 451 m 1,0,-1
 322 451 l 1,1,-1
 322 386 l 1,2,-1
 129 386 l 1,3,-1
 129 451 l 1,4,-1
 129 451 l 1,0,-1
64 322 m 1,5,-1
 386 322 l 1,6,-1
 386 257 l 1,7,-1
 64 257 l 1,8,-1
 64 322 l 1,9,-1
 64 322 l 1,5,-1
386 257 m 1,10,-1
 451 257 l 1,11,-1
 451 64 l 1,12,-1
 386 64 l 1,13,-1
 386 257 l 1,14,-1
 386 257 l 1,10,-1
129 64 m 1,15,-1
 386 64 l 1,16,-1
 386 0 l 1,17,-1
 129 0 l 1,18,-1
 129 64 l 1,19,-1
 129 64 l 1,15,-1
EndSplineSet
EndChar

StartChar: uhiragana
Encoding: 12358 12358 240
Width: 643
VWidth: 839
Flags: W
LayerCount: 2
Fore
SplineSet
129 644 m 1,0,-1
 322 644 l 1,1,-1
 322 579 l 1,2,-1
 129 579 l 1,3,-1
 129 644 l 1,4,-1
 129 644 l 1,0,-1
322 579 m 1,5,-1
 451 579 l 1,6,-1
 451 515 l 1,7,-1
 322 515 l 1,8,-1
 322 579 l 1,9,-1
 322 579 l 1,5,-1
129 451 m 1,10,-1
 515 451 l 1,11,-1
 515 386 l 1,12,-1
 129 386 l 1,13,-1
 129 451 l 1,14,-1
 129 451 l 1,10,-1
64 386 m 1,15,-1
 129 386 l 1,16,-1
 129 322 l 1,17,-1
 64 322 l 1,18,-1
 64 386 l 1,19,-1
 64 386 l 1,15,-1
515 386 m 1,20,-1
 579 386 l 1,21,-1
 579 129 l 1,22,-1
 515 129 l 1,23,-1
 515 386 l 1,24,-1
 515 386 l 1,20,-1
451 129 m 1,25,-1
 515 129 l 1,26,-1
 515 64 l 1,27,-1
 451 64 l 1,28,-1
 451 129 l 1,29,-1
 451 129 l 1,25,-1
193 64 m 1,30,-1
 451 64 l 1,31,-1
 451 0 l 1,32,-1
 193 0 l 1,33,-1
 193 64 l 1,34,-1
 193 64 l 1,30,-1
EndSplineSet
EndChar

StartChar: esmallhiragana
Encoding: 12359 12359 241
Width: 579
VWidth: 839
Flags: W
LayerCount: 2
Fore
SplineSet
193 451 m 1,0,-1
 322 451 l 1,1,-1
 322 386 l 1,2,-1
 193 386 l 1,3,-1
 193 451 l 1,4,-1
 193 451 l 1,0,-1
64 322 m 1,5,-1
 451 322 l 1,6,-1
 451 257 l 1,7,-1
 386 257 l 1,8,-1
 386 193 l 1,9,-1
 257 193 l 1,10,-1
 257 257 l 1,11,-1
 64 257 l 1,12,-1
 64 322 l 1,13,-1
 64 322 l 1,5,-1
193 193 m 1,14,-1
 257 193 l 1,15,-1
 257 129 l 1,16,-1
 193 129 l 1,17,-1
 193 193 l 1,18,-1
 193 193 l 1,14,-1
129 129 m 1,19,-1
 193 129 l 1,20,-1
 193 64 l 1,21,-1
 129 64 l 1,22,-1
 129 129 l 1,23,-1
 129 129 l 1,19,-1
257 129 m 1,24,-1
 386 129 l 1,25,-1
 386 64 l 1,26,-1
 257 64 l 1,27,-1
 257 129 l 1,28,-1
 257 129 l 1,24,-1
64 64 m 1,29,-1
 129 64 l 1,30,-1
 129 0 l 1,31,-1
 64 0 l 1,32,-1
 64 64 l 1,33,-1
 64 64 l 1,29,-1
386 64 m 1,34,-1
 515 64 l 1,35,-1
 515 0 l 1,36,-1
 386 0 l 1,37,-1
 386 64 l 1,38,-1
 386 64 l 1,34,-1
EndSplineSet
EndChar

StartChar: ehiragana
Encoding: 12360 12360 242
Width: 643
VWidth: 839
Flags: W
LayerCount: 2
Fore
SplineSet
129 579 m 1,0,-1
 386 579 l 1,1,-1
 386 515 l 1,2,-1
 129 515 l 1,3,-1
 129 579 l 1,4,-1
 129 579 l 1,0,-1
64 451 m 1,5,-1
 515 451 l 1,6,-1
 515 386 l 1,7,-1
 451 386 l 1,8,-1
 451 322 l 1,9,-1
 386 322 l 1,10,-1
 386 386 l 1,11,-1
 64 386 l 1,12,-1
 64 451 l 1,13,-1
 64 451 l 1,5,-1
322 322 m 1,14,-1
 386 322 l 1,15,-1
 386 257 l 1,16,-1
 322 257 l 1,17,-1
 322 322 l 1,18,-1
 322 322 l 1,14,-1
257 257 m 1,19,-1
 322 257 l 1,20,-1
 322 193 l 1,21,-1
 386 193 l 1,22,-1
 386 64 l 1,23,-1
 322 64 l 1,24,-1
 322 129 l 1,25,-1
 193 129 l 1,26,-1
 193 193 l 1,27,-1
 257 193 l 1,28,-1
 257 257 l 1,29,-1
 257 257 l 1,19,-1
129 129 m 1,30,-1
 193 129 l 1,31,-1
 193 64 l 1,32,-1
 129 64 l 1,33,-1
 129 129 l 1,34,-1
 129 129 l 1,30,-1
0 64 m 1,35,-1
 129 64 l 1,36,-1
 129 0 l 1,37,-1
 0 0 l 1,38,-1
 0 64 l 1,39,-1
 0 64 l 1,35,-1
386 64 m 1,40,-1
 579 64 l 1,41,-1
 579 0 l 1,42,-1
 386 0 l 1,43,-1
 386 64 l 1,44,-1
 386 64 l 1,40,-1
EndSplineSet
EndChar

StartChar: osmallhiragana
Encoding: 12361 12361 243
Width: 579
VWidth: 839
Flags: W
LayerCount: 2
Fore
SplineSet
257 451 m 1,0,-1
 322 451 l 1,1,-1
 322 386 l 1,2,-1
 386 386 l 1,3,-1
 386 322 l 1,4,-1
 322 322 l 1,5,-1
 322 257 l 1,6,-1
 451 257 l 1,7,-1
 451 193 l 1,8,-1
 322 193 l 1,9,-1
 322 0 l 1,10,-1
 129 0 l 1,11,-1
 129 64 l 1,12,-1
 257 64 l 1,13,-1
 257 193 l 1,14,-1
 129 193 l 1,15,-1
 129 257 l 1,16,-1
 257 257 l 1,17,-1
 257 322 l 1,18,-1
 129 322 l 1,19,-1
 129 386 l 1,20,-1
 257 386 l 1,21,-1
 257 451 l 1,22,-1
 257 451 l 1,0,-1
386 451 m 1,23,-1
 451 451 l 1,24,-1
 451 386 l 1,25,-1
 386 386 l 1,26,-1
 386 451 l 1,27,-1
 386 451 l 1,23,-1
451 386 m 1,28,-1
 515 386 l 1,29,-1
 515 257 l 1,30,-1
 451 257 l 1,31,-1
 451 386 l 1,32,-1
 451 386 l 1,28,-1
64 193 m 1,33,-1
 129 193 l 1,34,-1
 129 64 l 1,35,-1
 64 64 l 1,36,-1
 64 193 l 1,37,-1
 64 193 l 1,33,-1
451 193 m 1,38,-1
 515 193 l 1,39,-1
 515 64 l 1,40,-1
 451 64 l 1,41,-1
 451 193 l 1,42,-1
 451 193 l 1,38,-1
386 64 m 1,43,-1
 451 64 l 1,44,-1
 451 0 l 1,45,-1
 386 0 l 1,46,-1
 386 64 l 1,47,-1
 386 64 l 1,43,-1
EndSplineSet
EndChar

StartChar: ohiragana
Encoding: 12362 12362 244
Width: 643
VWidth: 839
Flags: W
LayerCount: 2
Fore
SplineSet
193 644 m 1,0,-1
 257 644 l 1,1,-1
 257 515 l 1,2,-1
 386 515 l 1,3,-1
 386 451 l 1,4,-1
 257 451 l 1,5,-1
 257 386 l 1,6,-1
 451 386 l 1,7,-1
 451 322 l 1,8,-1
 257 322 l 1,9,-1
 257 0 l 1,10,-1
 129 0 l 1,11,-1
 129 64 l 1,12,-1
 193 64 l 1,13,-1
 193 322 l 1,14,-1
 129 322 l 1,15,-1
 129 386 l 1,16,-1
 193 386 l 1,17,-1
 193 451 l 1,18,-1
 0 451 l 1,19,-1
 0 515 l 1,20,-1
 193 515 l 1,21,-1
 193 644 l 1,22,-1
 193 644 l 1,0,-1
451 579 m 1,23,-1
 515 579 l 1,24,-1
 515 515 l 1,25,-1
 451 515 l 1,26,-1
 451 579 l 1,27,-1
 451 579 l 1,23,-1
515 515 m 1,28,-1
 579 515 l 1,29,-1
 579 386 l 1,30,-1
 515 386 l 1,31,-1
 515 515 l 1,32,-1
 515 515 l 1,28,-1
64 322 m 1,33,-1
 129 322 l 1,34,-1
 129 257 l 1,35,-1
 64 257 l 1,36,-1
 64 322 l 1,37,-1
 64 322 l 1,33,-1
451 322 m 1,38,-1
 515 322 l 1,39,-1
 515 257 l 1,40,-1
 451 257 l 1,41,-1
 451 322 l 1,42,-1
 451 322 l 1,38,-1
0 257 m 1,43,-1
 64 257 l 1,44,-1
 64 129 l 1,45,-1
 0 129 l 1,46,-1
 0 257 l 1,47,-1
 0 257 l 1,43,-1
515 257 m 1,48,-1
 579 257 l 1,49,-1
 579 64 l 1,50,-1
 515 64 l 1,51,-1
 515 257 l 1,52,-1
 515 257 l 1,48,-1
64 129 m 1,53,-1
 129 129 l 1,54,-1
 129 64 l 1,55,-1
 64 64 l 1,56,-1
 64 129 l 1,57,-1
 64 129 l 1,53,-1
451 64 m 1,58,-1
 515 64 l 1,59,-1
 515 0 l 1,60,-1
 451 0 l 1,61,-1
 451 64 l 1,62,-1
 451 64 l 1,58,-1
EndSplineSet
EndChar

StartChar: kahiragana
Encoding: 12363 12363 245
Width: 708
VWidth: 839
Flags: W
LayerCount: 2
Fore
SplineSet
193 644 m 1,0,-1
 257 644 l 1,1,-1
 257 515 l 1,2,-1
 386 515 l 1,3,-1
 386 451 l 1,4,-1
 193 451 l 1,5,-1
 193 257 l 1,6,-1
 129 257 l 1,7,-1
 129 451 l 1,8,-1
 0 451 l 1,9,-1
 0 515 l 1,10,-1
 193 515 l 1,11,-1
 193 644 l 1,12,-1
 193 644 l 1,0,-1
515 515 m 1,13,-1
 579 515 l 1,14,-1
 579 451 l 1,15,-1
 515 451 l 1,16,-1
 515 515 l 1,17,-1
 515 515 l 1,13,-1
386 451 m 1,18,-1
 451 451 l 1,19,-1
 451 64 l 1,20,-1
 386 64 l 1,21,-1
 386 451 l 1,22,-1
 386 451 l 1,18,-1
579 451 m 1,23,-1
 644 451 l 1,24,-1
 644 193 l 1,25,-1
 579 193 l 1,26,-1
 579 451 l 1,27,-1
 579 451 l 1,23,-1
64 257 m 1,28,-1
 129 257 l 1,29,-1
 129 129 l 1,30,-1
 64 129 l 1,31,-1
 64 257 l 1,32,-1
 64 257 l 1,28,-1
257 64 m 1,33,-1
 386 64 l 1,34,-1
 386 0 l 1,35,-1
 257 0 l 1,36,-1
 257 64 l 1,37,-1
 257 64 l 1,33,-1
EndSplineSet
EndChar

StartChar: gahiragana
Encoding: 12364 12364 246
Width: 708
VWidth: 839
Flags: W
LayerCount: 2
Fore
SplineSet
193 644 m 1,0,-1
 257 644 l 1,1,-1
 257 515 l 1,2,-1
 386 515 l 1,3,-1
 386 451 l 1,4,-1
 193 451 l 1,5,-1
 193 257 l 1,6,-1
 129 257 l 1,7,-1
 129 451 l 1,8,-1
 0 451 l 1,9,-1
 0 515 l 1,10,-1
 193 515 l 1,11,-1
 193 644 l 1,12,-1
 193 644 l 1,0,-1
451 644 m 1,13,-1
 515 644 l 1,14,-1
 515 515 l 1,15,-1
 451 515 l 1,16,-1
 451 644 l 1,17,-1
 451 644 l 1,13,-1
579 644 m 1,18,-1
 644 644 l 1,19,-1
 644 515 l 1,20,-1
 579 515 l 1,21,-1
 579 644 l 1,22,-1
 579 644 l 1,18,-1
515 515 m 1,23,-1
 579 515 l 1,24,-1
 579 451 l 1,25,-1
 515 451 l 1,26,-1
 515 515 l 1,27,-1
 515 515 l 1,23,-1
386 451 m 1,28,-1
 451 451 l 1,29,-1
 451 64 l 1,30,-1
 386 64 l 1,31,-1
 386 451 l 1,32,-1
 386 451 l 1,28,-1
579 451 m 1,33,-1
 644 451 l 1,34,-1
 644 193 l 1,35,-1
 579 193 l 1,36,-1
 579 451 l 1,37,-1
 579 451 l 1,33,-1
64 257 m 1,38,-1
 129 257 l 1,39,-1
 129 129 l 1,40,-1
 64 129 l 1,41,-1
 64 257 l 1,42,-1
 64 257 l 1,38,-1
257 64 m 1,43,-1
 386 64 l 1,44,-1
 386 0 l 1,45,-1
 257 0 l 1,46,-1
 257 64 l 1,47,-1
 257 64 l 1,43,-1
EndSplineSet
EndChar

StartChar: kihiragana
Encoding: 12365 12365 247
Width: 579
VWidth: 839
Flags: W
LayerCount: 2
Fore
SplineSet
257 644 m 1,0,-1
 322 644 l 1,1,-1
 322 515 l 1,2,-1
 451 515 l 1,3,-1
 451 451 l 1,4,-1
 386 451 l 1,5,-1
 386 386 l 1,6,-1
 515 386 l 1,7,-1
 515 322 l 1,8,-1
 386 322 l 1,9,-1
 386 257 l 1,10,-1
 451 257 l 1,11,-1
 451 193 l 1,12,-1
 129 193 l 1,13,-1
 129 257 l 1,14,-1
 322 257 l 1,15,-1
 322 322 l 1,16,-1
 64 322 l 1,17,-1
 64 386 l 1,18,-1
 322 386 l 1,19,-1
 322 451 l 1,20,-1
 0 451 l 1,21,-1
 0 515 l 1,22,-1
 257 515 l 1,23,-1
 257 644 l 1,24,-1
 257 644 l 1,0,-1
64 193 m 1,25,-1
 129 193 l 1,26,-1
 129 64 l 1,27,-1
 64 64 l 1,28,-1
 64 193 l 1,29,-1
 64 193 l 1,25,-1
129 64 m 1,30,-1
 386 64 l 1,31,-1
 386 0 l 1,32,-1
 129 0 l 1,33,-1
 129 64 l 1,34,-1
 129 64 l 1,30,-1
EndSplineSet
EndChar

StartChar: gihiragana
Encoding: 12366 12366 248
Width: 708
VWidth: 839
Flags: W
LayerCount: 2
Fore
SplineSet
257 644 m 1,0,-1
 322 644 l 1,1,-1
 322 515 l 1,2,-1
 451 515 l 1,3,-1
 451 451 l 1,4,-1
 386 451 l 1,5,-1
 386 386 l 1,6,-1
 515 386 l 1,7,-1
 515 322 l 1,8,-1
 386 322 l 1,9,-1
 386 257 l 1,10,-1
 451 257 l 1,11,-1
 451 193 l 1,12,-1
 129 193 l 1,13,-1
 129 257 l 1,14,-1
 322 257 l 1,15,-1
 322 322 l 1,16,-1
 64 322 l 1,17,-1
 64 386 l 1,18,-1
 322 386 l 1,19,-1
 322 451 l 1,20,-1
 0 451 l 1,21,-1
 0 515 l 1,22,-1
 257 515 l 1,23,-1
 257 644 l 1,24,-1
 257 644 l 1,0,-1
451 644 m 1,25,-1
 515 644 l 1,26,-1
 515 515 l 1,27,-1
 451 515 l 1,28,-1
 451 644 l 1,29,-1
 451 644 l 1,25,-1
579 644 m 1,30,-1
 644 644 l 1,31,-1
 644 515 l 1,32,-1
 579 515 l 1,33,-1
 579 644 l 1,34,-1
 579 644 l 1,30,-1
64 193 m 1,35,-1
 129 193 l 1,36,-1
 129 64 l 1,37,-1
 64 64 l 1,38,-1
 64 193 l 1,39,-1
 64 193 l 1,35,-1
129 64 m 1,40,-1
 386 64 l 1,41,-1
 386 0 l 1,42,-1
 129 0 l 1,43,-1
 129 64 l 1,44,-1
 129 64 l 1,40,-1
EndSplineSet
EndChar

StartChar: kuhiragana
Encoding: 12367 12367 249
Width: 579
VWidth: 839
Flags: W
LayerCount: 2
Fore
SplineSet
451 579 m 1,0,-1
 515 579 l 1,1,-1
 515 515 l 1,2,-1
 451 515 l 1,3,-1
 451 579 l 1,4,-1
 451 579 l 1,0,-1
322 515 m 1,5,-1
 451 515 l 1,6,-1
 451 451 l 1,7,-1
 322 451 l 1,8,-1
 322 515 l 1,9,-1
 322 515 l 1,5,-1
193 451 m 1,10,-1
 322 451 l 1,11,-1
 322 386 l 1,12,-1
 193 386 l 1,13,-1
 193 451 l 1,14,-1
 193 451 l 1,10,-1
64 386 m 1,15,-1
 193 386 l 1,16,-1
 193 322 l 1,17,-1
 129 322 l 1,18,-1
 129 257 l 1,19,-1
 193 257 l 1,20,-1
 193 193 l 1,21,-1
 64 193 l 1,22,-1
 64 257 l 1,23,-1
 0 257 l 1,24,-1
 0 322 l 1,25,-1
 64 322 l 1,26,-1
 64 386 l 1,27,-1
 64 386 l 1,15,-1
193 193 m 1,28,-1
 322 193 l 1,29,-1
 322 129 l 1,30,-1
 193 129 l 1,31,-1
 193 193 l 1,32,-1
 193 193 l 1,28,-1
322 129 m 1,33,-1
 451 129 l 1,34,-1
 451 64 l 1,35,-1
 322 64 l 1,36,-1
 322 129 l 1,37,-1
 322 129 l 1,33,-1
451 64 m 1,38,-1
 515 64 l 1,39,-1
 515 0 l 1,40,-1
 451 0 l 1,41,-1
 451 64 l 1,42,-1
 451 64 l 1,38,-1
EndSplineSet
EndChar

StartChar: guhiragana
Encoding: 12368 12368 250
Width: 708
VWidth: 839
Flags: W
LayerCount: 2
Fore
SplineSet
451 644 m 1,0,-1
 515 644 l 1,1,-1
 515 515 l 1,2,-1
 451 515 l 1,3,-1
 451 644 l 1,4,-1
 451 644 l 1,0,-1
579 644 m 1,5,-1
 644 644 l 1,6,-1
 644 515 l 1,7,-1
 579 515 l 1,8,-1
 579 644 l 1,9,-1
 579 644 l 1,5,-1
322 515 m 1,10,-1
 451 515 l 1,11,-1
 451 451 l 1,12,-1
 322 451 l 1,13,-1
 322 515 l 1,14,-1
 322 515 l 1,10,-1
193 451 m 1,15,-1
 322 451 l 1,16,-1
 322 386 l 1,17,-1
 193 386 l 1,18,-1
 193 451 l 1,19,-1
 193 451 l 1,15,-1
64 386 m 1,20,-1
 193 386 l 1,21,-1
 193 322 l 1,22,-1
 129 322 l 1,23,-1
 129 257 l 1,24,-1
 193 257 l 1,25,-1
 193 193 l 1,26,-1
 64 193 l 1,27,-1
 64 257 l 1,28,-1
 0 257 l 1,29,-1
 0 322 l 1,30,-1
 64 322 l 1,31,-1
 64 386 l 1,32,-1
 64 386 l 1,20,-1
193 193 m 1,33,-1
 322 193 l 1,34,-1
 322 129 l 1,35,-1
 193 129 l 1,36,-1
 193 193 l 1,37,-1
 193 193 l 1,33,-1
322 129 m 1,38,-1
 451 129 l 1,39,-1
 451 64 l 1,40,-1
 322 64 l 1,41,-1
 322 129 l 1,42,-1
 322 129 l 1,38,-1
451 64 m 1,43,-1
 515 64 l 1,44,-1
 515 0 l 1,45,-1
 451 0 l 1,46,-1
 451 64 l 1,47,-1
 451 64 l 1,43,-1
EndSplineSet
EndChar

StartChar: kehiragana
Encoding: 12369 12369 251
Width: 643
VWidth: 839
Flags: W
LayerCount: 2
Fore
SplineSet
451 644 m 1,0,-1
 515 644 l 1,1,-1
 515 515 l 1,2,-1
 579 515 l 1,3,-1
 579 451 l 1,4,-1
 515 451 l 1,5,-1
 515 64 l 1,6,-1
 451 64 l 1,7,-1
 451 451 l 1,8,-1
 193 451 l 1,9,-1
 193 515 l 1,10,-1
 451 515 l 1,11,-1
 451 644 l 1,12,-1
 451 644 l 1,0,-1
0 579 m 1,13,-1
 64 579 l 1,14,-1
 64 64 l 1,15,-1
 0 64 l 1,16,-1
 0 579 l 1,17,-1
 0 579 l 1,13,-1
64 64 m 1,18,-1
 129 64 l 1,19,-1
 129 0 l 1,20,-1
 64 0 l 1,21,-1
 64 64 l 1,22,-1
 64 64 l 1,18,-1
322 64 m 1,23,-1
 451 64 l 1,24,-1
 451 0 l 1,25,-1
 322 0 l 1,26,-1
 322 64 l 1,27,-1
 322 64 l 1,23,-1
EndSplineSet
EndChar

StartChar: gehiragana
Encoding: 12370 12370 252
Width: 708
VWidth: 839
Flags: W
LayerCount: 2
Fore
SplineSet
451 644 m 1,0,-1
 515 644 l 1,1,-1
 515 515 l 1,2,-1
 579 515 l 1,3,-1
 579 451 l 1,4,-1
 515 451 l 1,5,-1
 515 64 l 1,6,-1
 451 64 l 1,7,-1
 451 451 l 1,8,-1
 193 451 l 1,9,-1
 193 515 l 1,10,-1
 451 515 l 1,11,-1
 451 644 l 1,12,-1
 451 644 l 1,0,-1
579 644 m 1,13,-1
 644 644 l 1,14,-1
 644 515 l 1,15,-1
 579 515 l 1,16,-1
 579 644 l 1,17,-1
 579 644 l 1,13,-1
0 579 m 1,18,-1
 64 579 l 1,19,-1
 64 64 l 1,20,-1
 0 64 l 1,21,-1
 0 579 l 1,22,-1
 0 579 l 1,18,-1
64 64 m 1,23,-1
 129 64 l 1,24,-1
 129 0 l 1,25,-1
 64 0 l 1,26,-1
 64 64 l 1,27,-1
 64 64 l 1,23,-1
322 64 m 1,28,-1
 451 64 l 1,29,-1
 451 0 l 1,30,-1
 322 0 l 1,31,-1
 322 64 l 1,32,-1
 322 64 l 1,28,-1
EndSplineSet
EndChar

StartChar: kohiragana
Encoding: 12371 12371 253
Width: 579
VWidth: 839
Flags: W
LayerCount: 2
Fore
SplineSet
64 579 m 1,0,-1
 451 579 l 1,1,-1
 451 515 l 1,2,-1
 64 515 l 1,3,-1
 64 579 l 1,4,-1
 64 579 l 1,0,-1
0 515 m 1,5,-1
 64 515 l 1,6,-1
 64 451 l 1,7,-1
 0 451 l 1,8,-1
 0 515 l 1,9,-1
 0 515 l 1,5,-1
0 193 m 1,10,-1
 64 193 l 1,11,-1
 64 64 l 1,12,-1
 0 64 l 1,13,-1
 0 193 l 1,14,-1
 0 193 l 1,10,-1
451 129 m 1,15,-1
 515 129 l 1,16,-1
 515 64 l 1,17,-1
 451 64 l 1,18,-1
 451 129 l 1,19,-1
 451 129 l 1,15,-1
64 64 m 1,20,-1
 451 64 l 1,21,-1
 451 0 l 1,22,-1
 64 0 l 1,23,-1
 64 64 l 1,24,-1
 64 64 l 1,20,-1
EndSplineSet
EndChar

StartChar: gohiragana
Encoding: 12372 12372 254
Width: 708
VWidth: 839
Flags: W
LayerCount: 2
Fore
SplineSet
451 644 m 1,0,-1
 515 644 l 1,1,-1
 515 515 l 1,2,-1
 64 515 l 1,3,-1
 64 579 l 1,4,-1
 451 579 l 1,5,-1
 451 644 l 1,6,-1
 451 644 l 1,0,-1
579 644 m 1,7,-1
 644 644 l 1,8,-1
 644 515 l 1,9,-1
 579 515 l 1,10,-1
 579 644 l 1,11,-1
 579 644 l 1,7,-1
0 515 m 1,12,-1
 64 515 l 1,13,-1
 64 451 l 1,14,-1
 0 451 l 1,15,-1
 0 515 l 1,16,-1
 0 515 l 1,12,-1
0 193 m 1,17,-1
 64 193 l 1,18,-1
 64 64 l 1,19,-1
 0 64 l 1,20,-1
 0 193 l 1,21,-1
 0 193 l 1,17,-1
451 129 m 1,22,-1
 515 129 l 1,23,-1
 515 64 l 1,24,-1
 451 64 l 1,25,-1
 451 129 l 1,26,-1
 451 129 l 1,22,-1
64 64 m 1,27,-1
 451 64 l 1,28,-1
 451 0 l 1,29,-1
 64 0 l 1,30,-1
 64 64 l 1,31,-1
 64 64 l 1,27,-1
EndSplineSet
EndChar

StartChar: sahiragana
Encoding: 12373 12373 255
Width: 643
VWidth: 839
Flags: W
LayerCount: 2
Fore
SplineSet
322 644 m 1,0,-1
 386 644 l 1,1,-1
 386 515 l 1,2,-1
 579 515 l 1,3,-1
 579 451 l 1,4,-1
 451 451 l 1,5,-1
 451 386 l 1,6,-1
 386 386 l 1,7,-1
 386 451 l 1,8,-1
 0 451 l 1,9,-1
 0 515 l 1,10,-1
 322 515 l 1,11,-1
 322 644 l 1,12,-1
 322 644 l 1,0,-1
451 386 m 1,13,-1
 515 386 l 1,14,-1
 515 257 l 1,15,-1
 451 257 l 1,16,-1
 451 386 l 1,17,-1
 451 386 l 1,13,-1
64 193 m 1,18,-1
 129 193 l 1,19,-1
 129 64 l 1,20,-1
 64 64 l 1,21,-1
 64 193 l 1,22,-1
 64 193 l 1,18,-1
129 64 m 1,23,-1
 515 64 l 1,24,-1
 515 0 l 1,25,-1
 129 0 l 1,26,-1
 129 64 l 1,27,-1
 129 64 l 1,23,-1
EndSplineSet
EndChar

StartChar: zahiragana
Encoding: 12374 12374 256
Width: 708
VWidth: 839
Flags: W
LayerCount: 2
Fore
SplineSet
322 644 m 1,0,-1
 386 644 l 1,1,-1
 386 515 l 1,2,-1
 451 515 l 1,3,-1
 451 644 l 1,4,-1
 515 644 l 1,5,-1
 515 515 l 1,6,-1
 579 515 l 1,7,-1
 579 451 l 1,8,-1
 451 451 l 1,9,-1
 451 386 l 1,10,-1
 386 386 l 1,11,-1
 386 451 l 1,12,-1
 0 451 l 1,13,-1
 0 515 l 1,14,-1
 322 515 l 1,15,-1
 322 644 l 1,16,-1
 322 644 l 1,0,-1
579 644 m 1,17,-1
 644 644 l 1,18,-1
 644 515 l 1,19,-1
 579 515 l 1,20,-1
 579 644 l 1,21,-1
 579 644 l 1,17,-1
451 386 m 1,22,-1
 515 386 l 1,23,-1
 515 257 l 1,24,-1
 451 257 l 1,25,-1
 451 386 l 1,26,-1
 451 386 l 1,22,-1
64 193 m 1,27,-1
 129 193 l 1,28,-1
 129 64 l 1,29,-1
 64 64 l 1,30,-1
 64 193 l 1,31,-1
 64 193 l 1,27,-1
129 64 m 1,32,-1
 515 64 l 1,33,-1
 515 0 l 1,34,-1
 129 0 l 1,35,-1
 129 64 l 1,36,-1
 129 64 l 1,32,-1
EndSplineSet
EndChar

StartChar: sihiragana
Encoding: 12375 12375 257
Width: 579
VWidth: 839
Flags: W
LayerCount: 2
Fore
SplineSet
0 579 m 1,0,-1
 64 579 l 1,1,-1
 64 129 l 1,2,-1
 0 129 l 1,3,-1
 0 579 l 1,4,-1
 0 579 l 1,0,-1
451 257 m 1,5,-1
 515 257 l 1,6,-1
 515 129 l 1,7,-1
 451 129 l 1,8,-1
 451 257 l 1,9,-1
 451 257 l 1,5,-1
64 129 m 1,10,-1
 129 129 l 1,11,-1
 129 64 l 1,12,-1
 64 64 l 1,13,-1
 64 129 l 1,14,-1
 64 129 l 1,10,-1
386 129 m 1,15,-1
 451 129 l 1,16,-1
 451 64 l 1,17,-1
 386 64 l 1,18,-1
 386 129 l 1,19,-1
 386 129 l 1,15,-1
129 64 m 1,20,-1
 386 64 l 1,21,-1
 386 0 l 1,22,-1
 129 0 l 1,23,-1
 129 64 l 1,24,-1
 129 64 l 1,20,-1
EndSplineSet
EndChar

StartChar: zihiragana
Encoding: 12376 12376 258
Width: 643
VWidth: 839
Flags: W
LayerCount: 2
Fore
SplineSet
386 644 m 1,0,-1
 451 644 l 1,1,-1
 451 515 l 1,2,-1
 386 515 l 1,3,-1
 386 644 l 1,4,-1
 386 644 l 1,0,-1
515 644 m 1,5,-1
 579 644 l 1,6,-1
 579 515 l 1,7,-1
 515 515 l 1,8,-1
 515 644 l 1,9,-1
 515 644 l 1,5,-1
0 579 m 1,10,-1
 64 579 l 1,11,-1
 64 129 l 1,12,-1
 0 129 l 1,13,-1
 0 579 l 1,14,-1
 0 579 l 1,10,-1
451 257 m 1,15,-1
 515 257 l 1,16,-1
 515 129 l 1,17,-1
 451 129 l 1,18,-1
 451 257 l 1,19,-1
 451 257 l 1,15,-1
64 129 m 1,20,-1
 129 129 l 1,21,-1
 129 64 l 1,22,-1
 64 64 l 1,23,-1
 64 129 l 1,24,-1
 64 129 l 1,20,-1
386 129 m 1,25,-1
 451 129 l 1,26,-1
 451 64 l 1,27,-1
 386 64 l 1,28,-1
 386 129 l 1,29,-1
 386 129 l 1,25,-1
129 64 m 1,30,-1
 386 64 l 1,31,-1
 386 0 l 1,32,-1
 129 0 l 1,33,-1
 129 64 l 1,34,-1
 129 64 l 1,30,-1
EndSplineSet
EndChar

StartChar: suhiragana
Encoding: 12377 12377 259
Width: 708
VWidth: 839
Flags: W
LayerCount: 2
Fore
SplineSet
451 644 m 1,0,-1
 515 644 l 1,1,-1
 515 515 l 1,2,-1
 644 515 l 1,3,-1
 644 451 l 1,4,-1
 515 451 l 1,5,-1
 515 64 l 1,6,-1
 451 64 l 1,7,-1
 451 129 l 1,8,-1
 193 129 l 1,9,-1
 193 193 l 1,10,-1
 451 193 l 1,11,-1
 451 322 l 1,12,-1
 193 322 l 1,13,-1
 193 386 l 1,14,-1
 451 386 l 1,15,-1
 451 451 l 1,16,-1
 0 451 l 1,17,-1
 0 515 l 1,18,-1
 451 515 l 1,19,-1
 451 644 l 1,20,-1
 451 644 l 1,0,-1
129 322 m 1,21,-1
 193 322 l 1,22,-1
 193 193 l 1,23,-1
 129 193 l 1,24,-1
 129 322 l 1,25,-1
 129 322 l 1,21,-1
257 64 m 1,26,-1
 451 64 l 1,27,-1
 451 0 l 1,28,-1
 257 0 l 1,29,-1
 257 64 l 1,30,-1
 257 64 l 1,26,-1
EndSplineSet
EndChar

StartChar: zuhiragana
Encoding: 12378 12378 260
Width: 708
VWidth: 839
Flags: W
LayerCount: 2
Fore
SplineSet
451 644 m 1,0,-1
 515 644 l 1,1,-1
 515 515 l 1,2,-1
 579 515 l 1,3,-1
 579 451 l 1,4,-1
 515 451 l 1,5,-1
 515 64 l 1,6,-1
 451 64 l 1,7,-1
 451 129 l 1,8,-1
 193 129 l 1,9,-1
 193 193 l 1,10,-1
 451 193 l 1,11,-1
 451 322 l 1,12,-1
 193 322 l 1,13,-1
 193 386 l 1,14,-1
 451 386 l 1,15,-1
 451 451 l 1,16,-1
 0 451 l 1,17,-1
 0 515 l 1,18,-1
 451 515 l 1,19,-1
 451 644 l 1,20,-1
 451 644 l 1,0,-1
579 644 m 1,21,-1
 644 644 l 1,22,-1
 644 515 l 1,23,-1
 579 515 l 1,24,-1
 579 644 l 1,25,-1
 579 644 l 1,21,-1
129 322 m 1,26,-1
 193 322 l 1,27,-1
 193 193 l 1,28,-1
 129 193 l 1,29,-1
 129 322 l 1,30,-1
 129 322 l 1,26,-1
257 64 m 1,31,-1
 451 64 l 1,32,-1
 451 0 l 1,33,-1
 257 0 l 1,34,-1
 257 64 l 1,35,-1
 257 64 l 1,31,-1
EndSplineSet
EndChar

StartChar: sehiragana
Encoding: 12379 12379 261
Width: 643
VWidth: 839
Flags: W
LayerCount: 2
Fore
SplineSet
451 644 m 1,0,-1
 515 644 l 1,1,-1
 515 515 l 1,2,-1
 579 515 l 1,3,-1
 579 451 l 1,4,-1
 515 451 l 1,5,-1
 515 257 l 1,6,-1
 451 257 l 1,7,-1
 451 451 l 1,8,-1
 193 451 l 1,9,-1
 193 64 l 1,10,-1
 129 64 l 1,11,-1
 129 451 l 1,12,-1
 0 451 l 1,13,-1
 0 515 l 1,14,-1
 129 515 l 1,15,-1
 129 579 l 1,16,-1
 193 579 l 1,17,-1
 193 515 l 1,18,-1
 451 515 l 1,19,-1
 451 644 l 1,20,-1
 451 644 l 1,0,-1
386 257 m 1,21,-1
 451 257 l 1,22,-1
 451 193 l 1,23,-1
 386 193 l 1,24,-1
 386 257 l 1,25,-1
 386 257 l 1,21,-1
193 64 m 1,26,-1
 515 64 l 1,27,-1
 515 0 l 1,28,-1
 193 0 l 1,29,-1
 193 64 l 1,30,-1
 193 64 l 1,26,-1
EndSplineSet
EndChar

StartChar: zehiragana
Encoding: 12380 12380 262
Width: 708
VWidth: 839
Flags: W
LayerCount: 2
Fore
SplineSet
451 644 m 1,0,-1
 515 644 l 1,1,-1
 515 515 l 1,2,-1
 579 515 l 1,3,-1
 579 451 l 1,4,-1
 515 451 l 1,5,-1
 515 257 l 1,6,-1
 451 257 l 1,7,-1
 451 451 l 1,8,-1
 193 451 l 1,9,-1
 193 64 l 1,10,-1
 129 64 l 1,11,-1
 129 451 l 1,12,-1
 0 451 l 1,13,-1
 0 515 l 1,14,-1
 129 515 l 1,15,-1
 129 579 l 1,16,-1
 193 579 l 1,17,-1
 193 515 l 1,18,-1
 451 515 l 1,19,-1
 451 644 l 1,20,-1
 451 644 l 1,0,-1
579 644 m 1,21,-1
 644 644 l 1,22,-1
 644 515 l 1,23,-1
 579 515 l 1,24,-1
 579 644 l 1,25,-1
 579 644 l 1,21,-1
386 257 m 1,26,-1
 451 257 l 1,27,-1
 451 193 l 1,28,-1
 386 193 l 1,29,-1
 386 257 l 1,30,-1
 386 257 l 1,26,-1
193 64 m 1,31,-1
 515 64 l 1,32,-1
 515 0 l 1,33,-1
 193 0 l 1,34,-1
 193 64 l 1,35,-1
 193 64 l 1,31,-1
EndSplineSet
EndChar

StartChar: sohiragana
Encoding: 12381 12381 263
Width: 643
VWidth: 839
Flags: W
LayerCount: 2
Fore
SplineSet
129 579 m 1,0,-1
 515 579 l 1,1,-1
 515 515 l 1,2,-1
 451 515 l 1,3,-1
 451 451 l 1,4,-1
 386 451 l 1,5,-1
 386 515 l 1,6,-1
 129 515 l 1,7,-1
 129 579 l 1,8,-1
 129 579 l 1,0,-1
257 451 m 1,9,-1
 386 451 l 1,10,-1
 386 386 l 1,11,-1
 579 386 l 1,12,-1
 579 322 l 1,13,-1
 322 322 l 1,14,-1
 322 257 l 1,15,-1
 257 257 l 1,16,-1
 257 129 l 1,17,-1
 193 129 l 1,18,-1
 193 257 l 1,19,-1
 0 257 l 1,20,-1
 0 322 l 1,21,-1
 193 322 l 1,22,-1
 193 386 l 1,23,-1
 257 386 l 1,24,-1
 257 451 l 1,25,-1
 257 451 l 1,9,-1
257 129 m 1,26,-1
 322 129 l 1,27,-1
 322 64 l 1,28,-1
 257 64 l 1,29,-1
 257 129 l 1,30,-1
 257 129 l 1,26,-1
322 64 m 1,31,-1
 515 64 l 1,32,-1
 515 0 l 1,33,-1
 322 0 l 1,34,-1
 322 64 l 1,35,-1
 322 64 l 1,31,-1
EndSplineSet
EndChar

StartChar: zohiragana
Encoding: 12382 12382 264
Width: 708
VWidth: 839
Flags: W
LayerCount: 2
Fore
SplineSet
451 644 m 1,0,-1
 515 644 l 1,1,-1
 515 515 l 1,2,-1
 451 515 l 1,3,-1
 451 451 l 1,4,-1
 386 451 l 1,5,-1
 386 515 l 1,6,-1
 129 515 l 1,7,-1
 129 579 l 1,8,-1
 451 579 l 1,9,-1
 451 644 l 1,10,-1
 451 644 l 1,0,-1
579 644 m 1,11,-1
 644 644 l 1,12,-1
 644 515 l 1,13,-1
 579 515 l 1,14,-1
 579 644 l 1,15,-1
 579 644 l 1,11,-1
257 451 m 1,16,-1
 386 451 l 1,17,-1
 386 386 l 1,18,-1
 579 386 l 1,19,-1
 579 322 l 1,20,-1
 322 322 l 1,21,-1
 322 257 l 1,22,-1
 257 257 l 1,23,-1
 257 129 l 1,24,-1
 193 129 l 1,25,-1
 193 257 l 1,26,-1
 0 257 l 1,27,-1
 0 322 l 1,28,-1
 193 322 l 1,29,-1
 193 386 l 1,30,-1
 257 386 l 1,31,-1
 257 451 l 1,32,-1
 257 451 l 1,16,-1
257 129 m 1,33,-1
 322 129 l 1,34,-1
 322 64 l 1,35,-1
 257 64 l 1,36,-1
 257 129 l 1,37,-1
 257 129 l 1,33,-1
322 64 m 1,38,-1
 515 64 l 1,39,-1
 515 0 l 1,40,-1
 322 0 l 1,41,-1
 322 64 l 1,42,-1
 322 64 l 1,38,-1
EndSplineSet
EndChar

StartChar: tahiragana
Encoding: 12383 12383 265
Width: 708
VWidth: 839
Flags: W
LayerCount: 2
Fore
SplineSet
193 644 m 1,0,-1
 257 644 l 1,1,-1
 257 515 l 1,2,-1
 451 515 l 1,3,-1
 451 451 l 1,4,-1
 257 451 l 1,5,-1
 257 386 l 1,6,-1
 193 386 l 1,7,-1
 193 451 l 1,8,-1
 0 451 l 1,9,-1
 0 515 l 1,10,-1
 193 515 l 1,11,-1
 193 644 l 1,12,-1
 193 644 l 1,0,-1
129 386 m 1,13,-1
 193 386 l 1,14,-1
 193 193 l 1,15,-1
 129 193 l 1,16,-1
 129 386 l 1,17,-1
 129 386 l 1,13,-1
322 386 m 1,18,-1
 579 386 l 1,19,-1
 579 322 l 1,20,-1
 322 322 l 1,21,-1
 322 386 l 1,22,-1
 322 386 l 1,18,-1
64 193 m 1,23,-1
 129 193 l 1,24,-1
 129 0 l 1,25,-1
 64 0 l 1,26,-1
 64 193 l 1,27,-1
 64 193 l 1,23,-1
257 129 m 1,28,-1
 322 129 l 1,29,-1
 322 64 l 1,30,-1
 257 64 l 1,31,-1
 257 129 l 1,32,-1
 257 129 l 1,28,-1
322 64 m 1,33,-1
 644 64 l 1,34,-1
 644 0 l 1,35,-1
 322 0 l 1,36,-1
 322 64 l 1,37,-1
 322 64 l 1,33,-1
EndSplineSet
EndChar

StartChar: dahiragana
Encoding: 12384 12384 266
Width: 708
VWidth: 839
Flags: W
LayerCount: 2
Fore
SplineSet
193 644 m 1,0,-1
 257 644 l 1,1,-1
 257 515 l 1,2,-1
 451 515 l 1,3,-1
 451 451 l 1,4,-1
 257 451 l 1,5,-1
 257 386 l 1,6,-1
 193 386 l 1,7,-1
 193 451 l 1,8,-1
 0 451 l 1,9,-1
 0 515 l 1,10,-1
 193 515 l 1,11,-1
 193 644 l 1,12,-1
 193 644 l 1,0,-1
451 644 m 1,13,-1
 515 644 l 1,14,-1
 515 515 l 1,15,-1
 451 515 l 1,16,-1
 451 644 l 1,17,-1
 451 644 l 1,13,-1
579 644 m 1,18,-1
 644 644 l 1,19,-1
 644 515 l 1,20,-1
 579 515 l 1,21,-1
 579 644 l 1,22,-1
 579 644 l 1,18,-1
129 386 m 1,23,-1
 193 386 l 1,24,-1
 193 193 l 1,25,-1
 129 193 l 1,26,-1
 129 386 l 1,27,-1
 129 386 l 1,23,-1
322 386 m 1,28,-1
 579 386 l 1,29,-1
 579 322 l 1,30,-1
 322 322 l 1,31,-1
 322 386 l 1,32,-1
 322 386 l 1,28,-1
64 193 m 1,33,-1
 129 193 l 1,34,-1
 129 0 l 1,35,-1
 64 0 l 1,36,-1
 64 193 l 1,37,-1
 64 193 l 1,33,-1
257 129 m 1,38,-1
 322 129 l 1,39,-1
 322 64 l 1,40,-1
 257 64 l 1,41,-1
 257 129 l 1,42,-1
 257 129 l 1,38,-1
322 64 m 1,43,-1
 644 64 l 1,44,-1
 644 0 l 1,45,-1
 322 0 l 1,46,-1
 322 64 l 1,47,-1
 322 64 l 1,43,-1
EndSplineSet
EndChar

StartChar: tihiragana
Encoding: 12385 12385 267
Width: 643
VWidth: 839
Flags: W
LayerCount: 2
Fore
SplineSet
193 644 m 1,0,-1
 257 644 l 1,1,-1
 257 515 l 1,2,-1
 579 515 l 1,3,-1
 579 451 l 1,4,-1
 257 451 l 1,5,-1
 257 386 l 1,6,-1
 193 386 l 1,7,-1
 193 451 l 1,8,-1
 0 451 l 1,9,-1
 0 515 l 1,10,-1
 193 515 l 1,11,-1
 193 644 l 1,12,-1
 193 644 l 1,0,-1
129 386 m 1,13,-1
 193 386 l 1,14,-1
 193 322 l 1,15,-1
 515 322 l 1,16,-1
 515 257 l 1,17,-1
 193 257 l 1,18,-1
 193 193 l 1,19,-1
 129 193 l 1,20,-1
 129 386 l 1,21,-1
 129 386 l 1,13,-1
515 257 m 1,22,-1
 579 257 l 1,23,-1
 579 64 l 1,24,-1
 515 64 l 1,25,-1
 515 257 l 1,26,-1
 515 257 l 1,22,-1
193 64 m 1,27,-1
 515 64 l 1,28,-1
 515 0 l 1,29,-1
 193 0 l 1,30,-1
 193 64 l 1,31,-1
 193 64 l 1,27,-1
EndSplineSet
EndChar

StartChar: dihiragana
Encoding: 12386 12386 268
Width: 708
VWidth: 839
Flags: W
LayerCount: 2
Fore
SplineSet
193 644 m 1,0,-1
 257 644 l 1,1,-1
 257 515 l 1,2,-1
 451 515 l 1,3,-1
 451 644 l 1,4,-1
 515 644 l 1,5,-1
 515 515 l 1,6,-1
 579 515 l 1,7,-1
 579 451 l 1,8,-1
 257 451 l 1,9,-1
 257 386 l 1,10,-1
 193 386 l 1,11,-1
 193 451 l 1,12,-1
 0 451 l 1,13,-1
 0 515 l 1,14,-1
 193 515 l 1,15,-1
 193 644 l 1,16,-1
 193 644 l 1,0,-1
579 644 m 1,17,-1
 644 644 l 1,18,-1
 644 515 l 1,19,-1
 579 515 l 1,20,-1
 579 644 l 1,21,-1
 579 644 l 1,17,-1
129 386 m 1,22,-1
 193 386 l 1,23,-1
 193 322 l 1,24,-1
 515 322 l 1,25,-1
 515 257 l 1,26,-1
 193 257 l 1,27,-1
 193 193 l 1,28,-1
 129 193 l 1,29,-1
 129 386 l 1,30,-1
 129 386 l 1,22,-1
515 257 m 1,31,-1
 579 257 l 1,32,-1
 579 64 l 1,33,-1
 515 64 l 1,34,-1
 515 257 l 1,35,-1
 515 257 l 1,31,-1
193 64 m 1,36,-1
 515 64 l 1,37,-1
 515 0 l 1,38,-1
 193 0 l 1,39,-1
 193 64 l 1,40,-1
 193 64 l 1,36,-1
EndSplineSet
EndChar

StartChar: tusmallhiragana
Encoding: 12387 12387 269
Width: 643
VWidth: 839
Flags: W
LayerCount: 2
Fore
SplineSet
64 386 m 1,0,-1
 451 386 l 1,1,-1
 451 322 l 1,2,-1
 64 322 l 1,3,-1
 64 386 l 1,4,-1
 64 386 l 1,0,-1
451 322 m 1,5,-1
 515 322 l 1,6,-1
 515 257 l 1,7,-1
 451 257 l 1,8,-1
 451 322 l 1,9,-1
 451 322 l 1,5,-1
515 257 m 1,10,-1
 579 257 l 1,11,-1
 579 129 l 1,12,-1
 515 129 l 1,13,-1
 515 257 l 1,14,-1
 515 257 l 1,10,-1
451 129 m 1,15,-1
 515 129 l 1,16,-1
 515 64 l 1,17,-1
 451 64 l 1,18,-1
 451 129 l 1,19,-1
 451 129 l 1,15,-1
257 64 m 1,20,-1
 451 64 l 1,21,-1
 451 0 l 1,22,-1
 257 0 l 1,23,-1
 257 64 l 1,24,-1
 257 64 l 1,20,-1
EndSplineSet
EndChar

StartChar: tuhiragana
Encoding: 12388 12388 270
Width: 643
VWidth: 839
Flags: W
LayerCount: 2
Fore
SplineSet
129 515 m 1,0,-1
 451 515 l 1,1,-1
 451 451 l 1,2,-1
 129 451 l 1,3,-1
 129 515 l 1,4,-1
 129 515 l 1,0,-1
0 451 m 1,5,-1
 129 451 l 1,6,-1
 129 386 l 1,7,-1
 0 386 l 1,8,-1
 0 451 l 1,9,-1
 0 451 l 1,5,-1
451 451 m 1,10,-1
 515 451 l 1,11,-1
 515 386 l 1,12,-1
 451 386 l 1,13,-1
 451 451 l 1,14,-1
 451 451 l 1,10,-1
515 386 m 1,15,-1
 579 386 l 1,16,-1
 579 129 l 1,17,-1
 515 129 l 1,18,-1
 515 386 l 1,19,-1
 515 386 l 1,15,-1
451 129 m 1,20,-1
 515 129 l 1,21,-1
 515 64 l 1,22,-1
 451 64 l 1,23,-1
 451 129 l 1,24,-1
 451 129 l 1,20,-1
257 64 m 1,25,-1
 451 64 l 1,26,-1
 451 0 l 1,27,-1
 257 0 l 1,28,-1
 257 64 l 1,29,-1
 257 64 l 1,25,-1
EndSplineSet
EndChar

StartChar: duhiragana
Encoding: 12389 12389 271
Width: 708
VWidth: 839
Flags: W
LayerCount: 2
Fore
SplineSet
451 644 m 1,0,-1
 515 644 l 1,1,-1
 515 515 l 1,2,-1
 451 515 l 1,3,-1
 451 644 l 1,4,-1
 451 644 l 1,0,-1
579 644 m 1,5,-1
 644 644 l 1,6,-1
 644 515 l 1,7,-1
 579 515 l 1,8,-1
 579 644 l 1,9,-1
 579 644 l 1,5,-1
129 515 m 1,10,-1
 451 515 l 1,11,-1
 451 451 l 1,12,-1
 129 451 l 1,13,-1
 129 515 l 1,14,-1
 129 515 l 1,10,-1
0 451 m 1,15,-1
 129 451 l 1,16,-1
 129 386 l 1,17,-1
 0 386 l 1,18,-1
 0 451 l 1,19,-1
 0 451 l 1,15,-1
451 451 m 1,20,-1
 515 451 l 1,21,-1
 515 386 l 1,22,-1
 451 386 l 1,23,-1
 451 451 l 1,24,-1
 451 451 l 1,20,-1
515 386 m 1,25,-1
 579 386 l 1,26,-1
 579 129 l 1,27,-1
 515 129 l 1,28,-1
 515 386 l 1,29,-1
 515 386 l 1,25,-1
451 129 m 1,30,-1
 515 129 l 1,31,-1
 515 64 l 1,32,-1
 451 64 l 1,33,-1
 451 129 l 1,34,-1
 451 129 l 1,30,-1
257 64 m 1,35,-1
 451 64 l 1,36,-1
 451 0 l 1,37,-1
 257 0 l 1,38,-1
 257 64 l 1,39,-1
 257 64 l 1,35,-1
EndSplineSet
EndChar

StartChar: tehiragana
Encoding: 12390 12390 272
Width: 643
VWidth: 839
Flags: W
LayerCount: 2
Fore
SplineSet
257 579 m 1,0,-1
 579 579 l 1,1,-1
 579 515 l 1,2,-1
 515 515 l 1,3,-1
 515 451 l 1,4,-1
 386 451 l 1,5,-1
 386 515 l 1,6,-1
 257 515 l 1,7,-1
 257 579 l 1,8,-1
 257 579 l 1,0,-1
0 515 m 1,9,-1
 257 515 l 1,10,-1
 257 451 l 1,11,-1
 0 451 l 1,12,-1
 0 515 l 1,13,-1
 0 515 l 1,9,-1
322 451 m 1,14,-1
 386 451 l 1,15,-1
 386 386 l 1,16,-1
 322 386 l 1,17,-1
 322 451 l 1,18,-1
 322 451 l 1,14,-1
257 386 m 1,19,-1
 322 386 l 1,20,-1
 322 322 l 1,21,-1
 257 322 l 1,22,-1
 257 386 l 1,23,-1
 257 386 l 1,19,-1
193 322 m 1,24,-1
 257 322 l 1,25,-1
 257 129 l 1,26,-1
 193 129 l 1,27,-1
 193 322 l 1,28,-1
 193 322 l 1,24,-1
257 129 m 1,29,-1
 322 129 l 1,30,-1
 322 64 l 1,31,-1
 257 64 l 1,32,-1
 257 129 l 1,33,-1
 257 129 l 1,29,-1
322 64 m 1,34,-1
 515 64 l 1,35,-1
 515 0 l 1,36,-1
 322 0 l 1,37,-1
 322 64 l 1,38,-1
 322 64 l 1,34,-1
EndSplineSet
EndChar

StartChar: dehiragana
Encoding: 12391 12391 273
Width: 708
VWidth: 839
Flags: W
LayerCount: 2
Fore
SplineSet
451 644 m 1,0,-1
 515 644 l 1,1,-1
 515 451 l 1,2,-1
 386 451 l 1,3,-1
 386 515 l 1,4,-1
 257 515 l 1,5,-1
 257 579 l 1,6,-1
 451 579 l 1,7,-1
 451 644 l 1,8,-1
 451 644 l 1,0,-1
579 644 m 1,9,-1
 644 644 l 1,10,-1
 644 515 l 1,11,-1
 579 515 l 1,12,-1
 579 644 l 1,13,-1
 579 644 l 1,9,-1
0 515 m 1,14,-1
 257 515 l 1,15,-1
 257 451 l 1,16,-1
 0 451 l 1,17,-1
 0 515 l 1,18,-1
 0 515 l 1,14,-1
322 451 m 1,19,-1
 386 451 l 1,20,-1
 386 386 l 1,21,-1
 322 386 l 1,22,-1
 322 451 l 1,23,-1
 322 451 l 1,19,-1
257 386 m 1,24,-1
 322 386 l 1,25,-1
 322 322 l 1,26,-1
 257 322 l 1,27,-1
 257 386 l 1,28,-1
 257 386 l 1,24,-1
193 322 m 1,29,-1
 257 322 l 1,30,-1
 257 129 l 1,31,-1
 193 129 l 1,32,-1
 193 322 l 1,33,-1
 193 322 l 1,29,-1
257 129 m 1,34,-1
 322 129 l 1,35,-1
 322 64 l 1,36,-1
 257 64 l 1,37,-1
 257 129 l 1,38,-1
 257 129 l 1,34,-1
322 64 m 1,39,-1
 515 64 l 1,40,-1
 515 0 l 1,41,-1
 322 0 l 1,42,-1
 322 64 l 1,43,-1
 322 64 l 1,39,-1
EndSplineSet
EndChar

StartChar: tohiragana
Encoding: 12392 12392 274
Width: 579
VWidth: 839
Flags: W
LayerCount: 2
Fore
SplineSet
64 644 m 1,0,-1
 129 644 l 1,1,-1
 129 386 l 1,2,-1
 64 386 l 1,3,-1
 64 644 l 1,4,-1
 64 644 l 1,0,-1
386 515 m 1,5,-1
 515 515 l 1,6,-1
 515 451 l 1,7,-1
 386 451 l 1,8,-1
 386 515 l 1,9,-1
 386 515 l 1,5,-1
257 451 m 1,10,-1
 386 451 l 1,11,-1
 386 386 l 1,12,-1
 257 386 l 1,13,-1
 257 451 l 1,14,-1
 257 451 l 1,10,-1
129 386 m 1,15,-1
 257 386 l 1,16,-1
 257 322 l 1,17,-1
 129 322 l 1,18,-1
 129 386 l 1,19,-1
 129 386 l 1,15,-1
64 322 m 1,20,-1
 129 322 l 1,21,-1
 129 257 l 1,22,-1
 64 257 l 1,23,-1
 64 322 l 1,24,-1
 64 322 l 1,20,-1
0 257 m 1,25,-1
 64 257 l 1,26,-1
 64 129 l 1,27,-1
 0 129 l 1,28,-1
 0 257 l 1,29,-1
 0 257 l 1,25,-1
64 129 m 1,30,-1
 129 129 l 1,31,-1
 129 64 l 1,32,-1
 64 64 l 1,33,-1
 64 129 l 1,34,-1
 64 129 l 1,30,-1
129 64 m 1,35,-1
 515 64 l 1,36,-1
 515 0 l 1,37,-1
 129 0 l 1,38,-1
 129 64 l 1,39,-1
 129 64 l 1,35,-1
EndSplineSet
EndChar

StartChar: dohiragana
Encoding: 12393 12393 275
Width: 708
VWidth: 839
Flags: W
LayerCount: 2
Fore
SplineSet
64 644 m 1,0,-1
 129 644 l 1,1,-1
 129 386 l 1,2,-1
 64 386 l 1,3,-1
 64 644 l 1,4,-1
 64 644 l 1,0,-1
451 644 m 1,5,-1
 515 644 l 1,6,-1
 515 451 l 1,7,-1
 386 451 l 1,8,-1
 386 515 l 1,9,-1
 451 515 l 1,10,-1
 451 644 l 1,11,-1
 451 644 l 1,5,-1
579 644 m 1,12,-1
 644 644 l 1,13,-1
 644 515 l 1,14,-1
 579 515 l 1,15,-1
 579 644 l 1,16,-1
 579 644 l 1,12,-1
257 451 m 1,17,-1
 386 451 l 1,18,-1
 386 386 l 1,19,-1
 257 386 l 1,20,-1
 257 451 l 1,21,-1
 257 451 l 1,17,-1
129 386 m 1,22,-1
 257 386 l 1,23,-1
 257 322 l 1,24,-1
 129 322 l 1,25,-1
 129 386 l 1,26,-1
 129 386 l 1,22,-1
64 322 m 1,27,-1
 129 322 l 1,28,-1
 129 257 l 1,29,-1
 64 257 l 1,30,-1
 64 322 l 1,31,-1
 64 322 l 1,27,-1
0 257 m 1,32,-1
 64 257 l 1,33,-1
 64 129 l 1,34,-1
 0 129 l 1,35,-1
 0 257 l 1,36,-1
 0 257 l 1,32,-1
64 129 m 1,37,-1
 129 129 l 1,38,-1
 129 64 l 1,39,-1
 64 64 l 1,40,-1
 64 129 l 1,41,-1
 64 129 l 1,37,-1
129 64 m 1,42,-1
 515 64 l 1,43,-1
 515 0 l 1,44,-1
 129 0 l 1,45,-1
 129 64 l 1,46,-1
 129 64 l 1,42,-1
EndSplineSet
EndChar

StartChar: nahiragana
Encoding: 12394 12394 276
Width: 643
VWidth: 839
Flags: W
LayerCount: 2
Fore
SplineSet
129 644 m 1,0,-1
 193 644 l 1,1,-1
 193 579 l 1,2,-1
 386 579 l 1,3,-1
 386 515 l 1,4,-1
 193 515 l 1,5,-1
 193 451 l 1,6,-1
 129 451 l 1,7,-1
 129 515 l 1,8,-1
 0 515 l 1,9,-1
 0 579 l 1,10,-1
 129 579 l 1,11,-1
 129 644 l 1,12,-1
 129 644 l 1,0,-1
451 579 m 1,13,-1
 515 579 l 1,14,-1
 515 515 l 1,15,-1
 451 515 l 1,16,-1
 451 579 l 1,17,-1
 451 579 l 1,13,-1
515 515 m 1,18,-1
 579 515 l 1,19,-1
 579 451 l 1,20,-1
 515 451 l 1,21,-1
 515 515 l 1,22,-1
 515 515 l 1,18,-1
64 451 m 1,23,-1
 129 451 l 1,24,-1
 129 322 l 1,25,-1
 64 322 l 1,26,-1
 64 451 l 1,27,-1
 64 451 l 1,23,-1
386 451 m 1,28,-1
 451 451 l 1,29,-1
 451 193 l 1,30,-1
 579 193 l 1,31,-1
 579 129 l 1,32,-1
 451 129 l 1,33,-1
 451 64 l 1,34,-1
 386 64 l 1,35,-1
 386 193 l 1,36,-1
 193 193 l 1,37,-1
 193 257 l 1,38,-1
 386 257 l 1,39,-1
 386 451 l 1,40,-1
 386 451 l 1,28,-1
0 322 m 1,41,-1
 64 322 l 1,42,-1
 64 193 l 1,43,-1
 0 193 l 1,44,-1
 0 322 l 1,45,-1
 0 322 l 1,41,-1
129 193 m 1,46,-1
 193 193 l 1,47,-1
 193 64 l 1,48,-1
 129 64 l 1,49,-1
 129 193 l 1,50,-1
 129 193 l 1,46,-1
193 64 m 1,51,-1
 386 64 l 1,52,-1
 386 0 l 1,53,-1
 193 0 l 1,54,-1
 193 64 l 1,55,-1
 193 64 l 1,51,-1
EndSplineSet
EndChar

